<svg width="24" height="25" viewBox="0 0 24 25" fill="none" xmlns="http://www.w3.org/2000/svg">
    <path d="M23.9227 7.09454C23.9093 6.08515 23.7203 5.0858 23.3643 4.14118C22.74 2.5301 21.4663 1.25633 19.8552 0.632074C18.9227 0.28204 17.9376 0.0927696 16.9418 0.0723248C15.6597 0.0150161 15.2532 -0.000976562 11.9987 -0.000976562C8.74411 -0.000976562 8.32697 -0.000976562 7.0542 0.0723238C6.05885 0.0929203 5.07421 0.282188 4.14216 0.632074C2.5308 1.2559 1.25688 2.52982 0.633052 4.14118C0.282317 5.07294 0.0934563 6.05781 0.0746341 7.05322C0.0173259 8.33665 0 8.74314 0 11.9977C0 15.2522 0 15.6681 0.0746336 16.9422C0.094625 17.939 0.282541 18.9226 0.633052 19.8569C1.25792 21.4677 2.53217 22.741 4.14349 23.3646C5.07299 23.7287 6.05781 23.9316 7.05553 23.9644C8.33896 24.0217 8.74545 24.039 12 24.039C15.2546 24.039 15.6717 24.039 16.9445 23.9644C17.9402 23.9448 18.9254 23.7559 19.8578 23.406C21.4685 22.781 22.742 21.5075 23.3669 19.8968C23.7175 18.9639 23.9054 17.9804 23.9254 16.9821C23.9827 15.7 24 15.2936 24 12.0377C23.9973 8.78312 23.9973 8.36997 23.9227 7.09454ZM11.9907 18.1523C8.58685 18.1523 5.82941 15.3948 5.82941 11.991C5.82941 8.58721 8.58685 5.82977 11.9907 5.82977C15.3934 5.82977 18.1519 8.58826 18.1519 11.991C18.1519 15.3938 15.3934 18.1523 11.9907 18.1523ZM18.3972 7.03856C18.016 7.03892 17.6504 6.88766 17.3809 6.61815C17.1114 6.34865 16.9601 5.98301 16.9605 5.60187C16.9605 4.80877 17.6034 4.16584 18.3965 4.16584C19.1896 4.16584 19.8325 4.80877 19.8325 5.60187C19.8325 6.39618 19.1901 7.03856 18.3972 7.03856Z" fill="#828282"/>
    <circle cx="11.9905" cy="11.9915" r="4.00222" fill="#828282"/>
</svg>
