<svg width="24" height="24" viewBox="0 0 24 24" fill="none" xmlns="http://www.w3.org/2000/svg">
    <path d="M14.0037 11.7903L11.1963 10.4803C10.9513 10.3665 10.75 10.494 10.75 10.7653V13.2328C10.75 13.504 10.9513 13.6315 11.1963 13.5178L14.0025 12.2078C14.2487 12.0928 14.2487 11.9053 14.0037 11.7903ZM12 -0.000976562C5.3725 -0.000976562 0 5.37152 0 11.999C0 18.6265 5.3725 23.999 12 23.999C18.6275 23.999 24 18.6265 24 11.999C24 5.37152 18.6275 -0.000976562 12 -0.000976562ZM12 16.874C5.8575 16.874 5.75 16.3203 5.75 11.999C5.75 7.67777 5.8575 7.12402 12 7.12402C18.1425 7.12402 18.25 7.67777 18.25 11.999C18.25 16.3203 18.1425 16.874 12 16.874Z" fill="#828282"/>
</svg>
