<svg width="32" height="33" viewBox="0 0 32 33" fill="none" xmlns="http://www.w3.org/2000/svg">
<path d="M16.0005 0.960938C7.16477 0.960938 0.000488281 8.12522 0.000488281 16.9609C0.000488281 25.7967 7.16477 32.9609 16.0005 32.9609C24.8362 32.9609 32.0005 25.7967 32.0005 16.9609C32.0005 8.12522 24.8362 0.960938 16.0005 0.960938ZM23.6898 13.0217C23.7005 13.1895 23.7005 13.3645 23.7005 13.5359C23.7005 18.7788 19.7076 24.8181 12.4112 24.8181C10.1612 24.8181 8.07549 24.1645 6.31835 23.0395C6.63977 23.0752 6.94692 23.0895 7.27549 23.0895C9.13263 23.0895 10.8398 22.4609 12.2005 21.3967C10.4576 21.3609 8.99334 20.2181 8.49334 18.6467C9.10406 18.7359 9.65406 18.7359 10.2826 18.5752C8.43228 18.1993 7.10385 16.5705 7.10763 14.6824V14.6324C7.63263 14.9288 8.25049 15.1109 8.89692 15.1359C7.79327 14.4004 7.12995 13.1622 7.12906 11.8359C7.12906 11.0967 7.32191 10.4217 7.66834 9.83594C9.68281 12.3158 12.6559 13.8231 15.8469 13.9824C15.2862 11.2859 17.3005 9.1038 19.7219 9.1038C20.8648 9.1038 21.8933 9.58237 22.6183 10.3538C23.5148 10.1859 24.3719 9.85022 25.1362 9.40022C24.8398 10.3181 24.2183 11.0931 23.3933 11.5824C24.1933 11.4967 24.9648 11.2752 25.6791 10.9645C25.1398 11.7574 24.4648 12.4609 23.6898 13.0217Z" fill="#FA6605"/>
</svg>
