<svg width="32" height="33" viewBox="0 0 32 33" fill="none" xmlns="http://www.w3.org/2000/svg">
<path d="M16 32.9609C11.7266 32.9609 7.70703 31.2969 4.6875 28.2734C1.66406 25.252 0 21.2344 0 16.9609C0 12.6875 1.66406 8.66992 4.6875 5.64844C7.70703 2.625 11.7266 0.960938 16 0.960938C20.2734 0.960938 24.291 2.625 27.3125 5.64844C30.3359 8.66992 32 12.6875 32 16.9609C32 21.2344 30.3359 25.252 27.3125 28.2734C24.291 31.2969 20.2734 32.9609 16 32.9609ZM6.66016 8.96094C5.92969 8.96094 5.33594 9.55664 5.33594 10.291V24.4785C5.33594 25.2188 5.92969 25.8184 6.66016 25.8184H25.332C26.0664 25.8184 26.6641 25.2188 26.6641 24.4785V10.291C26.6641 9.55664 26.0664 8.96094 25.332 8.96094H6.66016ZM24 23.1543H23.9961H8V13.3184L15.1289 19.5176C15.3691 19.7246 15.6797 19.8379 16 19.8379C16.3164 19.8379 16.6289 19.7246 16.877 19.5176L24 13.3184V23.1504V23.1543ZM16 16.7363L10.1211 11.6328H21.877L16 16.7363Z" fill="#FA6605"/>
</svg>
