<svg width="32" height="32" viewBox="0 0 32 32" fill="none" xmlns="http://www.w3.org/2000/svg">
<path d="M16 32C11.7266 32 7.70703 30.3359 4.6875 27.3125C1.66406 24.291 0 20.2734 0 16C0 11.7266 1.66406 7.70898 4.6875 4.6875C7.70703 1.66406 11.7266 0 16 0C20.2734 0 24.291 1.66406 27.3125 4.6875C30.3359 7.70898 32 11.7266 32 16C32 20.2734 30.3359 24.291 27.3125 27.3125C24.291 30.3359 20.2734 32 16 32ZM6.66016 8C5.92969 8 5.33594 8.5957 5.33594 9.33008V23.5176C5.33594 24.2578 5.92969 24.8574 6.66016 24.8574H25.332C26.0664 24.8574 26.6641 24.2578 26.6641 23.5176V9.33008C26.6641 8.5957 26.0664 8 25.332 8H6.66016ZM24 22.1934H23.9961H8V12.3574L15.1289 18.5566C15.3691 18.7637 15.6797 18.877 16 18.877C16.3164 18.877 16.6289 18.7637 16.877 18.5566L24 12.3574V22.1895V22.1934ZM16 15.7754L10.1211 10.6719H21.877L16 15.7754Z" fill="#E6E6E6"/>
</svg>
