<svg width="32" height="32" viewBox="0 0 32 32" fill="none" xmlns="http://www.w3.org/2000/svg">
<path d="M16 0C7.16429 0 0 7.16429 0 16C0 24.8357 7.16429 32 16 32C24.8357 32 32 24.8357 32 16C32 7.16428 24.8357 0 16 0ZM23.6893 12.0607C23.7 12.2286 23.7 12.4036 23.7 12.575C23.7 17.8179 19.7071 23.8571 12.4107 23.8571C10.1607 23.8571 8.075 23.2036 6.31786 22.0786C6.63929 22.1143 6.94643 22.1286 7.275 22.1286C9.13214 22.1286 10.8393 21.5 12.2 20.4357C10.4571 20.4 8.99286 19.2571 8.49286 17.6857C9.10357 17.775 9.65357 17.775 10.2821 17.6143C8.43179 17.2384 7.10336 15.6096 7.10714 13.7214V13.6714C7.63214 13.9679 8.25 14.15 8.89643 14.175C7.79278 13.4395 7.12946 12.2013 7.12857 10.875C7.12857 10.1357 7.32143 9.46072 7.66786 8.875C9.68232 11.3549 12.6554 12.8622 15.8464 13.0214C15.2857 10.325 17.3 8.14286 19.7214 8.14286C20.8643 8.14286 21.8929 8.62143 22.6179 9.39286C23.5143 9.225 24.3714 8.88929 25.1357 8.43929C24.8393 9.35714 24.2179 10.1321 23.3929 10.6214C24.1929 10.5357 24.9643 10.3143 25.6786 10.0036C25.1393 10.7964 24.4643 11.5 23.6893 12.0607Z" fill="#E6E6E6"/>
</svg>
