<svg width="75" height="30" viewBox="0 0 75 30" fill="none" xmlns="http://www.w3.org/2000/svg">
<path d="M35.2336 14.6623V23.4662H32.4829V1.73369H39.7782C41.538 1.69903 43.2465 2.37492 44.4937 3.62273C46.9881 5.97969 47.1418 9.94839 44.8012 12.496C44.6987 12.6 44.5962 12.704 44.4937 12.8079C43.2123 14.0384 41.6405 14.6623 39.7782 14.6623H35.2336ZM35.2336 4.4026V11.9934H39.8465C40.8716 12.0281 41.8626 11.6121 42.5631 10.8669C43.9982 9.35915 43.964 6.93287 42.4776 5.4771C41.7771 4.78388 40.8375 4.4026 39.8465 4.4026H35.2336Z" fill="white"/>
<path d="M52.814 8.11133C54.8471 8.11133 56.4531 8.66591 57.632 9.75773C58.8109 10.8496 59.3918 12.3747 59.3918 14.2983V23.4662H56.7607V21.4039H56.6411C55.4964 23.1023 53.9929 23.9515 52.0965 23.9515C50.4905 23.9515 49.1237 23.4662 48.0473 22.4957C46.988 21.5945 46.3901 20.2601 46.4242 18.8563C46.4242 17.3139 47.0051 16.1007 48.1498 15.1822C49.2945 14.2637 50.8322 13.8131 52.7457 13.8131C54.3859 13.8131 55.7185 14.125 56.7778 14.7143V14.0731C56.7778 13.1199 56.3677 12.2187 55.6501 11.5948C54.9155 10.9362 53.9758 10.5723 53.002 10.5723C51.4643 10.5723 50.2513 11.2308 49.3629 12.548L46.9368 11.0055C48.2353 9.08184 50.2 8.11133 52.814 8.11133ZM49.2603 18.9083C49.2603 19.6362 49.6021 20.3121 50.1659 20.728C50.7809 21.2133 51.5327 21.4732 52.3015 21.4559C53.4633 21.4559 54.5738 20.988 55.3939 20.1561C56.2994 19.2896 56.7607 18.2671 56.7607 17.0886C55.9064 16.3954 54.7105 16.0487 53.1728 16.0661C52.0623 16.0661 51.1226 16.3434 50.3709 16.8806C49.6362 17.4179 49.2603 18.0937 49.2603 18.9083Z" fill="white"/>
<path fill-rule="evenodd" clip-rule="evenodd" d="M74.4949 8.59668L65.3031 30H62.467L65.884 22.5131L59.853 8.59668H62.8429L67.1996 19.2723H67.2508L71.505 8.59668H74.4949Z" fill="white"/>
<path fill-rule="evenodd" clip-rule="evenodd" d="M24.1112 12.7559C24.1112 11.9067 24.0428 11.0575 23.9061 10.2256H12.3054V15.0262H18.9515C18.6781 16.5686 17.7897 17.955 16.4912 18.8216V21.9411H20.455C22.7785 19.7747 24.1112 16.5686 24.1112 12.7559Z" fill="#4285F4"/>
<path fill-rule="evenodd" clip-rule="evenodd" d="M12.3055 24.9565C15.62 24.9565 18.4219 23.8474 20.455 21.941L16.4913 18.8215C15.3808 19.584 13.9627 20.0173 12.3055 20.0173C9.0935 20.0173 6.37698 17.8163 5.40314 14.8701H1.31982V18.0936C3.40419 22.3049 7.65836 24.9565 12.3055 24.9565Z" fill="#34A853"/>
<path fill-rule="evenodd" clip-rule="evenodd" d="M5.40313 14.8703C4.89058 13.3278 4.89058 11.6468 5.40313 10.087V6.88086H1.31982C-0.439939 10.399 -0.439939 14.5583 1.31982 18.0764L5.40313 14.8703Z" fill="#FBBC04"/>
<path fill-rule="evenodd" clip-rule="evenodd" d="M12.3055 4.93997C14.0652 4.90531 15.7566 5.5812 17.0209 6.81167L20.5404 3.24157C18.3023 1.12724 15.3637 -0.0339069 12.3055 0.000754244C7.65836 0.000754244 3.40419 2.66966 1.31982 6.881L5.40314 10.1045C6.37698 7.14096 9.0935 4.93997 12.3055 4.93997Z" fill="#EA4335"/>
</svg>
