<svg width="36" height="28" viewBox="0 0 36 28" fill="none" xmlns="http://www.w3.org/2000/svg">
<path opacity="0.99677" d="M0 3C0 1.34315 1.34315 0 3 0H33C34.6569 0 36 1.34315 36 3V25C36 26.6569 34.6569 28 33 28H3C1.34315 28 0 26.6569 0 25V3Z" fill="#696969"/>
<path d="M28.6898 22.1573C26.9219 23.1093 25.0179 23.4719 23.0234 23.2453C21.1194 22.9733 19.4422 22.2026 17.9916 20.9787C17.4023 21.4773 16.7223 21.976 15.997 22.3386C14.4104 23.1093 12.7785 23.4266 11.0559 23.2453C7.56537 22.9279 5.02681 21.16 3.44022 18.0775C2.66958 16.5362 2.3976 14.859 2.53359 13.1364C2.76025 10.5978 3.89353 8.46725 5.84278 6.83533C7.56537 5.38472 9.60528 4.65942 11.8718 4.70475C14.1384 4.70475 16.133 5.43006 17.8556 6.92599C17.9009 6.92599 17.9916 6.97132 18.0369 7.01665C19.9408 5.33939 22.2074 4.56876 24.7459 4.70475C28.9618 4.93141 32.6336 8.14993 33.3589 12.3204C34.0389 16.3096 32.2256 20.1627 28.6898 22.1573ZM19.1249 8.2406H19.0795C18.9435 8.01394 18.8075 7.87795 18.6715 7.69662C18.6262 7.69662 18.6262 7.69662 18.6262 7.69662H17.6289C17.3116 7.69662 17.0396 7.87795 16.9036 8.2406H18.9435C19.0342 8.2406 19.0795 8.19526 19.1249 8.2406ZM19.7142 9.32855C19.7595 9.32855 19.8048 9.32855 19.8502 9.32855C19.7595 9.14722 19.6235 8.9659 19.5328 8.8299H16.7676C16.405 8.8299 16.269 8.9659 16.1783 9.32855H16.3143C17.4476 9.32855 18.5809 9.32855 19.7142 9.32855ZM20.0768 10.4618C20.3035 10.4618 20.3941 10.4618 20.4395 10.5072C20.3941 10.3258 20.3035 10.1445 20.1675 9.91785C18.8529 9.91785 17.5383 9.96319 16.1783 9.91785C15.9063 9.91785 15.725 10.0085 15.6343 10.2805C15.589 10.4618 15.589 10.4618 15.7703 10.4618C17.1756 10.4618 18.6262 10.4618 20.0768 10.4618ZM10.2399 11.1418C9.65061 11.1418 9.01597 11.1418 8.42666 11.1418C8.29067 11.1418 8.24534 11.1871 8.20001 11.3231C7.79202 12.3204 7.33871 13.3177 6.93073 14.315C6.93073 14.3603 6.93073 14.451 6.84007 14.451C6.79474 13.4084 6.70407 12.3657 6.65874 11.3231C6.65874 11.1871 6.61341 11.1418 6.47742 11.1418C5.88811 11.1418 5.2988 11.1418 4.70949 11.1418C4.5735 11.1418 4.52817 11.1871 4.52817 11.3231C4.21085 13.1364 3.89353 14.9496 3.57621 16.7629C3.53088 16.8989 3.57621 16.9442 3.7122 16.8989C3.98419 16.8989 4.30151 16.8989 4.5735 16.8989C4.70949 16.9442 4.75483 16.8535 4.80016 16.7176C4.98148 15.5843 5.16281 14.451 5.38946 13.2724C5.4348 13.0457 5.4348 12.8644 5.52546 12.5924C5.61612 13.9977 5.70678 15.3576 5.75211 16.7176C5.79745 16.8535 5.84278 16.9442 6.0241 16.8989C6.34142 16.8989 6.65874 16.8989 6.97606 16.8989C7.11205 16.9442 7.15739 16.8535 7.20272 16.7629C7.47471 16.1282 7.74669 15.4483 8.01868 14.8136L8.92531 12.6377C8.92531 12.6377 8.92531 12.6377 8.97064 12.6377L8.78932 13.6804C8.60799 14.723 8.42666 15.7203 8.24534 16.7176C8.20001 16.8535 8.24534 16.9442 8.38133 16.8989C8.69865 16.8989 8.97064 16.8989 9.28796 16.8989C9.37862 16.8989 9.42395 16.8989 9.42395 16.7629C9.74127 14.9496 10.0586 13.1364 10.4212 11.3231C10.4212 11.1871 10.4212 11.1418 10.2399 11.1418ZM14.4557 13.1817C14.3197 12.6831 13.9571 12.4111 13.5038 12.2298C13.0505 12.0938 12.5518 12.1391 12.0532 12.1391C11.7812 12.1391 11.4639 12.1844 11.1465 12.2751C11.1012 12.3204 11.0106 12.3204 11.0106 12.4111C10.9199 12.7284 10.8292 13.0457 10.6932 13.4084C11.3279 13.227 11.9172 13.1364 12.5065 13.1817C12.8691 13.1817 13.0958 13.4084 13.0958 13.6804C13.0958 13.8164 13.0505 13.907 12.9145 13.907C12.5065 13.8617 12.1438 13.907 11.7812 13.9523C11.0106 14.043 10.3759 14.315 10.1039 15.0856C9.74127 16.0376 10.1946 17.0349 11.4639 16.9895C11.9172 16.9442 12.3252 16.7629 12.6878 16.5362C12.7331 16.4909 12.7331 16.4909 12.7331 16.4909C12.7785 16.4909 12.7331 16.5362 12.7331 16.5362C12.7331 16.5816 12.7331 16.6269 12.7331 16.6722C12.6878 16.8989 12.7331 16.9442 12.9145 16.8989C13.1411 16.8989 13.4131 16.8989 13.6398 16.8989C13.7758 16.9442 13.8211 16.8535 13.8664 16.7176L14.4104 13.8164C14.4557 13.5897 14.5011 13.4084 14.4557 13.1817ZM12.8691 14.995C12.7785 15.6296 12.5518 15.8563 11.9172 15.9469C11.7359 15.9469 11.5092 15.9469 11.4185 15.7656C11.3279 15.5843 11.3732 15.267 11.5092 15.131C11.6905 14.9043 11.9172 14.8136 12.1438 14.7683C12.3252 14.723 12.4612 14.723 12.6425 14.6776C12.9598 14.6776 12.9598 14.723 12.8691 14.995ZM15.861 17.5335C15.7703 17.5335 15.725 17.5335 15.6343 17.5335C15.6343 17.6242 15.725 17.7148 15.725 17.7602C15.7703 18.0322 15.9517 18.0775 16.1783 18.0775C17.3116 18.0322 18.4449 18.0775 19.5782 18.0775H20.1675C20.2581 17.8962 20.3488 17.6695 20.4395 17.4882C20.3488 17.5335 20.2581 17.5335 20.1221 17.5335C18.7169 17.5335 17.2663 17.5335 15.861 17.5335ZM16.677 18.7121H16.1783C16.269 18.8028 16.3143 18.8935 16.3596 18.9841C16.4503 19.1654 16.5863 19.2108 16.813 19.2108C17.5836 19.2108 18.3089 19.2108 19.0342 19.2108C19.2155 19.2108 19.3968 19.1654 19.4875 19.2561C19.4875 19.3014 19.4875 19.3014 19.4875 19.3014C19.6235 19.0748 19.7595 18.8481 19.8955 18.6215C19.8502 18.7121 19.7595 18.7121 19.6235 18.7121C18.6262 18.7121 17.6289 18.7121 16.677 18.7121ZM18.8075 19.8454C18.3089 19.8001 17.7649 19.8454 17.2663 19.8454C17.1303 19.8454 17.0396 19.8001 16.949 19.8454C17.2663 20.2987 17.3116 20.3441 17.8102 20.3441C17.9462 20.3441 18.1276 20.3441 18.3089 20.3441C18.3996 20.3441 18.4902 20.2987 18.5809 20.3894C18.7622 20.2081 18.9889 19.9814 19.1702 19.7548H19.1249C19.0795 19.8001 18.9435 19.8454 18.8075 19.8454ZM15.6797 16.7629H15.7703C15.9063 16.8082 16.0423 16.8535 16.1783 16.8989H16.269H16.3143C16.677 16.9895 17.1756 17.0349 17.6289 16.8989C17.7196 16.8989 17.7649 16.8535 17.8556 16.8082H17.9009C17.9009 16.8082 17.9462 16.8082 17.9916 16.7629C18.0822 16.7629 18.1276 16.7176 18.1729 16.6722C18.1729 16.6269 18.2182 16.5816 18.2182 16.5816C18.2182 16.5362 18.2636 16.4456 18.2636 16.4002L18.3089 15.9469L18.3542 15.8563V15.7656C18.3542 15.7656 18.3542 15.6749 18.3996 15.5843C18.3542 15.6296 18.3089 15.6296 18.3089 15.6296C18.1729 15.6749 18.0822 15.7203 17.9916 15.7656C17.9009 15.8109 17.8102 15.8109 17.7649 15.8563H17.6289C17.4929 15.9016 17.3569 15.9469 17.2209 15.9469H17.0849H16.9943H16.8583C16.7676 15.9469 16.6316 15.9016 16.541 15.9016C16.4503 15.9016 16.3596 15.8563 16.3143 15.8563C16.269 15.8109 16.269 15.8109 16.2237 15.8109C16.133 15.7656 16.0423 15.6749 15.997 15.6296C15.9517 15.5843 15.9063 15.5389 15.861 15.4483H15.8157C15.8157 15.4029 15.7703 15.3576 15.7703 15.3123C15.725 15.267 15.725 15.267 15.725 15.2216C15.725 15.1763 15.6797 15.131 15.6797 15.131C15.6797 15.0403 15.6797 14.995 15.725 14.9496C15.7703 14.9043 15.9063 14.9043 16.0423 14.9043H18.3542H18.3996C18.3996 14.9043 18.3996 14.9043 18.4449 14.9043H18.4902C18.5355 14.859 18.5355 14.859 18.5355 14.859V14.8136H18.5809L18.6715 14.2697C18.7169 13.9523 18.7169 13.635 18.6262 13.363C18.6262 13.227 18.5809 13.1364 18.5355 13.0457C18.5355 13.0004 18.4902 12.9097 18.4449 12.8644C18.3996 12.8191 18.3542 12.7284 18.3089 12.6831C18.2636 12.5924 18.2182 12.5471 18.1729 12.5017C18.1276 12.4564 18.0369 12.4564 17.9916 12.4111L17.9462 12.3657C17.8556 12.3204 17.8102 12.3204 17.7649 12.2751C17.6743 12.2298 17.5836 12.2298 17.4929 12.1844C17.4476 12.1844 17.4023 12.1391 17.3569 12.1391C17.1303 12.1391 16.949 12.1391 16.7223 12.1391H16.4503C16.4503 12.1391 16.405 12.1391 16.3596 12.1391C16.1783 12.1844 16.0423 12.2298 15.9063 12.2751C15.861 12.2751 15.8157 12.3204 15.7703 12.3204L15.589 12.4111C15.589 12.4111 15.4984 12.4564 15.453 12.4564L15.3624 12.5471C15.317 12.5924 15.2717 12.6377 15.2264 12.6831C14.9997 12.8644 14.8184 13.1364 14.6824 13.4084C14.6371 13.4537 14.6371 13.5444 14.5917 13.635L14.5464 13.7257L14.5011 13.8617C14.5011 13.9523 14.4557 14.043 14.4557 14.0883C14.4557 14.2243 14.4104 14.3603 14.4104 14.4963C14.3197 15.3576 14.5464 16.0829 15.317 16.5816L15.3624 16.6269C15.4077 16.6269 15.4077 16.6269 15.4077 16.6269H15.453V16.6722H15.4984H15.5437L15.589 16.7176H15.6343C15.6797 16.7176 15.6797 16.7629 15.6797 16.7629ZM16.9036 13.1364C17.2663 13.1817 17.4929 13.5897 17.4476 13.907C17.4023 13.9977 17.3569 13.9977 17.3116 13.9977H16.6316C16.6316 13.9977 16.2237 13.9977 15.997 13.9977C15.9063 13.9977 15.861 13.9977 15.861 13.8617C15.9517 13.363 16.405 13.0457 16.9036 13.1364ZM20.3035 11.5498C20.7115 11.5498 20.8021 11.5498 20.8474 11.7311H20.8928C20.8021 11.4591 20.7115 11.1871 20.6208 10.9151C20.6208 11.0058 20.5755 11.0511 20.4395 11.0511C18.8529 11.0058 17.2663 11.0511 15.6797 11.0511C15.3624 11.0511 15.3624 11.0511 15.2717 11.3685C15.181 11.5498 15.2264 11.5498 15.4077 11.5498H20.3035ZM22.2074 12.1391C22.0261 12.1391 21.7994 12.0938 21.5728 12.0938C21.3914 12.0938 21.1648 12.0938 20.9381 12.0938C20.7115 12.0938 20.5301 12.1391 20.3035 12.1391C19.9408 12.2298 19.5782 12.3204 19.3062 12.6377C19.1249 13.0004 18.9889 13.363 19.0342 13.7257C19.0342 13.8164 19.0342 13.8617 19.0342 13.9523C19.0795 14.043 19.0795 14.1337 19.1249 14.2697C19.1702 14.315 19.2155 14.3603 19.2609 14.4057C19.3968 14.587 19.5328 14.6776 19.7142 14.7683L20.0768 14.9043C20.0768 14.9043 20.3488 15.0403 20.4395 15.0856C20.5301 15.131 20.6208 15.1763 20.6661 15.2216C20.7115 15.267 20.7115 15.3576 20.7115 15.4483C20.7115 15.6296 20.6208 15.7656 20.5301 15.8109C20.4395 15.9016 20.3488 15.9016 20.1675 15.9016C19.7595 15.9469 19.3062 15.9016 18.8529 15.7656C18.7622 15.7656 18.7169 15.7656 18.6715 15.7656C18.6715 15.7656 18.6715 15.7656 18.6262 15.8109C18.6262 15.8109 18.6262 15.8109 18.6262 15.8563C18.5809 15.8563 18.5809 15.9016 18.5809 15.9469L18.4902 16.4002C18.4902 16.5816 18.4449 16.6722 18.4902 16.7176C18.5355 16.7176 18.5355 16.7176 18.5355 16.7176C18.5355 16.7176 18.5355 16.7176 18.5355 16.7629C18.5809 16.7629 18.5809 16.7629 18.5809 16.7629H18.6262C18.6262 16.7629 18.6262 16.7629 18.6715 16.7629C18.6715 16.8082 18.6715 16.8082 18.7169 16.8082H18.7622C18.8529 16.8535 18.9889 16.8535 19.1249 16.8989H19.3062H19.3515C19.6235 16.9442 19.9408 16.9442 19.9408 16.9442V16.8989H20.1221C20.1675 16.8989 20.2128 16.8989 20.2581 16.8989H20.3035H20.4395C20.4395 16.8989 20.4395 16.8989 20.4848 16.8989C20.5301 16.8989 20.5755 16.8989 20.6208 16.8989C20.8474 16.8535 21.1648 16.7629 21.3461 16.6722C22.0261 16.3549 22.1621 15.7656 22.1167 15.0856C22.0714 14.4963 21.6634 14.2697 21.1648 14.1337C21.1648 14.0883 21.1648 14.0883 21.1194 14.0883L20.9834 14.043H20.9381C20.8021 13.9977 20.7115 13.9523 20.6208 13.8617C20.5755 13.8617 20.5755 13.8617 20.5755 13.8617C20.4395 13.7257 20.3941 13.5444 20.4395 13.4537C20.4395 13.4084 20.4848 13.363 20.5301 13.3177L20.5755 13.2724C20.6208 13.2724 20.6661 13.227 20.6661 13.227L20.8021 13.1817L20.8928 13.1364H20.9834C21.0288 13.1364 21.0741 13.1364 21.1194 13.1364C21.1194 13.1364 21.1648 13.1364 21.2101 13.1364C21.2554 13.1364 21.3008 13.1364 21.3461 13.1364C21.5728 13.1364 21.7994 13.1364 22.0261 13.1817C22.1621 13.227 22.2074 13.1817 22.2074 13.0457C22.2527 12.8191 22.2981 12.5924 22.3434 12.3657C22.3887 12.2298 22.3434 12.1844 22.2074 12.1391ZM24.1566 13.1817C24.338 13.1817 24.5193 13.1817 24.6553 13.1817C24.7913 13.227 24.7913 13.1817 24.8366 13.091C24.8819 12.8191 24.9273 12.5924 24.9726 12.3204C24.9726 12.2298 24.9726 12.1844 24.8366 12.1844C24.7006 12.2298 24.5193 12.1844 24.338 12.1844C24.2473 12.2298 24.202 12.1844 24.2473 12.0484L24.3833 11.3231C24.4286 11.1871 24.3833 11.0965 24.202 11.1418C24.066 11.1418 23.93 11.1418 23.794 11.1418C23.658 11.1418 23.4767 11.1418 23.3407 11.1418C23.2047 11.0965 23.1593 11.1871 23.114 11.2778C23.0234 11.8671 22.9327 12.4111 22.842 13.0004C22.6607 14.043 22.4794 15.0856 22.3434 16.1282C22.2527 16.5362 22.434 16.7176 22.842 16.8535C23.25 16.9895 23.6127 16.9442 24.0206 16.8535C24.3833 16.8082 24.4286 16.7629 24.474 16.3549C24.5193 16.2642 24.5193 16.1736 24.5193 16.0376C24.5646 15.9469 24.5646 15.8563 24.3833 15.9016C24.202 15.9923 24.0206 15.9469 23.8393 15.9016C23.658 15.8563 23.6127 15.7656 23.6127 15.6296C23.7487 14.859 23.8846 14.0883 24.0206 13.3177C24.0206 13.227 24.066 13.1817 24.1566 13.1817ZM27.7831 13.3177C27.8738 12.9097 28.0098 12.5471 28.2365 12.1844C27.5565 12.0484 27.1032 12.3657 26.6952 12.8644C26.7405 12.6831 26.7405 12.5017 26.7859 12.3204C26.8312 12.2298 26.7859 12.1844 26.6952 12.1844C26.3779 12.1844 26.0152 12.1844 25.6979 12.1844C25.5619 12.1844 25.5166 12.2298 25.5166 12.3657C25.5166 12.5471 25.4712 12.7737 25.4259 13.0004C25.1993 14.2243 24.9726 15.4936 24.7459 16.7629C24.7459 16.8989 24.7913 16.9442 24.9273 16.8989C25.1086 16.8989 25.2899 16.8989 25.4712 16.8989C26.0152 16.8989 26.0152 16.8989 26.1059 16.3549C26.1965 15.6296 26.3325 14.9043 26.4685 14.179C26.6045 13.7257 26.8765 13.499 27.3298 13.4084C27.4658 13.4084 27.5565 13.4084 27.6925 13.4084C27.7378 13.4084 27.7831 13.363 27.7831 13.3177ZM31.591 12.5471C30.775 11.9578 29.3244 12.0031 28.5538 12.6377C27.8738 13.1364 27.6472 13.8617 27.6018 14.6776C27.5565 15.9016 28.2365 16.7629 29.4151 16.9442C30.3217 17.0802 31.1377 16.9442 31.8176 16.2189C32.2709 15.7203 32.4523 15.0856 32.4523 14.4057C32.4523 13.635 32.2256 13.0004 31.591 12.5471ZM30.6844 15.267C30.5484 15.4483 30.4124 15.6296 30.1404 15.6749C29.5964 15.8563 29.1884 15.5843 29.1431 14.995C29.0977 14.4963 29.1884 14.043 29.4604 13.635C29.5964 13.4084 29.8231 13.2724 30.0497 13.227C30.639 13.091 30.9563 13.4537 30.9563 14.179C30.9563 14.5417 30.8657 14.9043 30.6844 15.267Z" fill="white"/>
</svg>
