<svg width="23" height="28" viewBox="0 0 23 28" fill="none" xmlns="http://www.w3.org/2000/svg">
<path d="M11.4537 0C11.4537 0 0 3.24521 0 3.81789V15.3988C0 21.2529 8.463 26.4071 10.8174 27.807C11.2025 28.0643 11.7048 28.0643 12.09 27.807C14.508 26.4707 22.9074 21.2529 22.9074 15.3988V3.81789C22.9074 3.24521 11.4537 0 11.4537 0ZM17.435 10.4356L10.4356 17.435C10.2066 17.6846 9.88343 17.8267 9.54474 17.8267C9.20604 17.8267 8.88287 17.6846 8.65389 17.435L5.53595 14.3171C5.06317 13.8726 4.95782 13.1615 5.28142 12.599C5.50339 12.2862 5.85461 12.0902 6.23739 12.0655C6.62017 12.0408 6.99368 12.1901 7.254 12.4718L9.54473 14.7625L15.6534 8.65389C16.16 8.27389 16.869 8.32428 17.3168 8.77211C17.7647 9.21994 17.815 9.92891 17.435 10.4356Z" fill="#FF2734"/>
</svg>
