<svg width="167" height="32" viewBox="0 0 167 32" fill="none" xmlns="http://www.w3.org/2000/svg">
<path d="M46.903 25.0482L43.7273 12.0465L40.1032 25.0482H36.4792L31.8464 10.8509C31.6969 10.4399 31.5475 10.4026 31.1739 10.2905L29.7915 9.99159L30.2025 8.19824H36.8154V9.99159L34.7232 10.2531L38.3846 22.022L42.1581 8.64658H45.5954L48.7711 21.9846L52.4325 10.2531L50.3029 9.99159L50.6765 8.19824H56.8785V9.99159L55.6829 10.1784C55.1225 10.2905 55.0104 10.4026 54.861 10.8509L50.415 25.0482H46.903Z" fill="#E6E6E6"/>
<path d="M69.8806 16.5665C69.8806 12.27 68.3115 10.3645 65.1358 10.3645C61.9227 10.3645 60.0546 12.27 60.0546 16.6039C60.0546 20.9752 61.7359 23.0674 64.9863 23.0674C68.162 23.0674 69.8806 21.0499 69.8806 16.5665ZM56.9536 16.5665C56.9536 11.4107 59.5689 7.86133 65.1731 7.86133C70.7773 7.86133 72.9443 11.448 72.9443 16.3424C72.9443 21.8718 70.4411 25.4212 64.8369 25.4212C59.1579 25.4585 56.9536 21.7598 56.9536 16.5665Z" fill="#E6E6E6"/>
<path d="M74.5135 25.0476V23.2542L76.1574 23.0674C76.6057 22.9927 76.6804 22.918 76.6804 22.3949V11.2239C76.6804 10.8502 76.5683 10.6261 76.2694 10.5513L74.4014 9.9162L74.7003 8.16022H78.9968L79.3331 10.4393L79.4451 10.4766C80.5286 9.2437 82.1352 7.86133 84.3768 7.86133C85.1241 7.86133 86.1328 8.01077 86.7306 8.16022V13.1293L84.4142 13.0172L84.0032 10.7382C83.9659 10.4766 83.8911 10.4019 83.5923 10.4019C82.0978 10.4019 80.4539 11.7469 79.6693 12.4568V22.3202C79.6693 22.8432 79.7067 22.9553 80.1924 22.9927L83.2186 23.2542V25.0102H74.5134L74.5135 25.0476Z" fill="#E6E6E6"/>
<path d="M87.6646 25.0479V23.2546L89.6821 23.0678C90.1304 23.0304 90.2051 22.9183 90.2051 22.3953V3.34098C90.2051 2.96736 90.093 2.7432 89.7941 2.66847L87.814 2.03333L88.1129 0.277344H93.194V22.3953C93.194 22.9183 93.2314 22.9931 93.7171 23.0678L95.6972 23.292V25.0479L87.6646 25.0479Z" fill="#E6E6E6"/>
<path d="M108.437 12.0835C107.466 11.2616 105.673 10.3276 103.954 10.3276C100.853 10.3276 99.6574 13.0176 99.6574 16.9405C99.6574 21.4986 101.189 22.9931 103.506 22.9931C105.448 22.9931 107.018 21.7228 108.475 20.2657V12.0835H108.437ZM108.998 25.0479L108.736 22.881L108.587 22.8436C107.092 24.3007 105.374 25.4216 102.796 25.4216C99.0596 25.4216 96.5938 22.9931 96.5938 16.9405C96.5938 10.477 99.5079 7.82434 103.468 7.82434C105.448 7.82434 107.204 8.49685 108.475 9.39352V3.30362C108.475 2.96736 108.325 2.7432 108.064 2.63111L106.121 2.03333L106.42 0.277344H111.426V22.3953C111.426 22.9183 111.464 22.9931 111.949 23.0678L113.631 23.292V25.0479L108.998 25.0479Z" fill="#E6E6E6"/>
<path d="M120.468 20.8633C121.589 21.9468 123.233 22.9929 124.951 22.9929C128.09 22.9929 129.248 20.415 129.248 16.2679C129.248 11.8219 127.492 10.4022 125.474 10.4022C123.382 10.4022 121.402 11.6724 120.468 12.4197V20.8633ZM115.611 31.997V30.2037L116.956 30.0169C117.404 29.9422 117.516 29.8674 117.516 29.3444V11.2241C117.516 10.8505 117.404 10.6263 117.105 10.5516L115.237 9.91646L115.536 8.16047H119.87L120.169 10.0659L120.281 10.1033C122.074 8.75825 123.905 7.82422 126.147 7.82422C129.808 7.82422 132.311 10.178 132.311 15.969C132.311 20.9007 130.63 25.4214 125.474 25.4214C123.606 25.4214 122.037 24.9731 120.468 23.6281V29.307C120.468 29.8301 120.505 29.9422 120.991 29.9795L124.092 30.241V31.997H115.611Z" fill="#FF2734"/>
<path d="M144.304 17.5008L140.605 17.8371C137.766 18.0986 136.981 18.9205 136.981 20.6392C136.981 22.3952 137.729 23.1424 139.26 23.1424C141.203 23.1424 143.258 21.5732 144.267 20.6018V17.5008H144.304ZM144.865 25.0478L144.566 22.9182L144.454 22.8809C142.884 24.3379 141.054 25.4214 138.513 25.4214C134.403 25.4214 133.88 22.582 133.88 20.9381C133.88 17.6503 135.898 16.1184 139.858 15.7822L144.304 15.4086V13.6526C144.304 11.2615 143.856 10.0659 140.979 10.0659C138.962 10.0659 137.542 10.1406 137.504 12.6065L134.665 12.3076C134.665 8.27256 138.401 7.82422 141.016 7.82422C145.687 7.82422 147.256 9.13187 147.256 13.6526V22.3578C147.256 22.8809 147.293 22.9556 147.779 23.0303L149.46 23.2545V25.0104H144.865L144.865 25.0478Z" fill="#FF2734"/>
<path d="M151.328 31.9974V30.2041L153.682 29.9052C154.093 29.8678 154.205 29.681 154.392 29.2327L156.297 24.8614L150.394 10.8883C150.245 10.4773 150.095 10.4399 149.721 10.3278L148.376 9.99159L148.75 8.19824H155.55V9.99159L153.383 10.2531L157.754 21.2747L162.312 10.2531L160.071 9.99159L160.444 8.19825H166.945V9.99159L165.824 10.141C165.413 10.2158 165.152 10.3278 165.002 10.7015L157.044 29.9052C157.044 29.9052 156.671 30.8019 156.484 31.1755C156.297 31.6238 155.811 31.9974 155.176 31.9974H151.328Z" fill="#FF2734"/>
<path d="M22.6183 23.8522C22.3941 24.1884 22.1326 24.5247 21.8337 24.8609C21.1986 25.5708 20.4513 26.2433 19.6294 26.8037C18.5833 27.5136 17.4998 28.074 16.3789 28.485C15.4075 28.8212 14.5482 29.008 13.801 29.0454H13.5395C13.1659 29.0454 12.9043 29.008 12.7549 28.8959L12.6802 28.8586L12.6054 28.7839V28.7465C12.6054 28.7091 12.6054 28.6344 12.6428 28.5597C12.7175 28.3729 12.8296 28.2234 12.9791 28.0366C13.0164 27.9993 13.0911 27.9245 13.1285 27.8498C13.6889 27.7004 14.2493 27.5136 14.8845 27.3268C15.4449 27.4388 16.0427 27.4762 16.5657 27.4388C17.2383 27.3641 17.8734 27.1773 18.4338 26.8784C19.1063 26.5048 19.7041 26.0191 20.1898 25.4213C20.4887 25.0104 20.7502 24.5994 20.937 24.1137C21.9458 23.3291 22.8051 22.5071 23.4776 21.6852L23.8139 21.2369C23.5523 22.1335 23.1787 23.0302 22.6183 23.8522ZM18.7701 25.5334C18.9942 25.4213 19.181 25.2719 19.4052 25.1598C19.1063 25.5334 18.7327 25.8697 18.3591 26.1312C17.836 26.4674 17.2756 26.729 16.7152 26.8411C16.4537 26.8784 16.2295 26.9158 15.968 26.9531C16.902 26.5422 17.8734 26.0565 18.7701 25.5334ZM25.6072 16.1557C25.6072 15.0722 25.3457 14.0261 24.8226 13.0547C24.3743 12.1954 23.7018 11.3735 22.8798 10.6262C22.693 9.61747 22.17 8.68343 21.3854 7.82412C20.7502 7.15162 19.9656 6.55383 18.9942 6.03078C18.247 5.6198 17.4251 5.28355 16.5657 5.02202C15.8559 4.79785 15.146 4.68577 14.4735 4.61104C13.8384 4.53632 13.3153 4.57368 12.8296 4.6484C12.3439 4.76049 11.8956 4.90993 11.4846 5.1341L11.4099 5.17146C10.8495 5.09674 10.289 5.09674 9.76598 5.1341H9.61653C9.09347 5.17146 8.00999 5.32091 8.08471 5.84397C8.08471 5.84397 8.08471 6.14286 8.75722 6.36703L9.69126 5.80661C9.61653 5.80661 9.54181 5.76925 9.46709 5.76925C9.76598 5.73188 10.0649 5.69452 10.289 5.69452H10.4758C10.4011 5.73188 10.3638 5.76925 10.289 5.80661L9.99015 5.99341C9.42973 6.32967 9.24292 6.47911 8.64514 6.81536C8.27152 7.03953 7.93527 7.2637 7.56166 7.45051C6.85179 7.82412 6.14192 8.19774 5.3947 8.57135C4.79691 8.83288 4.19913 9.13177 3.41454 9.46802L3.33982 9.50538C3.15301 9.58011 2.96621 9.65483 2.81676 9.72955H2.7794C2.59259 9.80428 2.36842 9.91636 2.25634 10.1405L2.21898 10.29V10.4394C2.21898 10.4768 2.25634 10.5141 2.25634 10.5141L2.36842 10.6262L2.48051 10.7009H2.51787C2.62995 10.7383 2.7794 10.7383 2.92885 10.7383H3.60135C3.86288 10.7383 4.12441 10.7009 4.34858 10.7009C5.5815 10.6636 6.70234 10.6636 7.78583 10.7009C8.83194 10.7383 9.87806 10.8504 10.9242 10.9625L12.4934 11.1866C12.8296 10.8878 13.0911 10.6636 13.2779 10.4394C12.1945 10.2153 11.111 10.0658 10.0649 9.95372C8.98139 9.84164 7.82318 9.76692 6.66498 9.76692H6.25401C5.69359 9.76692 5.0958 9.76692 4.53538 9.80428C5.0958 9.54275 5.5815 9.28122 6.0672 9.05705C6.77707 8.68344 7.48693 8.27246 8.1968 7.82412C8.71986 7.48787 9.28028 7.11426 9.91542 6.66592L10.0275 6.5912C10.7747 6.74064 11.6714 6.89009 12.5681 7.0769L14.4735 7.52523C14.212 6.89009 13.4274 6.51648 12.9791 6.32967C12.3439 6.21758 11.6714 6.06814 10.8868 5.95605C11.0736 5.80661 11.2604 5.69452 11.4472 5.6198C12.0824 5.69452 12.6054 5.80661 13.0911 5.99342C13.4648 6.14286 13.7636 6.29231 14.0252 6.47911C14.0625 6.51648 14.1373 6.55384 14.1746 6.5912C14.623 6.96481 14.8845 7.45051 14.8845 7.93621C14.9218 8.34718 14.8098 8.79552 14.5856 9.24386C14.4735 9.50539 14.2867 9.76691 14.0999 10.0284C14.0625 10.1032 13.7263 10.5889 12.9791 11.224C12.2692 11.8965 11.4099 12.4943 10.3638 13.1294C9.99014 13.3536 9.65389 13.5404 9.28028 13.7272C8.83194 13.9514 8.38361 14.1756 8.00999 14.325C7.41221 14.5865 6.40345 15.0349 5.13317 15.4085C4.46066 15.5953 3.82552 15.7821 3.19037 15.8942C2.70468 16.0063 2.10689 16.081 1.50911 16.1183C2.18162 15.8195 2.92884 15.6327 3.71343 15.5206C5.20789 15.1843 6.47818 14.6986 7.30013 14.325C6.51554 14.325 5.73095 14.3624 4.909 14.4371C3.56399 14.5865 2.48051 14.7733 1.50911 15.1096C0.948691 15.2964 0.201464 15.5953 0.0146571 16.081C-0.0227043 16.3425 0.0146571 16.5293 0.0893798 16.7161C0.238825 17.015 0.537716 17.1645 1.02341 17.2392C1.39703 17.2765 1.808 17.2765 2.36842 17.2018C3.37718 17.0897 4.46066 16.8656 5.69359 16.4546C6.77707 16.1183 7.74846 15.7074 8.6825 15.2964C9.72862 15.3338 10.7747 15.4458 11.7835 15.6327C12.867 15.8195 13.801 16.081 14.6977 16.4172C15.7064 16.7909 16.5657 17.2018 17.2756 17.6875C17.5371 17.5007 17.7613 17.3139 17.9481 17.1645C17.9108 17.1645 17.9108 17.1271 17.8734 17.1271C16.9767 16.5293 15.9306 16.0063 14.8098 15.5953C13.8757 15.259 12.867 14.9975 11.7461 14.7733C11.2231 14.6613 10.7 14.5865 10.1396 14.5492C11.0363 14.0635 11.8209 13.5778 12.5307 13.0174C13.1659 12.5317 13.6889 12.046 14.1746 11.5603C15.4449 11.8965 16.5284 12.2328 17.4998 12.6437C18.658 13.1294 19.6667 13.6899 20.5261 14.325L20.6008 14.3624C20.7876 14.1008 20.937 13.8019 21.0491 13.5778C20.2645 13.0174 19.4052 12.5317 18.4712 12.0833C17.4251 11.5976 16.2669 11.1866 14.9966 10.8504C14.9592 10.8504 14.9218 10.813 14.8471 10.813C15.4075 10.0284 15.7438 9.28122 15.8185 8.57135C15.8559 8.34718 15.8559 8.16038 15.8185 7.93621C16.902 8.27246 17.9481 8.68344 18.9195 9.13177C19.8909 9.58011 20.7129 10.0658 21.4227 10.6262L21.4601 10.6636C21.2733 9.879 20.8623 9.28122 20.6381 9.01969C20.1898 8.75816 19.7041 8.53399 19.181 8.27246C18.2844 7.86149 17.2756 7.48787 16.1921 7.15162C15.968 7.0769 15.7064 7.00217 15.4823 6.96481H15.4449C15.1086 6.36703 14.5856 6.03078 14.1746 5.80661C13.7263 5.58244 13.2032 5.39564 12.6054 5.28355C12.867 5.24619 13.0911 5.20883 13.3527 5.20883H13.4274C13.6516 5.20883 13.9131 5.20883 14.1746 5.24619C14.2493 5.24619 14.2867 5.24619 14.3614 5.28355C14.9966 5.35827 15.6317 5.50772 16.3416 5.73189C17.1635 5.99342 17.9481 6.32967 18.6206 6.74065C19.4799 7.22634 20.1898 7.78676 20.7502 8.42191C20.937 8.64608 21.1238 8.87025 21.2733 9.09441C21.3106 9.13177 21.348 9.16913 21.348 9.24386C21.348 9.24386 21.348 9.28122 21.3854 9.28122C21.6469 9.72956 21.9084 10.3273 21.9458 11.0372C22.0205 11.7844 21.8711 12.5317 21.6469 13.1294C21.6469 13.1668 21.348 13.9887 20.8249 14.736C20.3019 15.5206 19.592 16.3052 18.7327 17.0524C18.5459 17.2392 17.9855 17.7249 17.2009 18.2479C16.4537 18.771 15.6691 19.2567 14.8471 19.705C14.212 20.0787 13.5395 20.3775 12.7175 20.7512C12.3813 20.9006 11.8956 21.0874 11.3352 21.2742C10.4385 21.6105 9.54181 21.872 8.64513 22.0962C7.33748 22.3951 6.17928 22.5819 5.05844 22.6566C4.6101 22.694 4.19913 22.694 3.78815 22.6566C3.19037 22.6192 2.55523 22.5445 2.18161 22.2083L2.10689 22.1335V22.0588C2.18161 21.8346 2.36842 21.6852 2.55523 21.5357C2.81676 21.3489 3.11565 21.1995 3.48926 21.05C4.34857 20.7138 5.31997 20.4896 6.44081 20.3775C7.48693 20.3028 8.57041 20.3402 9.57917 20.4896C10.1022 20.5644 10.6253 20.7138 11.1483 20.8632C11.522 20.7512 11.8956 20.6017 12.1571 20.4896C11.522 20.2281 10.8121 20.0039 10.0649 19.8171C9.01875 19.593 7.8979 19.5182 6.77706 19.5556C5.61886 19.593 4.53538 19.7798 3.56398 20.0787C2.7794 20.3402 1.92008 20.6764 1.39702 21.3489C1.17286 21.6478 1.06077 21.9841 1.13549 22.3577C1.21022 22.806 1.58383 23.1049 1.77064 23.217C2.25634 23.5159 2.85412 23.6653 3.26509 23.7027C3.71343 23.7774 4.19913 23.8148 4.72219 23.8148H4.98372C6.0672 23.7774 7.2254 23.628 8.60777 23.3291C9.76597 23.0676 10.9615 22.7313 12.1945 22.2456C12.5307 22.0962 12.9043 21.9841 13.2406 21.8346C13.801 22.2083 14.212 22.6192 14.4735 23.0676C14.735 23.5159 14.8471 23.9269 14.8471 24.3752C14.8471 24.7862 14.735 25.1972 14.5109 25.5708C14.4735 25.6829 14.3988 25.7576 14.3241 25.8697C14.5856 25.7949 14.8471 25.6829 15.1086 25.5708L15.2207 25.3466C15.4075 24.8609 15.4823 24.3379 15.4075 23.8522C15.3328 23.2917 15.0713 22.7313 14.6603 22.2456C14.4735 21.9841 14.212 21.7599 13.9504 21.5357C15.146 20.9753 16.2295 20.3775 17.2009 19.7424C17.6866 19.4061 18.1723 19.0699 18.6206 18.7336C19.3678 19.4435 19.9283 20.2281 20.1898 21.0874C20.3392 21.5357 20.414 21.9841 20.414 22.4698C20.7129 22.2083 20.9744 21.9841 21.1612 21.7973C21.0865 21.1248 20.8623 20.4896 20.4887 19.8545C20.1898 19.2941 19.7415 18.771 19.2184 18.2479C20.2272 17.3886 21.0491 16.492 21.6469 15.5579C21.6842 15.5206 21.7216 15.4458 21.759 15.4085C22.5062 16.1557 23.0666 16.9777 23.4402 17.7996V17.837C23.515 17.9864 23.5523 18.1732 23.627 18.3227C23.8886 17.7249 24.0007 17.2018 24.038 16.8656C23.7391 16.2678 23.3281 15.7074 22.8798 15.2217C22.693 14.9975 22.4688 14.8107 22.2447 14.5865C22.6556 13.7272 22.9172 12.9053 22.9919 12.1207C23.1787 12.3448 23.3655 12.569 23.515 12.7932C24.0754 13.6525 24.449 14.5492 24.5237 15.4085C24.5611 15.7447 24.5611 16.0436 24.5611 16.3799C24.5611 16.4172 24.5611 16.7535 24.449 17.2765C24.449 17.3513 24.4116 17.4634 24.3743 17.5381C24.2622 17.9491 24.0754 18.4721 23.8138 19.0325C23.7765 19.0699 23.7765 19.1446 23.7391 19.182C23.7018 19.2193 23.7018 19.2941 23.6644 19.3314C23.1787 20.2281 22.5062 21.1248 21.6469 21.9467C21.5348 22.0588 21.4227 22.1709 21.2733 22.283C20.9744 22.5819 20.526 22.9555 20.1151 23.2544C19.2931 23.8895 18.3965 24.4499 17.4624 24.9356C16.7525 25.3092 16.0053 25.6829 15.2207 25.9818C14.3988 26.318 13.6142 26.5795 13.0164 26.729C11.8956 27.0279 10.8121 27.252 9.76597 27.3641C8.79457 27.4388 8.04735 27.4388 7.33748 27.3268C6.88914 27.252 6.55289 27.14 6.254 26.9905C6.17928 26.9532 6.10456 26.8784 6.06719 26.8411C6.06719 26.8037 6.02983 26.8037 6.02983 26.7663V26.6916C6.17928 26.318 6.66498 26.1312 7.15067 25.9818C7.59901 25.8323 8.15943 25.7576 8.75721 25.7576H8.83194C9.39236 25.7576 9.95278 25.8323 10.5506 25.9818C11.111 26.0938 11.6714 26.2806 12.1571 26.4675C12.1945 26.4675 12.1945 26.5048 12.2318 26.5048C12.456 26.4675 12.7175 26.3927 13.0538 26.2806C13.0164 26.2806 12.979 26.2433 12.9043 26.2433C12.6802 26.1686 12.456 26.0565 12.2318 25.9818C11.5967 25.7202 11.0736 25.5708 10.5506 25.4213C9.91542 25.2719 9.28027 25.1598 8.68249 25.1598C8.04735 25.1224 7.4122 25.1972 6.81442 25.3466C6.17928 25.4961 5.73094 25.7576 5.39469 26.0565C5.17052 26.2806 5.05844 26.5795 5.05844 26.8784C5.05844 27.1773 5.20788 27.4762 5.46941 27.7004C6.14192 28.2982 7.2254 28.4476 8.08471 28.485C9.16819 28.5597 10.3264 28.4476 11.5967 28.2234C11.7461 28.1861 11.9329 28.1487 12.0824 28.1114C11.9703 28.2982 11.8582 28.485 11.8208 28.7091C11.7835 29.0454 11.9703 29.3816 12.3439 29.5685C12.6802 29.7553 13.1285 29.8673 13.7263 29.8673H14.0625C14.9966 29.83 15.968 29.6058 17.0514 29.1948C18.1349 28.8212 19.1437 28.2608 20.1151 27.6257C20.9744 27.0279 21.7963 26.318 22.4688 25.5334C23.1787 24.7115 23.7765 23.8148 24.1501 22.8808C24.5611 21.9467 24.7479 20.9006 24.7105 19.8919C24.7105 19.7424 24.7105 19.593 24.6732 19.4435C25.3457 18.36 25.6072 17.2392 25.6072 16.1557Z" fill="#FF2734"/>
</svg>
