<svg width="20" height="16" viewBox="0 0 20 16" fill="none" xmlns="http://www.w3.org/2000/svg">
<path d="M6.99997 15.0008L6.99992 13.0007M6.99984 9.00072L6.99979 7.00071M6.99971 3.00068L6.99966 1.00067M17 15.001C18.1046 15.001 19 14.1056 19 13.001L18.9999 10.001C17.8954 10.001 16.9999 9.1055 16.9999 8.00093C16.9999 6.89635 17.8953 6.00094 18.9998 6.00096L18.9998 3.00094C18.9998 1.89637 18.1043 1.00091 16.9997 1.00089L2.99964 1.00059C1.89506 1.00056 0.999641 1.89598 0.999664 3.00055L0.999729 6.00057C2.10431 6.0006 2.99976 6.89605 2.99979 8.00063C2.99981 9.1052 2.10439 10.0006 0.999815 10.0006L0.99988 13.0006C0.999905 14.1052 1.89536 15.0007 2.99994 15.0007L17 15.001Z" stroke="white" stroke-width="1.6" stroke-linecap="round" stroke-linejoin="round"/>
</svg>
