<svg width="222" height="41" viewBox="0 0 222 41" fill="none" xmlns="http://www.w3.org/2000/svg">
    <path d="M135.909 40.2958C135.675 39.8271 135.523 39.304 135.451 38.7284C135.379 38.1537 135.337 37.7175 135.325 37.4203C135.3 36.7942 135.269 36.4314 135.232 36.334C135.177 35.7749 135.115 35.0584 135.048 34.186C134.98 33.3136 134.873 32.2848 134.728 31.1011L134.443 28.9326C134.243 27.2233 134.102 25.7673 134.022 24.5641C133.941 23.3619 133.885 22.3486 133.852 21.5237L133.305 7.72064C133.292 7.39136 133.547 7.15852 134.07 7.02162C134.593 6.88571 135.201 6.80377 135.894 6.77578C136.092 6.76779 136.322 6.7588 136.586 6.7478C136.85 6.73731 137.114 6.74431 137.379 6.76629C137.645 6.78928 137.877 6.80427 138.076 6.81276C138.274 6.82175 138.44 6.82275 138.571 6.81776C138.836 6.84074 139.199 6.85123 139.662 6.84923C140.124 6.84724 140.653 6.83474 141.246 6.81126L141.438 6.65537L143.912 6.55693C144.08 6.64937 144.231 6.69234 144.362 6.68735L144.56 6.67985C144.623 6.6114 144.837 6.56993 145.2 6.55544C145.231 6.52196 145.263 6.50397 145.296 6.50197L145.395 6.49798C145.527 6.49298 145.66 6.50497 145.792 6.53195L146.143 6.61689L149.16 6.49748C149.622 6.47949 149.939 6.57442 150.113 6.78178C150.286 6.99014 150.377 7.17651 150.383 7.3409L150.886 16.2898C150.891 16.3892 150.877 16.4886 150.848 16.5891L150.734 17.4355C150.629 18.1335 150.588 18.7541 150.609 19.2982C150.631 19.8423 150.65 20.3125 150.666 20.7077L151.104 31.7896L151.04 33.9232C151.027 34.4198 151.011 34.866 150.994 35.2627C150.977 35.66 150.99 36.0057 151.035 36.302C151.094 37.786 150.952 38.7823 150.609 39.292C150.423 39.5963 150.099 39.7576 149.637 39.7761L149.584 39.6792L149.334 39.6397C149.268 39.6427 149.236 39.6597 149.238 39.6932L148.99 39.7032C148.892 39.7392 148.811 39.7761 148.746 39.8121C148.681 39.8471 148.634 39.8826 148.602 39.917C148.503 39.921 148.337 39.91 148.105 39.8871C147.873 39.8626 147.59 39.8241 147.258 39.7721L146.465 39.7537C146.3 39.7601 146.203 39.8461 146.178 40.013L141.082 40.2148L139.607 40.5211L138.23 40.724L136.952 40.9728C136.935 40.9735 136.917 40.9739 136.9 40.9739C136.463 40.9739 136.133 40.7477 135.909 40.2958ZM1.56496 39.4504C1.38559 39.0606 1.28066 38.4036 1.24868 37.4797C1.19772 36.0287 1.14225 34.6681 1.0818 33.399C1.02084 32.1299 0.954382 30.9347 0.882432 29.814C0.792993 28.1991 0.702555 26.5427 0.610618 24.8444C0.519181 23.1465 0.441235 21.3913 0.377778 19.577L0.000537174 8.69047C-0.00945597 8.39418 0.119955 8.10088 0.390769 7.81058C0.660584 7.52077 0.945389 7.36988 1.24169 7.35938L6.93378 7.21149C7.46142 7.1935 8.072 7.18051 8.76502 7.17251C9.45855 7.16552 10.2335 7.14603 11.0919 7.11605C12.3446 7.07258 13.4493 7.03461 14.4071 7.00113C15.363 6.96765 16.1704 6.92368 16.83 6.86722L18.6587 6.7543C19.6471 6.68735 20.5534 6.63138 21.3774 6.58542C22.2008 6.54095 22.9268 6.50697 23.5539 6.48548C25.6319 6.41303 27.697 6.66286 29.7471 7.23547C31.7987 7.80858 33.5605 8.86135 35.034 10.3953C36.6454 12.0911 37.5023 14.422 37.6057 17.3905C37.7801 22.4051 36.6364 26.0775 34.1741 28.4089C32.0376 30.5974 28.7258 31.7686 24.2394 31.9245L17.4606 32.1604C17.5055 32.5226 17.5365 32.9093 17.5505 33.3216C17.565 33.7338 17.5795 34.155 17.5945 34.5827L17.6304 35.622C17.6384 35.8528 17.6384 36.1012 17.6314 36.365C17.6239 36.6303 17.6264 36.9436 17.6394 37.3063C17.6774 38.3951 17.495 39.0946 17.0933 39.4054C16.6906 39.7177 15.9951 39.8901 15.0057 39.9245C14.2797 39.9495 13.6612 39.9715 13.1505 39.989C12.6384 40.007 12.2516 40.0365 11.9888 40.0789C10.8676 40.1179 9.84528 40.1699 8.92341 40.2348C8.00155 40.2993 7.21059 40.3442 6.55104 40.3672L2.69119 40.5016C2.6748 40.5022 2.65851 40.5025 2.64245 40.5025C2.07649 40.5025 1.71753 40.152 1.56496 39.4504ZM18.0082 12.2265C17.6329 12.8336 17.49 13.7145 17.5795 14.8667C17.6694 16.0199 17.6949 17.4724 17.6564 19.2237C17.6404 20.6782 17.6229 21.8185 17.6025 22.6444C17.581 23.4708 17.5885 24.1639 17.6249 24.7245C17.6604 25.2851 17.6904 25.8947 17.7134 26.5542L17.9147 26.6461L18.5588 26.6726L19.9933 26.6227C20.7523 26.5962 21.2769 26.0256 21.5687 24.9083C21.86 23.7926 22.0254 22.3586 22.0634 20.6058C22.0799 20.1431 22.0869 19.639 22.0854 19.0943C22.0829 18.5492 22.0714 17.9801 22.0509 17.3865L22.0319 16.8424C22.0134 16.3147 21.9075 15.6497 21.7156 14.8467C21.5218 14.0453 21.3374 13.4817 21.161 13.1574C20.9831 12.8007 20.7923 12.5258 20.5874 12.3355C20.383 12.1441 20.1147 12.0542 19.786 12.0657C19.5876 12.0727 19.2648 12.0512 18.8176 12.0002C18.7281 11.9902 18.6457 11.9852 18.5704 11.9852C18.2689 11.9852 18.0818 12.0654 18.0082 12.2265ZM68.0119 38.525C67.4902 37.4487 67.1944 35.5076 67.124 32.703C67.09 31.3499 67.057 29.725 67.0265 27.8268C66.9956 25.9291 66.9906 24.1054 67.014 22.3551C67.0325 21.7935 67.031 21.0595 67.0091 20.1511C66.9861 19.2437 66.9591 18.1465 66.9261 16.8594L59.9964 17.0327C59.138 17.0542 58.5883 16.1758 58.346 14.3996C58.301 13.9379 58.2456 13.3618 58.1786 12.6702C58.1122 11.9782 58.0672 11.1713 58.0437 10.2469L58.0267 9.55388C58.0227 9.38899 58.0197 9.24909 58.0162 9.13317C58.0132 9.01825 58.0267 8.90982 58.0577 8.80989L58.0282 7.6217C58.0232 7.42384 58.1182 7.25645 58.3125 7.11955C58.5074 6.98264 58.7197 6.87871 58.9486 6.80626C59.3083 6.69784 59.8025 6.63588 60.4296 6.62039L65.5276 6.49298C65.9558 6.48249 66.32 6.48199 66.6168 6.49098C66.9146 6.50097 67.1784 6.50147 67.4098 6.49598L69.1436 6.50247L86.4667 6.07027C87.1267 6.05328 87.6549 6.04029 88.0506 6.0308C88.4463 6.0208 88.7441 6.0303 88.9425 6.05778C89.008 6.05628 89.1069 6.05328 89.2398 6.05078C89.3712 6.04728 89.5036 6.06128 89.637 6.08976C89.9348 6.11574 90.1916 6.1752 90.4095 6.26813C90.6253 6.36207 90.7358 6.47549 90.7393 6.6069L90.9581 15.3679C90.9686 15.7976 90.8597 16.0554 90.6313 16.1439C90.4015 16.2323 90.1392 16.2798 89.8419 16.2873L83.061 16.4561L83.1265 19.0793C83.132 19.3107 83.138 19.533 83.1435 19.7479C83.1485 19.9627 83.1355 20.1196 83.1055 20.2196C83.1175 20.6817 83.119 21.4322 83.113 22.473C83.1055 23.5133 83.089 24.8264 83.063 26.4118L83.0505 27.8978C83.0331 28.5259 83.0101 29.2609 82.9816 30.1038C82.9536 30.9457 82.9256 31.5168 82.9007 31.8146L83.0166 36.4669C83.0445 37.5896 82.8307 38.2882 82.3755 38.563C82.1462 38.6344 81.9658 38.6884 81.8354 38.7249C81.704 38.7608 81.589 38.7968 81.4911 38.8328L80.3534 38.9102C79.7273 38.9587 79.1832 38.9972 78.722 39.0252C78.2598 39.0531 77.8971 39.0701 77.6338 39.0771L72.5378 39.303C72.2415 39.3105 71.8033 39.3294 71.2272 39.3604C70.6496 39.3914 69.9331 39.4179 69.0746 39.4394C69.0695 39.4395 69.0642 39.4396 69.059 39.4396C68.7012 39.4396 68.3517 39.1347 68.0119 38.525ZM105.434 38.4081C105.136 38.1453 104.979 37.849 104.958 37.5187L103.972 21.3593L103.754 18.5947C103.631 17.1477 103.589 15.7776 103.627 14.4855C103.664 13.1934 103.627 11.6419 103.517 9.82969L103.445 8.6435C103.382 7.6222 103.499 6.83874 103.796 6.29062C103.943 5.98433 104.231 5.81794 104.659 5.79146C105.515 5.7395 106.389 5.69503 107.279 5.65655C108.17 5.61858 109.11 5.5866 110.1 5.55812C110.234 5.5836 110.416 5.5886 110.647 5.57461C110.877 5.56062 111.109 5.54613 111.34 5.53214C111.899 5.49816 112.384 5.46818 112.797 5.4432C113.209 5.41822 113.547 5.41522 113.813 5.43121L117.866 5.18338C118.491 5.1454 119.059 5.23484 119.568 5.45169C120.078 5.66854 120.37 6.40304 120.447 7.65568L120.421 8.05391C120.425 8.11986 120.423 8.21979 120.414 8.3517C120.405 8.48461 120.409 8.66649 120.423 8.89633C120.317 9.33353 120.273 9.69928 120.292 9.99558C120.304 10.1934 120.333 10.4148 120.382 10.6601C120.429 10.905 120.494 11.1578 120.577 11.4171C120.589 11.6145 120.607 11.7794 120.632 11.9103C120.656 12.0412 120.67 12.1391 120.674 12.2041L120.742 12.4984L121.532 25.4465C121.55 25.7428 121.659 25.9092 121.86 25.9471C122.061 25.9841 122.326 25.9931 122.655 25.9726L126.411 25.7433C126.904 25.7133 127.498 25.6693 128.188 25.6109C128.879 25.5519 129.702 25.4934 130.657 25.435C131.02 25.4135 131.331 25.5019 131.591 25.7008C131.852 25.9007 131.989 26.1155 132.002 26.3454L132.609 36.2785C132.623 36.5094 132.479 36.7162 132.176 36.9001C131.872 37.084 131.541 37.2034 131.181 37.2589C130.758 37.3833 130.053 37.4757 129.065 37.5362L121.603 37.9914C119.857 38.0983 118.341 38.1827 117.056 38.2447C115.77 38.3056 114.731 38.3611 113.94 38.4096C113.182 38.4555 112.524 38.4875 111.963 38.505C111.401 38.5225 110.939 38.543 110.577 38.565L106.374 38.7718C106.351 38.7732 106.328 38.7739 106.305 38.7739C106 38.7739 105.709 38.6515 105.434 38.4081ZM87.8018 36.1711C87.7528 35.5455 87.7009 34.7956 87.6464 33.9212C87.5919 33.0483 87.536 32.1659 87.4815 31.2755C87.4595 30.3846 87.4016 29.4202 87.3101 28.382C87.2177 27.3447 87.1352 26.6621 87.0608 26.3329L87.3496 25.9791L88.9245 25.5934L91.8445 25.5209C91.9764 25.5174 92.1173 25.5064 92.2647 25.4859C92.4126 25.4655 92.5685 25.437 92.7329 25.3995C92.8313 25.3645 93.1111 25.341 93.5733 25.3291L94.761 25.2996L95.1108 25.439C95.2747 25.369 95.4216 25.3326 95.5545 25.3291C95.6544 25.3595 95.7693 25.357 95.9002 25.3201L96.0986 25.3151C96.2305 25.345 96.3549 25.367 96.4713 25.38C96.5873 25.394 96.6782 25.3995 96.7441 25.398L97.9363 25.5664L98.2841 25.6074L98.6798 25.5974C99.213 25.7822 99.5962 25.9381 99.8315 26.0635C100.006 26.4558 100.097 26.7671 100.102 26.9979C100.205 27.1278 100.302 27.4061 100.396 27.8323C100.488 28.26 100.558 28.7372 100.604 29.2639C100.642 29.4947 100.666 29.7825 100.675 30.1288C100.683 30.475 100.7 31.1436 100.725 32.1339C100.841 32.8234 100.903 33.3176 100.911 33.6144C100.921 34.0106 100.909 34.2419 100.878 34.3084L100.892 34.8525C100.859 34.887 100.847 35.0199 100.852 35.2502C100.861 35.5795 100.882 35.7774 100.917 35.8428L100.918 35.8923C100.928 36.321 100.604 36.5444 99.9445 36.5608C99.7136 36.5998 99.5162 36.6043 99.3514 36.5758L98.8557 36.5888C98.7882 36.5568 98.6888 36.5434 98.5574 36.5464C98.425 36.5499 98.1447 36.5568 97.716 36.5673L96.5783 36.5958C96.5453 36.6293 96.4883 36.6473 96.4059 36.6498C96.3234 36.6518 96.15 36.6563 95.8862 36.6633L95.4905 36.6733L91.8745 36.6648C91.5777 36.6718 91.3224 36.6783 91.1075 36.6838C90.8932 36.6883 90.7203 36.7087 90.5894 36.7452L89.7989 36.8147C89.7335 36.8486 89.5351 36.8711 89.2058 36.8791C89.1649 36.8801 89.1248 36.8806 89.0857 36.8806C88.2414 36.8807 87.8137 36.6439 87.8018 36.1711ZM41.8018 36.1047C41.5745 35.632 41.4301 35.1068 41.3666 34.5307C41.3027 33.9551 41.2672 33.5179 41.2597 33.2211C41.2442 32.5941 41.2183 32.2313 41.1828 32.1334C41.1353 31.5733 41.0843 30.8563 41.0299 29.9829C40.9744 29.11 40.883 28.0797 40.7546 26.894L40.5027 24.7205C40.3279 23.0091 40.2084 21.5506 40.145 20.3465C40.0825 19.1433 40.0401 18.129 40.0196 17.3041L39.6748 3.49454C39.6663 3.16526 39.9246 2.93642 40.4503 2.80701C40.9749 2.6786 41.5845 2.60465 42.277 2.58816C42.4754 2.58316 42.7057 2.57767 42.97 2.57067C43.2334 2.56418 43.4982 2.57467 43.763 2.60065C44.0273 2.62763 44.2597 2.64662 44.4575 2.65761C44.6559 2.6696 44.8213 2.6731 44.9537 2.6701C45.2175 2.69708 45.5808 2.71257 46.0444 2.71757C46.5061 2.72307 47.0348 2.71807 47.6284 2.70308L47.8227 2.54969L50.2975 2.48773C50.4654 2.58266 50.6148 2.62863 50.7467 2.62513L50.9446 2.62014C51.008 2.55268 51.2219 2.51421 51.5856 2.50522C51.6171 2.47224 51.6501 2.45425 51.6831 2.45375L51.7825 2.45175C51.9139 2.44825 52.0468 2.46224 52.1797 2.49073L52.529 2.58166L55.5479 2.50671C56.0096 2.49472 56.3264 2.59465 56.4968 2.80451C56.6671 3.01487 56.7541 3.20274 56.7581 3.36762L57.1308 12.3225C57.1328 12.4219 57.1183 12.5208 57.0884 12.6208L56.9614 13.4657C56.8465 14.1617 56.7961 14.7818 56.8096 15.3264C56.823 15.871 56.8355 16.3412 56.8445 16.7374L57.1218 27.8243L57.0269 29.9564C57.0059 30.4525 56.9834 30.8987 56.9614 31.295C56.938 31.6922 56.947 32.0384 56.9869 32.3342C57.0239 33.8192 56.867 34.8135 56.5168 35.3177C56.3264 35.6195 55.9996 35.7764 55.5379 35.7874L55.486 35.6899L55.2376 35.6465C55.1707 35.648 55.1392 35.665 55.1397 35.6979L54.8924 35.7044C54.7944 35.7394 54.7125 35.7749 54.6475 35.8094C54.5816 35.8438 54.5331 35.8773 54.5011 35.9123C54.4027 35.9148 54.2363 35.9018 54.0055 35.8753C53.7741 35.8473 53.4913 35.8054 53.1601 35.7479L52.3671 35.7179C52.2017 35.7224 52.1048 35.8064 52.0758 35.9727L46.9778 36.1002L45.4993 36.3845L44.1163 36.5668L42.8341 36.7967C42.8228 36.797 42.8115 36.7971 42.8003 36.7971C42.3551 36.7972 42.0226 36.5652 41.8018 36.1047ZM195.169 36.292C195.003 36.2645 194.821 36.2461 194.623 36.2366C194.424 36.2266 194.209 36.2091 193.977 36.1846L192.93 35.9722C192.764 35.9787 192.631 35.9328 192.529 35.8373L192.525 35.7379C192.496 34.881 192.409 33.7613 192.263 32.3787C192.245 31.8516 192.205 31.4074 192.143 31.0451C192.081 30.6844 192.028 30.3556 191.986 30.0598L191.816 27.9852C191.773 27.6894 191.753 27.3602 191.758 26.9964C191.762 26.6327 191.739 26.2209 191.691 25.7598L191.542 24.2788C191.487 23.6537 191.46 23.0926 191.46 22.5969C191.46 22.1018 191.437 21.6901 191.394 21.3608C191.388 21.1964 191.372 20.99 191.349 20.7427C191.323 20.4959 191.301 20.0837 191.282 19.5065C191.262 18.9294 191.233 18.08 191.196 16.9583C191.089 13.8244 191.028 11.2917 191.011 9.36051C190.995 7.42884 191.029 5.736 191.112 4.279C191.101 3.94972 191.502 3.63894 192.319 3.34614C192.646 3.30267 193.035 3.26469 193.479 3.23272C193.924 3.20124 194.344 3.17825 194.741 3.16476C196.093 3.11879 197.256 3.07183 198.228 3.02186C199.2 2.97239 199.999 2.90394 200.623 2.8165C202.569 2.71807 204.266 2.63463 205.718 2.56917C207.169 2.50372 208.405 2.45275 209.428 2.41828L211.606 2.34383C212.991 2.29686 214.196 2.28936 215.221 2.32034C216.245 2.35232 217.122 2.3883 217.851 2.42927C218.345 2.41228 218.745 3.00987 219.05 4.22154C219.121 4.35095 219.177 4.54731 219.22 4.81013C219.261 5.07295 219.341 5.48267 219.459 6.04029C219.55 6.76379 219.634 7.32191 219.714 7.71564C219.794 8.10937 219.872 8.48761 219.951 8.84736C219.986 8.91282 220.009 9.09319 220.019 9.38949C219.986 9.42447 219.975 9.55738 219.983 9.78722C219.959 10.085 219.783 10.2399 219.454 10.2514C219.385 10.2204 219.204 10.2099 218.907 10.2199C218.181 10.2449 217.4 10.3134 216.561 10.4238C215.722 10.5347 214.777 10.6416 213.724 10.7426L211.158 11.0284L208.593 11.3626C208.494 11.3661 208.368 11.5525 208.215 11.9208C208.124 12.1551 208.03 12.3155 207.934 12.4004C207.838 12.4864 207.778 12.6777 207.755 12.976L207.714 14.6619C207.695 15.0916 207.754 15.3709 207.892 15.4983C208.027 15.6257 208.278 15.6832 208.64 15.6702L213.044 15.5203C214.298 15.4783 215.769 15.5278 217.458 15.6682L217.953 15.6507C218.58 15.6297 218.971 15.98 219.128 16.7005L219.393 21.5961L219.399 21.745C219.419 22.3391 218.869 22.6879 217.749 22.7918C217.456 22.9007 217.013 22.9827 216.421 23.0351C215.828 23.0886 214.921 23.1356 213.701 23.1775C212.48 23.219 211.68 23.2455 211.301 23.259C210.922 23.2715 210.648 23.265 210.483 23.2375C209.79 23.2605 209.344 23.276 209.147 23.2825C208.949 23.2885 208.817 23.3104 208.752 23.3449C208.425 23.4229 208.204 23.5048 208.092 23.5897C207.979 23.6762 207.929 23.893 207.941 24.2393C207.953 24.5856 207.957 25.2221 207.955 26.146C207.927 26.2789 207.908 26.4528 207.899 26.6676C207.889 26.8835 207.897 27.3532 207.922 28.0792C209.901 28.0117 211.451 27.9428 212.571 27.8713C213.691 27.8009 214.565 27.7379 215.191 27.6834C216.146 27.6185 217.011 27.565 217.787 27.5215C218.561 27.4796 219.262 27.4466 219.889 27.4256C219.987 27.4221 220.122 27.533 220.296 27.7579C220.435 27.9852 220.637 28.5723 220.901 29.5212C221.164 30.4705 221.489 31.7636 221.875 33.402C221.946 33.5654 221.988 33.8112 221.999 34.1405C222.023 34.833 221.72 35.1908 221.094 35.2118C220.038 35.2477 218.868 35.3367 217.585 35.4796C217.355 35.5196 217.034 35.5475 216.622 35.5615C216.21 35.5755 215.36 35.6045 214.074 35.648C212.919 35.6869 211.64 35.7309 210.238 35.7779C208.837 35.8253 207.55 35.8768 206.38 35.9343C205.207 35.9927 204.325 36.0312 203.732 36.0512L195.913 36.3165C195.806 36.3202 195.708 36.322 195.621 36.322C195.414 36.322 195.263 36.3117 195.169 36.292ZM163.699 34.156C163.484 34.107 163.244 34.0661 162.981 34.0336C162.749 34.0016 162.517 33.9681 162.287 33.9366C162.056 33.9032 161.842 33.8877 161.644 33.8882C161.577 33.8887 161.545 33.9052 161.545 33.9381L161.247 33.9386C160.917 33.7418 160.752 33.5764 160.751 33.4445L157.211 23.0061C156.845 21.9184 156.414 20.5663 155.915 18.9494C155.415 17.334 154.834 15.5937 154.169 13.7305C153.504 11.8673 152.725 10.0286 151.829 8.2153C151.796 8.14984 151.779 8.00094 151.779 7.7701L151.628 7.12704C151.562 6.83025 151.512 6.61589 151.479 6.48398C151.445 6.35208 151.429 6.13722 151.428 5.84043C151.427 5.57661 151.368 5.25483 151.252 4.87559C151.134 4.49635 151.126 4.11661 151.224 3.73637C151.322 3.35713 151.684 3.05034 152.311 2.818L153.448 2.32034L157.457 1.41996C157.489 1.41996 157.555 1.41247 157.654 1.39498C157.753 1.37849 157.819 1.38748 157.853 1.41896C157.918 1.45244 157.959 1.41097 157.976 1.29505C157.992 1.17963 158.017 1.12117 158.05 1.12117C158.116 1.15464 158.165 1.15464 158.199 1.12067C158.231 1.08869 158.264 1.0712 158.297 1.0707C158.397 1.03872 158.471 1.02073 158.52 1.02073C158.57 1.02073 158.644 1.00425 158.743 0.970269L159.039 0.821371L160.029 0.769907L163.147 0.168819C163.873 -0.0635215 164.441 -0.0400376 164.855 0.239271C165.269 0.519079 165.582 0.889824 165.799 1.35101C166.014 1.81319 166.172 2.20892 166.272 2.53819L167.119 4.76416C167.219 4.99551 167.393 5.49866 167.642 6.27263C167.892 7.0486 168.157 7.85604 168.44 8.69747C168.722 9.53789 168.915 10.1899 169.015 10.6516L169.064 10.8495C169.065 11.0479 169.081 11.2127 169.115 11.3442C169.28 11.4766 169.421 11.6824 169.537 11.9622C169.654 12.243 169.729 12.4654 169.762 12.6308L170.061 13.6701L170.708 15.1041L171.706 18.1225L172.004 18.864L172.502 19.7039C172.502 19.6385 172.584 19.4566 172.748 19.1593C172.912 18.862 173.076 18.5482 173.241 18.2174C173.405 17.8877 173.487 17.6893 173.487 17.6228L174.076 15.2944L174.567 13.5107C174.632 13.3458 174.673 13.1724 174.69 12.9905C174.706 12.8096 174.73 12.6523 174.763 12.5203L174.91 11.7279L175.057 10.9849C175.122 10.6551 175.245 10.3493 175.426 10.068C175.607 9.78772 175.762 9.33353 175.893 8.70546C176.645 5.70052 177.2 3.45406 177.561 1.96808C177.92 0.481604 178.479 -0.162953 179.24 0.033412L181.368 0.126848L185.132 0.514082C185.296 0.513582 185.486 0.579537 185.702 0.710947C185.917 0.843356 186.09 0.891823 186.222 0.858346L187.757 1.00325C188.218 1.03522 188.681 1.29804 189.145 1.79121C189.608 2.28537 189.708 2.82949 189.446 3.42458C189.447 3.58997 189.43 3.81332 189.398 4.09363C189.365 4.37443 189.301 4.81163 189.203 5.40622C189.17 5.53813 189.121 5.67054 189.055 5.80245C188.989 5.93486 188.957 6.03429 188.957 6.10025C188.924 6.19918 188.907 6.28162 188.908 6.34758C188.908 6.41453 188.891 6.4635 188.858 6.49648C188.531 7.55375 188.138 8.89233 187.681 10.5097C187.222 12.1281 186.747 13.8294 186.257 15.6122C185.766 17.396 185.324 19.0559 184.932 20.5913C184.539 22.1272 184.212 23.3249 183.95 24.1833L181.397 33.398C181.398 33.4974 181.232 33.6623 180.903 33.8947L180.754 33.8957L180.557 33.8462C180.424 33.8467 180.301 33.8467 180.185 33.8472C180.069 33.8472 179.962 33.8972 179.864 33.9966C179.732 34.1285 179.534 34.1955 179.27 34.196C178.775 34.197 178.33 34.1315 177.933 34.0011C177.669 33.9686 177.429 33.9441 177.214 33.9286C177 33.9122 176.81 33.9052 176.645 33.9057C175.59 33.9736 174.285 34.0351 172.734 34.0875C171.184 34.141 169.649 34.1765 168.131 34.197C166.612 34.215 165.358 34.2259 164.368 34.2284C164.365 34.2285 164.363 34.2285 164.361 34.2285C164.131 34.2285 163.911 34.2045 163.699 34.156Z" fill="white"/>
</svg>
