<svg width="20" height="16" viewBox="0 0 20 16" fill="none" xmlns="http://www.w3.org/2000/svg">
    <path d="M7.00192 15.0008L7.00188 13.0007M7.00179 9.00072L7.00175 7.00071M7.00166 3.00068L7.00162 1.00067M17.002 15.001C18.1066 15.001 19.002 14.1056 19.002 13.001L19.0019 10.001C17.8973 10.001 17.0019 9.1055 17.0018 8.00093C17.0018 6.89635 17.8972 6.00094 19.0018 6.00096L19.0017 3.00094C19.0017 1.89637 18.1063 1.00091 17.0017 1.00089L3.00159 1.00059C1.89701 1.00056 1.00159 1.89598 1.00162 3.00055L1.00168 6.00057C2.10626 6.0006 3.00172 6.89605 3.00174 8.00063C3.00176 9.1052 2.10635 10.0006 1.00177 10.0006L1.00183 13.0006C1.00186 14.1052 1.89731 15.0007 3.00189 15.0007L17.002 15.001Z" stroke="#FED9C0" stroke-width="1.6" stroke-linecap="round" stroke-linejoin="round"/>
</svg>
