<svg width="44" height="44" viewBox="0 0 44 44" fill="none" xmlns="http://www.w3.org/2000/svg">
    <g opacity="0.853531">
        <path d="M29.97 31.383L26.614 28.027C25.166 28.687 23.591 29.018 22 29C20.36 29.02 18.737 28.666 17.254 27.965C16.1047 27.4043 15.0726 26.6298 14.213 25.683C13.3005 24.7049 12.5833 23.5614 12.1 22.314L12 22L12.105 21.684C12.8278 19.8403 14.0443 18.2312 15.621 17.033L13 14.412L14.413 13L31.382 29.969L29.972 31.383H29.97ZM17.036 18.449C15.7579 19.3449 14.7487 20.5727 14.117 22C15.4714 25.1249 18.5959 27.1067 22 27C23.0498 27.0086 24.0936 26.8396 25.087 26.5L23.287 24.7C22.887 24.896 22.447 24.999 22 25C20.3475 24.9896 19.0104 23.6525 19 22C19 21.553 19.103 21.112 19.3 20.71L17.036 18.449ZM29.852 25.61L28.46 24.219C29.0456 23.5569 29.5256 22.8084 29.883 22C28.5303 18.8736 25.4047 16.8911 22 17C21.753 17 21.505 17.009 21.265 17.026L19.5 15.259C20.322 15.083 21.16 14.996 22 15C23.64 14.98 25.263 15.334 26.746 16.035C27.896 16.595 28.927 17.37 29.787 18.317C30.6991 19.294 31.4162 20.4361 31.9 21.682L32 22L31.895 22.316C31.4268 23.5341 30.7342 24.6535 29.853 25.616L29.852 25.61Z" fill="#E6E6E6"/>
    </g>
</svg>
