<svg width="71" height="30" viewBox="0 0 71 30" fill="none" xmlns="http://www.w3.org/2000/svg">
<path d="M13.3659 3.86866C14.1985 2.82725 14.7635 1.42892 14.6145 0C13.3957 0.0606041 11.9083 0.804106 11.0472 1.84634C10.274 2.73886 9.58969 4.19573 9.76809 5.56475C11.1363 5.68344 12.5032 4.88087 13.3659 3.86866Z" fill="white"/>
<path d="M14.5989 5.83215C12.612 5.71379 10.9226 6.95984 9.97371 6.95984C9.02431 6.95984 7.57127 5.89179 5.9997 5.92058C3.95419 5.95062 2.05619 7.10717 1.01818 8.94663C-1.11683 12.6264 0.454754 18.0849 2.53094 21.0819C3.53918 22.5646 4.75428 24.1972 6.35536 24.1385C7.86812 24.0792 8.46105 23.159 10.2999 23.159C12.1373 23.159 12.6715 24.1385 14.2728 24.1088C15.9334 24.0792 16.9716 22.6254 17.9799 21.1412C19.1365 19.451 19.61 17.819 19.6398 17.7294C19.61 17.6997 16.4376 16.4827 16.4082 12.8335C16.3782 9.77794 18.8988 8.32455 19.0175 8.23442C17.5941 6.12917 15.37 5.89179 14.5989 5.83215Z" fill="white"/>
<path d="M31.8999 1.69727C36.2185 1.69727 39.2258 4.67414 39.2258 9.00823C39.2258 13.3578 36.1567 16.3501 31.7916 16.3501H27.0101V23.9541H23.5554V1.69727L31.8999 1.69727ZM27.0101 13.4503H30.9741C33.9819 13.4503 35.6937 11.831 35.6937 9.0237C35.6937 6.21671 33.9819 4.61255 30.9895 4.61255H27.0101V13.4503Z" fill="white"/>
<path d="M40.1284 19.342C40.1284 16.5038 42.3032 14.761 46.1595 14.545L50.6013 14.2829V13.0337C50.6013 11.229 49.3827 10.1493 47.3472 10.1493C45.4187 10.1493 44.2156 11.0746 43.9228 12.5246H40.7764C40.9614 9.59389 43.4599 7.43457 47.4703 7.43457C51.4034 7.43457 53.9173 9.51683 53.9173 12.7713V23.9537H50.7245V21.2854H50.6477C49.707 23.09 47.6554 24.2313 45.527 24.2313C42.3496 24.2313 40.1284 22.257 40.1284 19.342ZM50.6013 17.8768V16.5966L46.6064 16.8433C44.6166 16.9822 43.4909 17.8613 43.4909 19.2495C43.4909 20.6683 44.663 21.5939 46.4522 21.5939C48.7811 21.5939 50.6013 19.9897 50.6013 17.8768Z" fill="white"/>
<path d="M56.9318 29.9238V27.2245C57.1781 27.2861 57.7333 27.2861 58.0111 27.2861C59.5534 27.2861 60.3864 26.6384 60.8952 24.9727C60.8952 24.9417 61.1885 23.9855 61.1885 23.9701L55.3276 7.72852H58.9364L63.0396 20.9316H63.1009L67.2042 7.72852H70.7207L64.6432 24.8028C63.2556 28.7362 61.6515 30.0009 58.289 30.0009C58.0112 30.0009 57.1781 29.9699 56.9318 29.9238Z" fill="white"/>
</svg>
