<svg width="22" height="22" viewBox="0 0 22 22" fill="none" xmlns="http://www.w3.org/2000/svg">
<path d="M11 1C5.47715 1 1 5.47715 1 11C1 16.5228 5.47715 21 11 21C16.5228 21 21 16.5228 21 11C21 5.47715 16.5228 1 11 1Z" stroke="#E6E6E6" stroke-width="2"/>
<path d="M7.81836 7.94855C7.81836 7.94855 7.86609 6.95423 8.93029 6.09798C9.56154 5.58946 10.3184 5.4423 11.0002 5.43207C11.6212 5.42412 12.1757 5.52696 12.5076 5.68491C13.0757 5.95537 14.182 6.61559 14.182 8.01957C14.182 9.49684 13.2161 10.1679 12.1155 10.9059C11.015 11.644 10.7161 12.4451 10.7161 13.273" stroke="#E6E6E6" stroke-width="2" stroke-linecap="round"/>
<circle cx="10.6593" cy="16.2272" r="1.13636" fill="#E6E6E6"/>
</svg>
