<svg width="20" height="20" viewBox="0 0 20 20" fill="none" xmlns="http://www.w3.org/2000/svg">
<circle cx="10" cy="10" r="10" fill="#FF0000"/>
<path d="M12.8281 14.2454L10 11.4163L7.17188 14.2454C6.78125 14.635 6.14844 14.635 5.75977 14.2454C5.36914 13.8508 5.36914 13.218 5.75977 12.8284L8.58594 10.0012L5.75977 7.17505C5.36914 6.78052 5.36914 6.14771 5.75977 5.75806C6.14844 5.36841 6.78125 5.36841 7.17578 5.75806L10.002 8.58521L12.8281 5.75806C13.2188 5.36841 13.8555 5.36841 14.2461 5.75806C14.6309 6.14771 14.6309 6.78052 14.2461 7.17017L11.416 9.99927L14.2461 12.8284C14.6348 13.218 14.6348 13.8557 14.2461 14.2454C14.0508 14.4397 13.793 14.5374 13.5371 14.5374C13.2812 14.5374 13.0234 14.4397 12.8281 14.2454Z" fill="white"/>
</svg>
