<svg width="36" height="28" viewBox="0 0 36 28" fill="none" xmlns="http://www.w3.org/2000/svg">
<path opacity="0.99677" d="M0 3C0 1.34315 1.34315 0 3 0H33C34.6569 0 36 1.34315 36 3V25C36 26.6569 34.6569 28 33 28H3C1.34315 28 0 26.6569 0 25V3Z" fill="#696969"/>
<path d="M29.8812 12.4559C29.8812 12.4559 30.3562 14.7809 30.4625 15.2684H28.375C28.5813 14.7121 29.375 12.5496 29.375 12.5496C29.3625 12.5684 29.5813 11.9809 29.7063 11.6184L29.8812 12.4559ZM10.0312 18.6996L13.9812 8.99961H11.325L8.86875 15.6246L8.6 14.2809L7.725 9.81836C7.58125 9.19961 7.1375 9.02461 6.5875 8.99961H2.54375L2.5 9.19336C3.4875 9.44336 4.36875 9.80586 5.1375 10.2621L7.375 18.6996H10.0312ZM15.9312 18.7121L17.5063 8.99961H14.9937L13.425 18.7121H15.9312ZM24.675 15.5371C24.6875 14.4309 24.0125 13.5871 22.5688 12.8934C21.6875 12.4496 21.15 12.1496 21.15 11.6934C21.1625 11.2809 21.6062 10.8559 22.5937 10.8559C23.4125 10.8371 24.0125 11.0309 24.4625 11.2246L24.6875 11.3309L25.0313 9.23086C24.5375 9.03711 23.75 8.81836 22.7813 8.81836C20.3 8.81836 18.5563 10.1434 18.5437 12.0309C18.525 13.4246 19.7937 14.1996 20.7437 14.6684C21.7125 15.1434 22.0437 15.4559 22.0437 15.8746C22.0312 16.5246 21.2562 16.8246 20.5375 16.8246C19.5375 16.8246 19 16.6684 18.1812 16.3059L17.85 16.1496L17.5 18.3309C18.0875 18.5996 19.175 18.8371 20.3 18.8496C22.9375 18.8559 24.6562 17.5496 24.675 15.5371ZM33.5 18.7121L31.475 8.99961H29.5313C28.9313 8.99961 28.475 9.17461 28.2187 9.80586L24.4875 18.7121H27.125C27.125 18.7121 27.5562 17.5121 27.65 17.2559H30.875C30.95 17.5996 31.175 18.7121 31.175 18.7121H33.5Z" fill="white"/>
</svg>
