<svg width="270" height="70" viewBox="0 0 270 70" fill="none" xmlns="http://www.w3.org/2000/svg">
    <g opacity="0.804411">
        <path d="M110.805 51.6795C110.614 51.2974 110.49 50.8709 110.431 50.4016C110.372 49.9331 110.338 49.5775 110.328 49.3351C110.308 48.8247 110.282 48.5289 110.253 48.4495C110.208 47.9937 110.157 47.4095 110.102 46.6982C110.047 45.987 109.96 45.1482 109.841 44.1832L109.609 42.4152C109.447 41.0217 109.332 39.8346 109.266 38.8537C109.2 37.8736 109.154 37.0474 109.127 36.3749L108.682 25.1215C108.671 24.853 108.879 24.6632 109.305 24.5516C109.731 24.4408 110.227 24.374 110.792 24.3512C110.953 24.3446 111.142 24.3373 111.357 24.3283C111.571 24.3198 111.787 24.3255 112.003 24.3434C112.22 24.3622 112.409 24.3744 112.571 24.3813C112.732 24.3886 112.868 24.3895 112.975 24.3854C113.191 24.4041 113.487 24.4127 113.864 24.411C114.241 24.4094 114.672 24.3992 115.156 24.3801L115.312 24.253L117.329 24.1727C117.466 24.2481 117.589 24.2831 117.696 24.2791L117.858 24.2729C117.909 24.2171 118.083 24.1833 118.379 24.1715C118.404 24.1442 118.431 24.1296 118.458 24.1279L118.538 24.1247C118.646 24.1206 118.754 24.1304 118.862 24.1524L119.148 24.2216L121.608 24.1243C121.985 24.1096 122.243 24.187 122.385 24.356C122.526 24.5259 122.6 24.6779 122.605 24.8119L123.015 32.1078C123.019 32.1888 123.008 32.2699 122.984 32.3518L122.891 33.0418C122.806 33.6109 122.772 34.1169 122.789 34.5605C122.807 35.0041 122.822 35.3874 122.835 35.7096L123.193 44.7445L123.141 46.484C123.13 46.8889 123.117 47.2527 123.103 47.5761C123.089 47.9 123.1 48.1819 123.137 48.4234C123.184 49.6333 123.069 50.4456 122.789 50.8611C122.637 51.1092 122.373 51.2408 121.997 51.2558L121.953 51.1768L121.75 51.1446C121.696 51.1471 121.67 51.1609 121.671 51.1882L121.469 51.1964C121.39 51.2257 121.323 51.2558 121.271 51.2852C121.218 51.3137 121.179 51.3426 121.153 51.3707C121.072 51.374 120.937 51.365 120.748 51.3463C120.559 51.3263 120.328 51.2949 120.058 51.2526L119.411 51.2375C119.276 51.2428 119.197 51.3129 119.176 51.4489L115.022 51.6135L113.82 51.8632L112.697 52.0286L111.655 52.2315C111.641 52.2323 111.626 52.2327 111.612 52.2327C111.256 52.2327 110.987 52.0481 110.805 51.6795ZM1.27589 50.9902C1.12965 50.6725 1.0441 50.1368 1.01803 49.3836C0.976479 48.2006 0.931261 47.0914 0.881971 46.0567C0.832272 45.022 0.778093 44.0475 0.719433 43.1338C0.646515 41.8172 0.572782 40.4668 0.497828 39.0822C0.42328 37.698 0.359732 36.2669 0.307997 34.7878L0.000437949 25.9122C-0.0077093 25.6706 0.0977976 25.4315 0.318588 25.1948C0.538564 24.9585 0.770761 24.8355 1.01233 24.827L5.653 24.7064C6.08318 24.6917 6.58097 24.6811 7.14598 24.6746C7.7114 24.6689 8.34322 24.653 9.04307 24.6286C10.0643 24.5931 10.965 24.5622 11.7459 24.5349C12.5252 24.5076 13.1835 24.4717 13.7212 24.4257L15.2122 24.3336C16.0179 24.2791 16.7569 24.2334 17.4286 24.196C18.1 24.1597 18.6919 24.132 19.2031 24.1145C20.8973 24.0554 22.581 24.2591 24.2524 24.7259C25.925 25.1932 27.3614 26.0515 28.5627 27.3021C29.8764 28.6847 30.575 30.585 30.6594 33.0052C30.8015 37.0935 29.8691 40.0876 27.8616 41.9883C26.1197 43.7726 23.4197 44.7274 19.762 44.8545L14.2353 45.0468C14.272 45.3421 14.2972 45.6575 14.3086 45.9935C14.3205 46.3296 14.3323 46.673 14.3445 47.0217L14.3738 47.869C14.3803 48.0572 14.3803 48.2597 14.3746 48.4748C14.3685 48.6911 14.3706 48.9465 14.3812 49.2422C14.4121 50.1299 14.2634 50.7002 13.9359 50.9536C13.6076 51.2082 13.0405 51.3487 12.2339 51.3768C11.642 51.3972 11.1377 51.4151 10.7214 51.4294C10.3039 51.444 9.98856 51.4681 9.77429 51.5027C8.86017 51.5345 8.0267 51.5768 7.27512 51.6298C6.52353 51.6823 5.87868 51.719 5.34096 51.7377L2.19409 51.8473C2.18064 51.8481 2.16761 51.8481 2.15416 51.8481C1.69303 51.8481 1.40014 51.5626 1.27589 50.9902ZM14.6818 28.7951C14.3759 29.29 14.2593 30.0082 14.3323 30.9476C14.4056 31.8878 14.4264 33.072 14.395 34.4998C14.382 35.6856 14.3677 36.6152 14.351 37.2886C14.3335 37.9624 14.3396 38.5274 14.3693 38.9844C14.3983 39.4415 14.4227 39.9385 14.4414 40.4762L14.6056 40.5512L15.1307 40.5727L16.3002 40.532C16.919 40.5104 17.3468 40.0452 17.5847 39.1343C17.8221 38.2247 17.957 37.0556 17.9879 35.6265C18.0014 35.2493 18.0071 34.8383 18.0059 34.3943C18.0038 33.9498 17.9945 33.4859 17.9778 33.0019L17.9623 32.5583C17.9472 32.1281 17.8608 31.5859 17.7044 30.9313C17.5464 30.2779 17.396 29.8184 17.2522 29.554C17.1072 29.2631 16.9516 29.0391 16.7846 28.8839C16.618 28.7279 16.3992 28.6545 16.1312 28.6639C15.9695 28.6696 15.7063 28.6521 15.3417 28.6105C15.2688 28.6024 15.2016 28.5983 15.1401 28.5983C14.8944 28.5983 14.7417 28.6639 14.6818 28.7951ZM55.449 50.2358C55.0237 49.3583 54.7826 47.7757 54.7251 45.4892C54.6974 44.3861 54.6705 43.0613 54.6457 41.5138C54.6204 39.9666 54.6163 38.4797 54.6355 37.0527C54.6506 36.5948 54.6493 35.9964 54.6314 35.2558C54.6127 34.5161 54.5907 33.6215 54.5638 32.5721L48.9141 32.7135C48.2142 32.731 47.7661 32.0149 47.5686 30.5667C47.5319 30.1903 47.4867 29.7206 47.4321 29.1568C47.3779 28.5926 47.3413 27.9347 47.3221 27.1811L47.3083 26.6161C47.305 26.4817 47.3026 26.3676 47.2997 26.2731C47.2973 26.1794 47.3083 26.091 47.3335 26.0095L47.3095 25.0408C47.3054 24.8795 47.3828 24.743 47.5413 24.6314C47.7001 24.5198 47.8733 24.4351 48.0598 24.376C48.3531 24.2876 48.756 24.2371 49.2673 24.2245L53.4236 24.1206C53.7727 24.112 54.0697 24.1116 54.3116 24.119C54.5544 24.1271 54.7695 24.1275 54.9581 24.123L56.3717 24.1283L70.4949 23.776C71.0331 23.7621 71.4636 23.7515 71.7863 23.7438C72.1089 23.7356 72.3517 23.7434 72.5134 23.7658C72.5668 23.7646 72.6474 23.7621 72.7558 23.7601C72.8629 23.7572 72.9709 23.7686 73.0797 23.7919C73.3224 23.813 73.5318 23.8615 73.7094 23.9373C73.8854 24.0139 73.9754 24.1063 73.9783 24.2135L74.1567 31.3562C74.1653 31.7065 74.0765 31.9167 73.8903 31.9888C73.7029 32.0609 73.4891 32.0996 73.2467 32.1057L67.7184 32.2434L67.7717 34.3821C67.7762 34.5707 67.7811 34.7519 67.7856 34.9271C67.7896 35.1023 67.7791 35.2302 67.7546 35.3117C67.7644 35.6885 67.7656 36.3003 67.7607 37.1489C67.7546 37.997 67.7412 39.0675 67.72 40.3601L67.7098 41.5716C67.6955 42.0836 67.6768 42.6829 67.6536 43.3701C67.6308 44.0565 67.608 44.5221 67.5876 44.7649L67.6821 48.5579C67.7049 49.4732 67.5306 50.0427 67.1595 50.2668C66.9725 50.325 66.8254 50.369 66.7191 50.3987C66.612 50.4281 66.5183 50.4574 66.4384 50.4867L65.5109 50.5499C65.0004 50.5894 64.5568 50.6208 64.1808 50.6436C63.804 50.6664 63.5083 50.6802 63.2936 50.6859L59.1389 50.8701C58.8973 50.8762 58.5401 50.8917 58.0704 50.9169C57.5995 50.9422 57.0153 50.9637 56.3155 50.9813C56.3114 50.9817 56.3069 50.9817 56.3028 50.9817C56.0112 50.9817 55.726 50.7332 55.449 50.2358ZM85.9588 50.1405C85.716 49.9262 85.5873 49.6846 85.5706 49.4154L84.7665 36.2408L84.5889 33.9869C84.4891 32.8072 84.4548 31.6902 84.4854 30.6368C84.5155 29.5833 84.4858 28.3185 84.3954 26.841L84.3367 25.8739C84.2858 25.0412 84.3811 24.4025 84.6235 23.9556C84.7433 23.7059 84.9775 23.5702 85.3266 23.5487C86.0248 23.5063 86.7373 23.47 87.4628 23.4387C88.1895 23.4077 88.9558 23.3816 89.7632 23.3584C89.8724 23.3792 90.0206 23.3833 90.2088 23.3719C90.3962 23.3605 90.5852 23.3486 90.7734 23.3372C91.2297 23.3095 91.6252 23.2851 91.9617 23.2647C92.2974 23.2444 92.5732 23.2419 92.7899 23.2549L96.094 23.0529C96.6036 23.0219 97.0668 23.0948 97.4823 23.2716C97.8974 23.4484 98.1357 24.0473 98.1984 25.0685L98.1773 25.3932C98.1809 25.447 98.1789 25.5284 98.172 25.636C98.1646 25.7443 98.1675 25.8926 98.1789 26.08C98.0925 26.4364 98.0571 26.7346 98.0722 26.9762C98.0819 27.1375 98.106 27.318 98.1455 27.518C98.1838 27.7176 98.2371 27.9237 98.3044 28.1352C98.3141 28.2961 98.3288 28.4305 98.3492 28.5372C98.3687 28.6439 98.3805 28.7238 98.3838 28.7767L98.4392 29.0167L99.0832 39.5731C99.0979 39.8146 99.1867 39.9503 99.3505 39.9813C99.5146 40.0114 99.7305 40.0187 99.999 40.002L103.061 39.815C103.463 39.7906 103.947 39.7548 104.51 39.7071C105.073 39.659 105.744 39.6114 106.523 39.5637C106.818 39.5462 107.072 39.6183 107.284 39.7804C107.496 39.9434 107.609 40.1185 107.62 40.3059L108.114 48.4043C108.125 48.5925 108.008 48.7611 107.761 48.9111C107.513 49.061 107.243 49.1583 106.95 49.2035C106.605 49.305 106.03 49.3803 105.225 49.4296L99.1411 49.8007C97.7177 49.8879 96.4818 49.9567 95.4337 50.0073C94.3855 50.057 93.5386 50.1022 92.8938 50.1417C92.2758 50.1792 91.7389 50.2052 91.2814 50.2195C90.8231 50.2338 90.4471 50.2505 90.1518 50.2684L86.7251 50.437C86.7063 50.4383 86.6872 50.4391 86.6685 50.4391C86.4204 50.4391 86.1829 50.3393 85.9588 50.1405ZM71.5834 48.3167C71.5435 47.8067 71.5011 47.1952 71.4567 46.4824C71.4123 45.7707 71.3667 45.0513 71.3223 44.3254C71.3044 43.599 71.2571 42.8128 71.1826 41.9663C71.1072 41.1206 71.04 40.5642 70.9793 40.2957L71.2147 40.0073L72.4988 39.6928L74.8794 39.6338C74.9869 39.6309 75.1018 39.622 75.222 39.6053C75.3426 39.5886 75.4697 39.5653 75.6037 39.5348C75.6839 39.5063 75.912 39.4871 76.2888 39.4773L77.2572 39.4533L77.5423 39.567C77.6759 39.5099 77.7957 39.4802 77.904 39.4773C77.9855 39.5022 78.0792 39.5002 78.1859 39.47L78.3477 39.4659C78.4552 39.4904 78.5566 39.5083 78.6516 39.5189C78.7461 39.5303 78.8202 39.5348 78.874 39.5336L79.8459 39.6708L80.1295 39.7042L80.4521 39.6961C80.8868 39.8468 81.1992 39.9739 81.3911 40.0762C81.5332 40.3959 81.6074 40.6497 81.6119 40.8379C81.6954 40.9439 81.7748 41.1707 81.851 41.5182C81.9259 41.8669 81.9834 42.256 82.0204 42.6853C82.0522 42.8735 82.0718 43.1082 82.0791 43.3905C82.0856 43.6728 82.0995 44.2178 82.1198 45.0252C82.2143 45.5874 82.2649 45.9903 82.271 46.2322C82.2791 46.5553 82.2693 46.7439 82.2445 46.7981L82.2555 47.2417C82.229 47.2698 82.2188 47.3781 82.2233 47.5659C82.2302 47.8344 82.2473 47.9957 82.2759 48.0491L82.2767 48.0894C82.2852 48.4389 82.0209 48.621 81.4831 48.6344C81.2949 48.6662 81.134 48.6699 80.9996 48.6467L80.5955 48.6573C80.5405 48.6312 80.4594 48.6202 80.3523 48.6226C80.2443 48.6255 80.0158 48.6312 79.6663 48.6397L78.7387 48.663C78.7118 48.6903 78.6654 48.7049 78.5982 48.707C78.531 48.7086 78.3896 48.7123 78.1745 48.718L77.8519 48.7261L74.9038 48.7192C74.6618 48.7249 74.4537 48.7302 74.2785 48.7347C74.1038 48.7383 73.9628 48.755 73.8561 48.7848L73.2116 48.8414C73.1583 48.8691 72.9965 48.8874 72.7281 48.8939C72.6947 48.8947 72.6621 48.8952 72.6303 48.8952C71.9419 48.8952 71.5932 48.7025 71.5834 48.3167ZM34.0804 48.2625C33.895 47.8772 33.7773 47.449 33.7256 46.9793C33.6734 46.5101 33.6445 46.1536 33.6384 45.9116C33.6258 45.4004 33.6046 45.1047 33.5757 45.0248C33.537 44.5682 33.4954 43.9836 33.451 43.2715C33.4058 42.5599 33.3312 41.7199 33.2266 40.7532L33.0212 38.9812C32.8787 37.586 32.7813 36.3969 32.7296 35.4151C32.6787 34.4342 32.644 33.6073 32.6273 32.9347L32.3462 21.676C32.3393 21.4076 32.5499 21.221 32.9785 21.1155C33.4062 21.0108 33.9032 20.9505 34.4678 20.9371C34.6295 20.933 34.8173 20.9285 35.0328 20.9228C35.2475 20.9175 35.4634 20.9261 35.6793 20.9472C35.8948 20.9692 36.0842 20.9847 36.2455 20.9937C36.4072 21.0035 36.5421 21.0063 36.65 21.0039C36.8651 21.0259 37.1613 21.0385 37.5393 21.0426C37.9157 21.047 38.3467 21.043 38.8306 21.0307L38.9891 20.9057L41.0068 20.8552C41.1437 20.9326 41.2655 20.9701 41.373 20.9672L41.5343 20.9631C41.586 20.9081 41.7604 20.8768 42.057 20.8694C42.0826 20.8425 42.1095 20.8279 42.1364 20.8275L42.2175 20.8258C42.3246 20.823 42.433 20.8344 42.5413 20.8576L42.8261 20.9318L45.2873 20.8707C45.6637 20.8609 45.922 20.9424 46.0609 21.1134C46.1998 21.2849 46.2707 21.4381 46.274 21.5725L46.5779 28.8733C46.5795 28.9544 46.5677 29.035 46.5432 29.1165L46.4398 29.8053C46.3461 30.3728 46.3049 30.8783 46.3159 31.3224C46.3269 31.7664 46.3371 32.1497 46.3444 32.4727L46.5705 41.5117L46.4931 43.2499C46.476 43.6544 46.4577 44.0182 46.4398 44.3413C46.4206 44.6651 46.428 44.9474 46.4605 45.1886C46.4907 46.3993 46.3628 47.2099 46.0772 47.6209C45.922 47.867 45.6556 47.9949 45.2792 48.0038L45.2368 47.9244L45.0344 47.889C44.9798 47.8902 44.9541 47.904 44.9545 47.9309L44.7529 47.9362C44.673 47.9647 44.6062 47.9937 44.5533 48.0218C44.4995 48.0499 44.46 48.0772 44.4339 48.1057C44.3537 48.1077 44.218 48.0971 44.0298 48.0755C43.8412 48.0527 43.6106 48.0185 43.3406 47.9717L42.6941 47.9472C42.5592 47.9509 42.4802 48.0193 42.4566 48.155L38.3003 48.2589L37.0949 48.4907L35.9673 48.6393L34.922 48.8267C34.9126 48.8271 34.9037 48.8271 34.8943 48.8271C34.5313 48.8271 34.2604 48.6381 34.0804 48.2625ZM159.118 48.4153C158.983 48.3929 158.835 48.3778 158.673 48.3701C158.51 48.3619 158.335 48.3477 158.147 48.3277L157.292 48.1546C157.158 48.1599 157.049 48.1224 156.966 48.0446L156.963 47.9635C156.939 47.2649 156.868 46.352 156.749 45.2248C156.734 44.7951 156.702 44.4329 156.651 44.1376C156.6 43.8435 156.558 43.5754 156.523 43.3343L156.384 41.6429C156.349 41.4017 156.333 41.1333 156.337 40.8367C156.34 40.5402 156.322 40.2045 156.283 39.8285L156.161 38.6211C156.116 38.1115 156.094 37.654 156.094 37.2499C156.094 36.8462 156.076 36.5105 156.04 36.2421C156.036 36.1081 156.023 35.9398 156.004 35.7382C155.983 35.5369 155.965 35.2009 155.949 34.7304C155.933 34.2598 155.909 33.5673 155.879 32.6528C155.792 30.0978 155.742 28.0329 155.729 26.4584C155.716 24.8836 155.743 23.5034 155.811 22.3156C155.802 22.0471 156.129 21.7937 156.795 21.555C157.062 21.5196 157.378 21.4886 157.741 21.4626C158.103 21.4369 158.446 21.4181 158.769 21.4072C159.872 21.3697 160.819 21.3314 161.613 21.2906C162.404 21.2503 163.056 21.1945 163.565 21.1232C165.151 21.043 166.535 20.9749 167.719 20.9216C168.901 20.8682 169.909 20.8267 170.744 20.7985L172.519 20.7379C173.648 20.6996 174.63 20.6935 175.466 20.7187C176.301 20.7448 177.016 20.7741 177.61 20.8075C178.013 20.7937 178.339 21.2809 178.588 22.2687C178.646 22.3742 178.691 22.5343 178.726 22.7486C178.76 22.9629 178.825 23.2969 178.922 23.7515C178.996 24.3414 179.064 24.7964 179.13 25.1174C179.194 25.4384 179.258 25.7468 179.322 26.0401C179.351 26.0934 179.369 26.2405 179.378 26.4821C179.351 26.5106 179.342 26.6189 179.348 26.8063C179.329 27.0491 179.185 27.1754 178.917 27.1848C178.862 27.1595 178.714 27.151 178.472 27.1591C177.88 27.1795 177.243 27.2353 176.559 27.3253C175.875 27.4157 175.104 27.5029 174.246 27.5852L172.153 27.8182L170.062 28.0907C169.982 28.0936 169.879 28.2455 169.754 28.5458C169.68 28.7368 169.604 28.8676 169.526 28.9368C169.447 29.0069 169.398 29.1629 169.38 29.4061L169.346 30.7806C169.33 31.1309 169.379 31.3586 169.491 31.4625C169.601 31.5664 169.805 31.6132 170.101 31.6026L173.692 31.4804C174.714 31.4462 175.913 31.4865 177.29 31.601L177.694 31.5867C178.204 31.5696 178.524 31.8552 178.651 32.4426L178.868 36.4339L178.873 36.5553C178.889 37.0397 178.441 37.324 177.527 37.4088C177.289 37.4976 176.927 37.5644 176.445 37.6071C175.961 37.6507 175.221 37.689 174.227 37.7232C173.232 37.7571 172.579 37.7786 172.27 37.7896C171.961 37.7998 171.738 37.7945 171.604 37.7721C171.038 37.7909 170.675 37.8035 170.514 37.8088C170.353 37.8137 170.245 37.8316 170.192 37.8597C169.926 37.9233 169.746 37.9901 169.654 38.0593C169.562 38.1298 169.522 38.3066 169.531 38.5889C169.541 38.8712 169.544 39.3902 169.543 40.1434C169.52 40.2517 169.504 40.3935 169.497 40.5687C169.489 40.7446 169.495 41.1276 169.515 41.7195C171.129 41.6645 172.393 41.6083 173.306 41.55C174.219 41.4926 174.932 41.4412 175.442 41.3968C176.221 41.3439 176.926 41.3003 177.558 41.2648C178.189 41.2306 178.76 41.2038 179.272 41.1866C179.352 41.1838 179.462 41.2742 179.604 41.4575C179.717 41.6429 179.882 42.1215 180.097 42.8951C180.311 43.6691 180.576 44.7234 180.891 46.0591C180.949 46.1923 180.983 46.3927 180.992 46.6612C181.012 47.2258 180.765 47.5175 180.254 47.5346C179.393 47.5639 178.44 47.6364 177.393 47.7529C177.206 47.7855 176.944 47.8083 176.609 47.8197C176.272 47.8311 175.58 47.8548 174.531 47.8902C173.589 47.922 172.547 47.9578 171.404 47.9961C170.261 48.0348 169.212 48.0768 168.259 48.1236C167.302 48.1713 166.583 48.2026 166.099 48.2189L159.725 48.4352C159.637 48.4385 159.558 48.4397 159.487 48.4397C159.317 48.4397 159.194 48.4316 159.118 48.4153ZM134.001 46.7329C133.814 46.7329 133.634 46.7133 133.461 46.6738C133.286 46.6339 133.091 46.6005 132.876 46.574C132.687 46.5479 132.498 46.5206 132.31 46.495C132.122 46.4677 131.947 46.4551 131.786 46.4555C131.731 46.4559 131.705 46.4693 131.705 46.4962L131.462 46.4966C131.193 46.3361 131.058 46.2013 131.058 46.0937L128.172 37.5835C127.874 36.6967 127.522 35.5944 127.115 34.2761C126.708 32.9591 126.234 31.5403 125.692 30.0212C125.149 28.5022 124.514 27.0031 123.784 25.5248C123.757 25.4714 123.743 25.35 123.743 25.1618L123.62 24.6375C123.566 24.3956 123.525 24.2208 123.498 24.1133C123.47 24.0057 123.457 23.8305 123.457 23.5886C123.456 23.3735 123.408 23.1111 123.313 22.802C123.217 22.4928 123.211 22.1832 123.29 21.8732C123.371 21.564 123.666 21.3139 124.177 21.1244L125.104 20.7187L128.372 19.9846C128.398 19.9846 128.452 19.9785 128.533 19.9643C128.614 19.9508 128.667 19.9582 128.695 19.9838C128.748 20.0111 128.782 19.9773 128.795 19.8828C128.808 19.7887 128.828 19.741 128.856 19.741C128.909 19.7683 128.949 19.7683 128.977 19.7406C129.004 19.7146 129.03 19.7003 129.057 19.6999C129.138 19.6738 129.199 19.6592 129.239 19.6592C129.279 19.6592 129.34 19.6457 129.421 19.618L129.662 19.4966L130.469 19.4547L133.011 18.9646C133.603 18.7752 134.066 18.7943 134.404 19.022C134.741 19.2502 134.997 19.5524 135.173 19.9284C135.349 20.3052 135.478 20.6279 135.559 20.8963L136.249 22.7111C136.331 22.8997 136.473 23.3099 136.676 23.9409C136.88 24.5736 137.096 25.2319 137.327 25.9179C137.557 26.6031 137.713 27.1347 137.795 27.5111L137.836 27.6724C137.836 27.8341 137.849 27.9685 137.877 28.0757C138.012 28.1836 138.126 28.3515 138.221 28.5796C138.316 28.8085 138.377 28.9898 138.404 29.1246L138.648 29.9719L139.176 31.1411L139.989 33.602L140.233 34.2065L140.638 34.8913C140.638 34.8379 140.705 34.6896 140.839 34.4472C140.973 34.2049 141.106 33.949 141.241 33.6794C141.374 33.4105 141.441 33.2488 141.441 33.1946L141.921 31.2963L142.322 29.842C142.375 29.7076 142.408 29.5662 142.422 29.4179C142.435 29.2705 142.455 29.1422 142.481 29.0346L142.601 28.3885L142.721 27.7828C142.774 27.5139 142.875 27.2646 143.022 27.0353C143.169 26.8067 143.296 26.4364 143.403 25.9244C144.016 23.4745 144.469 21.643 144.762 20.4315C145.055 19.2196 145.511 18.6941 146.131 18.8542L147.867 18.9304L150.936 19.2461C151.069 19.2457 151.224 19.2995 151.4 19.4066C151.575 19.5145 151.716 19.5541 151.824 19.5268L153.075 19.6449C153.451 19.671 153.829 19.8852 154.207 20.2873C154.584 20.6902 154.666 21.1338 154.452 21.619C154.453 21.7538 154.439 21.9359 154.413 22.1644C154.386 22.3934 154.334 22.7498 154.254 23.2346C154.227 23.3421 154.187 23.4501 154.134 23.5576C154.08 23.6656 154.054 23.7466 154.054 23.8004C154.027 23.8811 154.013 23.9483 154.014 24.002C154.014 24.0566 154 24.0966 153.973 24.1234C153.706 24.9854 153.386 26.0767 153.013 27.3954C152.639 28.7148 152.252 30.1019 151.852 31.5554C151.452 33.0097 151.092 34.3629 150.772 35.6147C150.452 36.867 150.185 37.8434 149.971 38.5433L147.89 46.0558C147.891 46.1369 147.756 46.2713 147.488 46.4608L147.366 46.4616L147.205 46.4212C147.097 46.4216 146.996 46.4216 146.902 46.4221C146.807 46.4221 146.72 46.4628 146.64 46.5439C146.532 46.6514 146.371 46.706 146.156 46.7064C145.752 46.7072 145.389 46.6539 145.066 46.5475C144.85 46.521 144.655 46.5011 144.48 46.4885C144.305 46.475 144.151 46.4693 144.016 46.4697C143.155 46.5251 142.092 46.5752 140.828 46.618C139.563 46.6616 138.312 46.6905 137.074 46.7072C135.836 46.7219 134.814 46.7308 134.006 46.7329C134.004 46.7329 134.003 46.7329 134.001 46.7329Z" fill="white"/>
        <path d="M208.271 67.5285C207.518 67.4682 206.774 67.2409 206.052 67.0274C205.332 66.8148 204.674 66.5573 204.189 65.9532C203.795 65.4611 203.536 64.8199 203.615 64.1877C203.507 64.1038 203.415 63.9844 203.353 63.8247C203.01 62.9428 203.307 61.8384 202.749 61.0494C202.28 60.3858 201.392 59.853 200.586 59.787C199.605 59.7063 198.689 59.3731 198.215 58.4524C197.865 57.7758 197.808 56.9289 198.189 56.2433C198.162 56.2278 198.129 56.2095 198.117 56.2058C197.98 56.1671 197.812 56.0282 197.698 55.9488C197.362 55.7125 197.098 55.4115 196.97 55.0127C196.698 54.1621 197.05 53.2985 197.358 52.5102C198.008 50.8511 199.113 49.5524 200.9 49.1018C202.218 48.7694 203.758 49.3784 204.651 50.4111C204.814 50.361 204.978 50.3182 205.144 50.2856C205.629 50.1899 206.15 50.1858 206.643 50.2103C206.892 50.2225 207.135 50.2575 207.377 50.3133C207.383 50.3146 207.389 50.3162 207.395 50.3178C207.492 50.2196 207.597 50.1402 207.711 50.0518C207.907 49.899 208.185 49.7658 208.36 49.6526C208.725 49.4167 209.033 48.9747 209.445 48.7295C209.503 48.6953 209.561 48.6635 209.62 48.6342C209.53 48.3401 209.512 48.0215 209.55 47.6867C209.581 47.4235 209.633 47.1636 209.666 46.9009C209.701 46.6096 209.721 46.331 209.8 46.0454C209.904 45.6657 210.106 45.3081 210.339 44.9826C209.834 44.631 209.446 44.1169 209.285 43.5181C209.084 42.771 209.215 41.9685 208.862 41.2589C208.537 40.6043 207.88 40.181 207.533 39.5414C207.265 39.0485 207.298 38.6102 207.446 38.1719C206.756 38.0635 206.001 38.3801 205.346 38.541C204.366 38.7805 203.387 38.633 202.435 38.33C202.151 38.2399 201.874 38.123 201.571 38.145C201.401 38.158 201.236 38.2163 201.067 38.2342C200.502 38.2941 199.937 38.1303 199.383 38.0448C199.033 37.991 198.687 37.978 198.334 37.9605C198.215 37.9544 198.094 37.9401 197.974 37.9377C197.886 37.9715 197.807 38.0151 197.715 38.0452C197.705 38.0489 197.695 38.0521 197.685 38.055C197.681 38.0607 197.676 38.0668 197.67 38.0733C197.537 38.2277 197.569 38.1462 197.395 38.354C197.197 38.589 196.96 38.741 196.734 38.928C196.321 39.2689 196.071 39.5256 195.497 39.5647C195.385 39.5724 195.276 39.5761 195.168 39.5761C194.672 39.5761 194.208 39.4954 193.728 39.3235C193.272 39.1606 192.826 39.0481 192.418 38.7785C192.13 38.5886 191.878 38.3601 191.663 38.0896C191.5 37.8839 191.386 37.6207 191.171 37.4663C190.789 37.1934 190.757 36.6484 190.837 36.2402C190.918 35.8283 191.123 35.4369 190.984 35.0075C190.859 34.6262 190.479 34.2938 190.267 33.948C189.627 32.8994 189.571 31.8121 189.618 30.6137C189.654 29.7073 189.434 28.904 189.282 28.018C189.105 26.9804 189.401 25.9873 189.673 24.9929C189.872 24.2645 189.863 23.6889 189.669 22.9663C189.46 22.1898 189.371 21.4513 189.53 20.6541C189.59 20.3526 189.652 20.0451 189.735 19.7493C189.779 19.5913 189.846 19.4479 189.913 19.3057C189.848 18.5733 189.904 17.8457 190.165 17.165C190.147 17.0163 190.125 16.8652 190.1 16.7092C189.953 15.8073 190.01 14.7046 190.504 13.9151C190.863 13.344 191.448 12.8568 192.074 13.0393C192.268 12.9358 192.474 12.8592 192.689 12.8079C192.864 12.6364 193.11 12.5855 193.349 12.6217C193.893 12.4376 194.53 12.449 195.101 12.5496C196.237 12.7512 197.168 13.4421 198.349 13.146C198.93 13.0006 199.483 12.9252 200.041 13.2046C200.262 13.3146 200.467 13.5586 200.707 13.6202C200.953 13.6825 201.266 13.4751 201.496 13.3749C202.655 12.8678 203.82 12.7276 205.081 12.7814C205.333 12.792 205.523 12.893 205.651 13.0405C205.82 13.0771 205.968 13.2014 206.061 13.445C206.233 13.898 206.471 14.311 206.7 14.7217C206.854 14.7571 207.018 14.7946 207.148 14.8435C207.918 15.1331 208.439 15.7531 208.657 16.5405C208.891 17.3838 208.76 18.2955 208.489 19.113C208.339 19.5636 208.122 20.0141 207.854 20.4064C207.705 20.626 207.551 20.7404 207.353 20.8965C207.527 21.3002 207.643 21.7214 207.654 22.152C207.915 22.8962 207.914 23.7936 207.174 24.2344C206.852 24.4259 206.488 24.5701 206.159 24.7579C205.933 24.8882 205.717 24.9929 205.496 25.0752C205.508 25.151 205.523 25.2247 205.532 25.2874C205.575 25.5982 205.203 25.9954 204.917 25.9954C204.798 25.9954 204.694 25.9266 204.64 25.7543C204.622 25.6964 204.605 25.6382 204.589 25.5795C204.58 25.6276 204.569 25.676 204.559 25.7245C204.669 25.8528 204.724 26.0203 204.688 26.228C204.621 26.6114 204.423 26.9319 204.145 27.191C204.734 26.9601 205.304 26.9173 205.926 27.0036C206.551 27.0904 207.155 27.2668 207.713 27.563C207.735 27.4114 207.747 27.2513 207.751 27.0741C207.765 26.5572 207.776 26.0256 207.991 25.5453C208.219 25.0373 208.635 24.7257 209.093 24.4385C209.565 24.1431 210.055 23.8323 210.416 23.4013C210.719 23.0396 210.851 22.6237 210.935 22.1825C210.691 22.1601 210.285 22.2171 210.192 22.2171C209.83 22.2167 209.502 22.2318 209.156 22.3512C209.041 22.3907 208.951 22.3585 208.892 22.2913C208.579 22.079 208.604 21.5617 208.654 21.215C208.725 20.7156 209.002 20.2357 209.31 19.8447C209.653 19.408 210.106 19.067 210.408 18.5985C210.696 18.1529 210.972 17.7178 211.36 17.3492C212.132 16.6151 213.124 16.1833 214.192 16.1654C214.777 16.1556 215.313 16.158 215.872 15.96C215.917 15.9442 215.96 15.9275 216.003 15.9095C216.064 15.6798 216.13 15.4003 216.062 15.2089C215.972 14.9539 215.709 14.9001 215.484 14.8235C214.984 14.654 214.493 14.4715 214.019 14.234C213.344 13.8951 213.206 13.1554 213.866 12.713C214.608 12.216 215.69 12.2645 216.523 11.9801C217.431 11.6705 218.102 11.0326 219.116 11.0248C219.609 11.0212 220.092 11.1393 220.583 11.1634C221.12 11.1894 221.605 11.0697 222.107 10.8937C223.091 10.5495 223.985 10.2443 225.046 10.3458C226.083 10.4448 227.03 10.8684 227.922 11.3858C228.406 11.666 228.916 12.0037 229.25 12.4445C229.406 12.5484 229.561 12.5912 229.676 12.3781C229.729 12.2807 229.665 12.275 229.628 12.0889C229.593 11.9133 229.601 11.8856 229.522 11.7565C229.327 11.4326 229.211 11.1984 229.182 10.8106C229.151 10.4158 228.999 10.4374 228.658 10.3144C228.197 10.1486 227.395 9.65 227.712 9.04099C228.041 8.40999 229.285 8.36925 229.887 8.38147C230.748 8.39899 231.548 8.67151 232.335 8.99822C232.723 9.15953 233.095 9.30374 233.513 9.36077C233.783 8.6487 234.254 7.99 234.741 7.43802C235.13 6.99603 235.567 6.58011 235.935 6.12265C236.292 5.67862 236.895 5.14416 237.508 5.15475C237.595 5.15597 237.682 5.17553 237.769 5.19345C237.76 5.17227 237.75 5.15109 237.741 5.1295C237.544 4.6537 237.364 4.09642 237.462 3.57622C237.658 2.53867 238.95 2.25963 239.817 2.1032C240.722 1.93985 242.035 1.8433 242.471 2.83767C242.492 2.88696 242.509 2.92892 242.524 2.96396C242.543 2.9774 242.578 3.0104 242.629 3.06254C242.726 3.11427 242.807 3.2043 242.887 3.27396C243.069 3.43202 243.127 3.52123 243.372 3.51919C243.814 3.51634 244.216 3.33058 244.67 3.39087C245.613 3.51634 246.287 4.16731 247.128 4.53108C248.038 4.92419 249.07 5.02521 250.014 5.32666C252.171 6.01551 253.655 7.7965 255.248 9.318C255.277 9.34529 255.305 9.37381 255.333 9.40314C255.547 9.19864 255.773 9.00351 256.012 8.81531C256.292 8.59656 256.614 8.36273 256.861 8.10772C257.146 7.81401 257.3 7.49098 257.693 7.30889C258.666 6.85834 259.393 7.49505 260.127 8.03236C260.695 8.44746 261.572 8.5436 262.235 8.77335C263.633 9.25852 264.993 9.9934 265.585 11.4192C265.861 12.082 266.018 12.7859 266.285 13.4491C266.387 13.7008 266.538 13.9065 266.703 14.1021C266.863 14.1008 267.026 14.1811 267.152 14.3493C267.336 14.5938 267.425 14.8606 267.443 15.1359C267.493 15.314 267.475 15.4802 267.409 15.6232C267.254 16.4147 266.65 17.2106 266.14 17.6974C265.71 18.1085 265.209 18.4181 264.763 18.8079C264.378 19.1444 264.262 19.5102 264.096 19.9791C263.877 20.5983 263.505 21.0826 262.912 21.3812C262.761 21.4574 262.578 21.5059 262.427 21.5898C262.42 21.6089 262.395 21.6631 262.381 21.756C262.362 21.8823 262.341 22.0086 262.322 22.1348C262.221 22.7887 262.102 23.4975 261.77 24.0771C261.437 24.6589 261.076 25.2699 260.68 25.8097C260.517 26.0317 260.265 26.1413 260.011 26.1413C259.833 26.1413 259.653 26.0871 259.504 25.9799C259.444 25.9368 259.392 25.8879 259.347 25.8341C259.014 25.8455 258.682 25.8842 258.353 25.9229C257.962 25.9689 257.574 26.015 257.188 26.015C256.704 26.015 256.223 25.9425 255.745 25.7058C255.226 25.4487 254.843 25.0015 254.658 24.4548C254.596 24.2719 254.584 23.882 254.447 23.7154C254.337 23.7191 254.119 23.8164 254.052 23.8335C252.772 24.1554 251.275 24.401 250.238 23.3879C249.82 22.9805 249.592 22.4 249.618 21.8179C249.623 21.7132 249.697 21.499 249.742 21.3144C249.654 21.2778 249.568 21.2215 249.488 21.1437C249.363 21.0199 249.251 20.8871 249.155 20.7466C249.114 20.7364 249.078 20.7274 249.052 20.7197C248.651 20.6048 248.624 20.2361 248.784 19.9326C248.61 19.2691 248.697 18.5439 249.054 17.9052C249.099 17.8254 249.146 17.75 249.195 17.6779C248.946 17.5756 248.715 17.4318 248.519 17.2449C248.321 17.055 248.033 16.7613 247.981 16.4766C247.941 16.4126 247.923 16.3719 247.926 16.3552C247.798 16.3206 247.717 16.3002 247.582 16.2863C246.912 16.2187 246.257 16.248 245.647 15.9116C245.332 15.738 245.079 15.4904 244.817 15.2496C244.678 15.6749 244.454 16.0399 244.181 16.3947C244.148 16.4387 244.112 16.4815 244.074 16.5234C244.299 16.8689 244.62 17.0929 244.914 17.4416C245.788 18.4767 245.458 19.7379 245.619 20.9629C245.662 21.2912 245.772 21.5979 245.896 21.9002C245.957 21.6709 246.003 21.4436 246.039 21.2346C246.112 20.7934 246.069 20.0919 246.701 20.0821C247.28 20.0736 247.591 20.8529 247.801 21.2855C248.086 21.8697 248.255 22.4844 248.235 23.1374C248.223 23.5072 248.147 23.8804 248.192 24.2499C248.231 24.5615 248.352 24.8568 248.449 25.153C248.455 25.1713 248.46 25.1901 248.466 25.2084C248.56 25.1921 248.654 25.175 248.748 25.1567C248.617 25.1819 248.676 25.1611 248.771 25.1412C248.927 25.1078 249.084 25.0707 249.242 25.0475C249.285 25.041 249.317 25.0369 249.341 25.0345C250.125 24.7281 251.091 24.3713 251.835 24.9232C252.34 25.2972 252.664 25.8329 253.004 26.3498C253.537 27.1601 254.102 28.4404 253.803 29.4336C253.693 29.7998 253.453 30.1073 253.164 30.3534C253.101 30.4072 253.033 30.4569 252.964 30.5049C253.078 30.6007 253.194 30.7025 253.294 30.8072C253.623 31.1522 253.756 31.5905 253.862 32.0431C253.885 32.1397 253.906 32.2354 253.926 32.3307C253.991 32.0321 254.058 31.7343 254.156 31.4423C254.366 30.8178 254.312 30.1713 254.414 29.5256C254.518 28.8616 254.758 28.2652 255.268 27.8094C255.528 27.5772 255.848 27.4041 256.168 27.2688C256.444 27.1527 256.703 26.9857 256.986 26.888C257.879 26.5792 258.585 27.0749 259.222 27.6477C259.631 28.0147 260.025 28.4037 260.391 28.8156C261.094 28.4665 261.886 28.3121 262.667 28.4987C263.479 28.693 264.284 28.9663 264.929 29.5232C265.683 30.1741 266.268 31.1836 266.085 32.2154C266.062 32.3429 266.026 32.4688 265.979 32.591C266.225 32.6024 266.469 32.6599 266.697 32.7642C267.112 32.9548 267.414 33.3055 267.625 33.7011C267.815 34.0567 267.89 34.4979 267.936 34.8959C268.038 35.764 268.085 36.6989 267.5 37.415C267.046 37.9707 266.39 38.1299 265.717 38.1299C265.536 38.1299 265.353 38.1185 265.173 38.0998C265.104 38.708 264.901 39.3072 264.587 39.8592C264.312 40.3448 263.88 40.7159 263.557 41.1151C263.217 41.5371 262.873 41.96 262.485 42.3404C261.535 43.2721 260.219 43.8676 258.918 43.8676C258.784 43.8676 258.649 43.8615 258.515 43.8485C258.423 43.9854 258.313 44.1112 258.18 44.2383C258.077 44.3373 257.978 44.4441 257.886 44.554C257.959 44.4673 257.855 44.607 257.798 44.6824C257.822 44.8518 257.79 45.0751 257.776 45.2417C257.731 45.7745 257.58 46.2731 257.307 46.7334C256.889 47.4374 256.279 48.0305 255.599 48.4794C255.166 48.7654 254.715 48.8444 254.248 48.8444C253.947 48.8444 253.639 48.8118 253.325 48.7804C252.904 48.7385 252.485 48.7531 252.065 48.7674C251.737 48.7788 251.409 48.7902 251.08 48.7747C250.399 48.7425 249.669 48.4798 249.103 48.0985C247.784 47.2105 247.223 45.6543 247.44 44.0982C247.554 43.2761 247.896 42.5726 248.167 41.8459C248.172 41.8333 248.177 41.8206 248.182 41.8076C248.176 41.8019 248.169 41.7958 248.163 41.7897C247.973 41.6214 247.804 41.4296 247.645 41.2324C247.266 40.7635 246.874 40.2584 246.593 39.7211C246.533 39.5883 246.5 39.5125 246.493 39.493C246.478 39.4645 246.463 39.4359 246.448 39.407C246.43 39.7341 246.369 40.0596 246.27 40.3717C246.139 40.7863 245.898 41.1978 245.865 41.6385C245.831 42.1001 246.025 42.536 245.952 43.0069C245.884 43.4517 245.68 43.8473 245.412 44.2049C245.157 44.5443 244.843 44.8233 244.548 45.126C244.217 45.4669 244.066 45.7668 243.904 46.2108C243.616 46.9941 243.15 47.5608 242.415 47.973C242.057 48.1747 241.454 48.5328 240.946 48.5328C240.711 48.5323 240.496 48.4554 240.336 48.2496C240.101 47.9474 240.138 47.5535 240.266 47.2194C240.431 46.7852 240.624 46.3876 240.748 45.9362C240.804 45.7329 240.97 45.3007 240.864 45.1508C240.856 45.1386 240.845 45.1272 240.833 45.1166C240.024 45.0571 239.712 46.0519 239.336 46.753C238.854 47.6516 238.298 48.7299 237.358 49.2196C236.937 49.4387 236.479 49.5271 236.035 49.6836C235.603 49.8351 235.289 50.1288 234.938 50.4111C234.208 50.9985 233.254 51.412 232.374 51.7179C232.009 51.845 231.387 52.0446 230.839 52.0446C230.445 52.0446 230.088 51.9408 229.894 51.632C229.366 50.7969 230.581 50.381 231.028 49.9569C231.238 49.7577 231.473 49.4962 231.515 49.1951C231.533 49.068 231.503 49.0045 231.484 48.9919C231.411 48.9422 231.257 48.947 231.107 48.9519C231.022 48.9544 230.938 48.9572 230.872 48.9503C230.603 49.0114 230.33 49.0416 230.041 49.0411C229.513 49.0395 229.001 48.9866 228.486 49.1414C227.759 49.3593 227.123 49.8131 226.407 50.0624C226.191 50.1374 225.977 50.1891 225.764 50.2209C225.804 50.293 225.842 50.3687 225.877 50.4474C225.977 50.6787 226.04 50.9256 226.107 51.1676C226.119 51.212 226.159 51.4368 226.129 51.3603C226.03 51.3053 226.071 51.3468 226.25 51.4845C226.259 51.4951 226.269 51.5053 226.278 51.5155C227.097 51.9648 227.737 52.6402 227.836 53.6301C227.948 54.7556 227.433 55.6453 226.6 56.3627C225.922 56.9472 225.156 57.5998 224.298 57.8944C224.023 57.9893 223.742 58.0304 223.461 58.0304C222.977 58.0304 222.493 57.9082 222.035 57.7277C221.192 57.8944 220.695 57.4108 219.951 57.1159C219.418 56.9053 218.863 57.4744 218.393 57.6923C218.172 57.7945 217.948 57.8886 217.72 57.9746C217.782 58.0149 217.843 58.0577 217.901 58.1033C218.39 58.4858 218.665 58.9995 218.806 59.5979C218.871 59.8709 218.924 60.1683 218.935 60.4485C218.953 60.908 218.755 61.2702 218.447 61.5932C218.208 61.8437 217.901 62.0124 217.586 62.1468C217.393 62.2287 217.19 62.3134 216.987 62.37C216.94 62.3835 216.892 62.3945 216.844 62.4043C216.967 63.1277 216.766 63.9201 216.28 64.4769C215.751 65.0839 214.892 65.4098 214.133 65.6127C213.837 65.6917 213.433 65.7858 213.049 65.7858C212.82 65.7858 212.598 65.7524 212.41 65.6623C212.292 65.8689 212.141 66.0595 211.963 66.229C211.065 67.0869 209.897 67.5448 208.672 67.5448C208.539 67.5448 208.405 67.5395 208.271 67.5285ZM199.354 57.0841C199.351 57.0821 199.347 57.08 199.343 57.078C199.317 57.0788 199.32 57.0809 199.354 57.0841ZM254.484 23.7195C254.488 23.7211 254.493 23.7232 254.496 23.7248C254.495 23.724 254.493 23.7232 254.491 23.7219C254.488 23.7211 254.486 23.7203 254.484 23.7195ZM214.34 13.4169C214.359 13.4214 214.378 13.4258 214.398 13.4299C214.418 13.4185 214.439 13.4071 214.46 13.3957C214.417 13.3998 214.377 13.4067 214.34 13.4169Z" fill="white" stroke="white" stroke-width="3" stroke-linecap="round" stroke-linejoin="round"/>
        <path d="M208.271 67.5285C207.518 67.4682 206.774 67.2409 206.052 67.0274C205.332 66.8148 204.674 66.5573 204.189 65.9532C203.795 65.4611 203.536 64.8199 203.615 64.1877C203.507 64.1038 203.415 63.9844 203.353 63.8247C203.01 62.9428 203.307 61.8384 202.749 61.0494C202.28 60.3858 201.392 59.853 200.586 59.787C199.605 59.7063 198.689 59.3731 198.215 58.4524C197.865 57.7758 197.808 56.9289 198.189 56.2433C198.162 56.2278 198.129 56.2095 198.117 56.2058C197.98 56.1671 197.812 56.0282 197.698 55.9488C197.362 55.7125 197.098 55.4115 196.97 55.0127C196.698 54.1621 197.05 53.2985 197.358 52.5102C198.008 50.8511 199.113 49.5524 200.9 49.1018C202.218 48.7694 203.758 49.3784 204.651 50.4111C204.814 50.361 204.978 50.3182 205.144 50.2856C205.629 50.1899 206.15 50.1858 206.643 50.2103C206.892 50.2225 207.135 50.2575 207.377 50.3133C207.383 50.3146 207.389 50.3162 207.395 50.3178C207.492 50.2196 207.597 50.1402 207.711 50.0518C207.907 49.899 208.185 49.7658 208.36 49.6526C208.725 49.4167 209.033 48.9747 209.445 48.7295C209.503 48.6953 209.561 48.6635 209.62 48.6342C209.53 48.3401 209.512 48.0215 209.55 47.6867C209.581 47.4235 209.633 47.1636 209.666 46.9009C209.701 46.6096 209.721 46.331 209.8 46.0454C209.904 45.6657 210.106 45.3081 210.339 44.9826C209.834 44.631 209.446 44.1169 209.285 43.5181C209.084 42.771 209.215 41.9685 208.862 41.2589C208.537 40.6043 207.88 40.181 207.533 39.5414C207.265 39.0485 207.298 38.6102 207.446 38.1719C206.756 38.0635 206.001 38.3801 205.346 38.541C204.366 38.7805 203.387 38.633 202.435 38.33C202.151 38.2399 201.874 38.123 201.571 38.145C201.401 38.158 201.236 38.2163 201.067 38.2342C200.502 38.2941 199.937 38.1303 199.383 38.0448C199.033 37.991 198.687 37.978 198.334 37.9605C198.215 37.9544 198.094 37.9401 197.974 37.9377C197.886 37.9715 197.807 38.0151 197.715 38.0452C197.705 38.0489 197.695 38.0521 197.685 38.055C197.681 38.0607 197.676 38.0668 197.67 38.0733C197.537 38.2277 197.569 38.1462 197.395 38.354C197.197 38.589 196.96 38.741 196.734 38.928C196.321 39.2689 196.071 39.5256 195.497 39.5647C195.385 39.5724 195.276 39.5761 195.168 39.5761C194.672 39.5761 194.208 39.4954 193.728 39.3235C193.272 39.1606 192.826 39.0481 192.418 38.7785C192.13 38.5886 191.878 38.3601 191.663 38.0896C191.5 37.8839 191.386 37.6207 191.171 37.4663C190.789 37.1934 190.757 36.6484 190.837 36.2402C190.918 35.8283 191.123 35.4369 190.984 35.0075C190.859 34.6262 190.479 34.2938 190.267 33.948C189.627 32.8994 189.571 31.8121 189.618 30.6137C189.654 29.7073 189.434 28.904 189.282 28.018C189.105 26.9804 189.401 25.9873 189.673 24.9929C189.872 24.2645 189.863 23.6889 189.669 22.9663C189.46 22.1898 189.371 21.4513 189.53 20.6541C189.59 20.3526 189.652 20.0451 189.735 19.7493C189.779 19.5913 189.846 19.4479 189.913 19.3057C189.848 18.5733 189.904 17.8457 190.165 17.165C190.147 17.0163 190.125 16.8652 190.1 16.7092C189.953 15.8073 190.01 14.7046 190.504 13.9151C190.863 13.344 191.448 12.8568 192.074 13.0393C192.268 12.9358 192.474 12.8592 192.689 12.8079C192.864 12.6364 193.11 12.5855 193.349 12.6217C193.893 12.4376 194.53 12.449 195.101 12.5496C196.237 12.7512 197.168 13.4421 198.349 13.146C198.93 13.0006 199.483 12.9252 200.041 13.2046C200.262 13.3146 200.467 13.5586 200.707 13.6202C200.953 13.6825 201.266 13.4751 201.496 13.3749C202.655 12.8678 203.82 12.7276 205.081 12.7814C205.333 12.792 205.523 12.893 205.651 13.0405C205.82 13.0771 205.968 13.2014 206.061 13.445C206.233 13.898 206.471 14.311 206.7 14.7217C206.854 14.7571 207.018 14.7946 207.148 14.8435C207.918 15.1331 208.439 15.7531 208.657 16.5405C208.891 17.3838 208.76 18.2955 208.489 19.113C208.339 19.5636 208.122 20.0141 207.854 20.4064C207.705 20.626 207.551 20.7404 207.353 20.8965C207.527 21.3002 207.643 21.7214 207.654 22.152C207.915 22.8962 207.914 23.7936 207.174 24.2344C206.852 24.4259 206.488 24.5701 206.159 24.7579C205.933 24.8882 205.717 24.9929 205.496 25.0752C205.508 25.151 205.523 25.2247 205.532 25.2874C205.575 25.5982 205.203 25.9954 204.917 25.9954C204.798 25.9954 204.694 25.9266 204.64 25.7543C204.622 25.6964 204.605 25.6382 204.589 25.5795C204.58 25.6276 204.569 25.676 204.559 25.7245C204.669 25.8528 204.724 26.0203 204.688 26.228C204.621 26.6114 204.423 26.9319 204.145 27.191C204.734 26.9601 205.304 26.9173 205.926 27.0036C206.551 27.0904 207.155 27.2668 207.713 27.563C207.735 27.4114 207.747 27.2513 207.751 27.0741C207.765 26.5572 207.776 26.0256 207.991 25.5453C208.219 25.0373 208.635 24.7257 209.093 24.4385C209.565 24.1431 210.055 23.8323 210.416 23.4013C210.719 23.0396 210.851 22.6237 210.935 22.1825C210.691 22.1601 210.285 22.2171 210.192 22.2171C209.83 22.2167 209.502 22.2318 209.156 22.3512C209.041 22.3907 208.951 22.3585 208.892 22.2913C208.579 22.079 208.604 21.5617 208.654 21.215C208.725 20.7156 209.002 20.2357 209.31 19.8447C209.653 19.408 210.106 19.067 210.408 18.5985C210.696 18.1529 210.972 17.7178 211.36 17.3492C212.132 16.6151 213.124 16.1833 214.192 16.1654C214.777 16.1556 215.313 16.158 215.872 15.96C215.917 15.9442 215.96 15.9275 216.003 15.9095C216.064 15.6798 216.13 15.4003 216.062 15.2089C215.972 14.9539 215.709 14.9001 215.484 14.8235C214.984 14.654 214.493 14.4715 214.019 14.234C213.344 13.8951 213.206 13.1554 213.866 12.713C214.608 12.216 215.69 12.2645 216.523 11.9801C217.431 11.6705 218.102 11.0326 219.116 11.0248C219.609 11.0212 220.092 11.1393 220.583 11.1634C221.12 11.1894 221.605 11.0697 222.107 10.8937C223.091 10.5495 223.985 10.2443 225.046 10.3458C226.083 10.4448 227.03 10.8684 227.922 11.3858C228.406 11.666 228.916 12.0037 229.25 12.4445C229.406 12.5484 229.561 12.5912 229.676 12.3781C229.729 12.2807 229.665 12.275 229.628 12.0889C229.593 11.9133 229.601 11.8856 229.522 11.7565C229.327 11.4326 229.211 11.1984 229.182 10.8106C229.151 10.4158 228.999 10.4374 228.658 10.3144C228.197 10.1486 227.395 9.65 227.712 9.04099C228.041 8.40999 229.285 8.36925 229.887 8.38147C230.748 8.39899 231.548 8.67151 232.335 8.99822C232.723 9.15953 233.095 9.30374 233.513 9.36077C233.783 8.6487 234.254 7.99 234.741 7.43802C235.13 6.99603 235.567 6.58011 235.935 6.12265C236.292 5.67862 236.895 5.14416 237.508 5.15475C237.595 5.15597 237.682 5.17553 237.769 5.19345C237.76 5.17227 237.75 5.15109 237.741 5.1295C237.544 4.6537 237.364 4.09642 237.462 3.57622C237.658 2.53867 238.95 2.25963 239.817 2.1032C240.722 1.93985 242.035 1.8433 242.471 2.83767C242.492 2.88696 242.509 2.92892 242.524 2.96396C242.543 2.9774 242.578 3.0104 242.629 3.06254C242.726 3.11427 242.807 3.2043 242.887 3.27396C243.069 3.43202 243.127 3.52123 243.372 3.51919C243.814 3.51634 244.216 3.33058 244.67 3.39087C245.613 3.51634 246.287 4.16731 247.128 4.53108C248.038 4.92419 249.07 5.02521 250.014 5.32666C252.171 6.01551 253.655 7.7965 255.248 9.318C255.277 9.34529 255.305 9.37381 255.333 9.40314C255.547 9.19864 255.773 9.00351 256.012 8.81531C256.292 8.59656 256.614 8.36273 256.861 8.10772C257.146 7.81401 257.3 7.49098 257.693 7.30889C258.666 6.85834 259.393 7.49505 260.127 8.03236C260.695 8.44746 261.572 8.5436 262.235 8.77335C263.633 9.25852 264.993 9.9934 265.585 11.4192C265.861 12.082 266.018 12.7859 266.285 13.4491C266.387 13.7008 266.538 13.9065 266.703 14.1021C266.863 14.1008 267.026 14.1811 267.152 14.3493C267.336 14.5938 267.425 14.8606 267.443 15.1359C267.493 15.314 267.475 15.4802 267.409 15.6232C267.254 16.4147 266.65 17.2106 266.14 17.6974C265.71 18.1085 265.209 18.4181 264.763 18.8079C264.378 19.1444 264.262 19.5102 264.096 19.9791C263.877 20.5983 263.505 21.0826 262.912 21.3812C262.761 21.4574 262.578 21.5059 262.427 21.5898C262.42 21.6089 262.395 21.6631 262.381 21.756C262.362 21.8823 262.341 22.0086 262.322 22.1348C262.221 22.7887 262.102 23.4975 261.77 24.0771C261.437 24.6589 261.076 25.2699 260.68 25.8097C260.517 26.0317 260.265 26.1413 260.011 26.1413C259.833 26.1413 259.653 26.0871 259.504 25.9799C259.444 25.9368 259.392 25.8879 259.347 25.8341C259.014 25.8455 258.682 25.8842 258.353 25.9229C257.962 25.9689 257.574 26.015 257.188 26.015C256.704 26.015 256.223 25.9425 255.745 25.7058C255.226 25.4487 254.843 25.0015 254.658 24.4548C254.596 24.2719 254.584 23.882 254.447 23.7154C254.337 23.7191 254.119 23.8164 254.052 23.8335C252.772 24.1554 251.275 24.401 250.238 23.3879C249.82 22.9805 249.592 22.4 249.618 21.8179C249.623 21.7132 249.697 21.499 249.742 21.3144C249.654 21.2778 249.568 21.2215 249.488 21.1437C249.363 21.0199 249.251 20.8871 249.155 20.7466C249.114 20.7364 249.078 20.7274 249.052 20.7197C248.651 20.6048 248.624 20.2361 248.784 19.9326C248.61 19.2691 248.697 18.5439 249.054 17.9052C249.099 17.8254 249.146 17.75 249.195 17.6779C248.946 17.5756 248.715 17.4318 248.519 17.2449C248.321 17.055 248.033 16.7613 247.981 16.4766C247.941 16.4126 247.923 16.3719 247.926 16.3552C247.798 16.3206 247.717 16.3002 247.582 16.2863C246.912 16.2187 246.257 16.248 245.647 15.9116C245.332 15.738 245.079 15.4904 244.817 15.2496C244.678 15.6749 244.454 16.0399 244.181 16.3947C244.148 16.4387 244.112 16.4815 244.074 16.5234C244.299 16.8689 244.62 17.0929 244.914 17.4416C245.788 18.4767 245.458 19.7379 245.619 20.9629C245.662 21.2912 245.772 21.5979 245.896 21.9002C245.957 21.6709 246.003 21.4436 246.039 21.2346C246.112 20.7934 246.069 20.0919 246.701 20.0821C247.28 20.0736 247.591 20.8529 247.801 21.2855C248.086 21.8697 248.255 22.4844 248.235 23.1374C248.223 23.5072 248.147 23.8804 248.192 24.2499C248.231 24.5615 248.352 24.8568 248.449 25.153C248.455 25.1713 248.46 25.1901 248.466 25.2084C248.56 25.1921 248.654 25.175 248.748 25.1567C248.617 25.1819 248.676 25.1611 248.771 25.1412C248.927 25.1078 249.084 25.0707 249.242 25.0475C249.285 25.041 249.317 25.0369 249.341 25.0345C250.125 24.7281 251.091 24.3713 251.835 24.9232C252.34 25.2972 252.664 25.8329 253.004 26.3498C253.537 27.1601 254.102 28.4404 253.803 29.4336C253.693 29.7998 253.453 30.1073 253.164 30.3534C253.101 30.4072 253.033 30.4569 252.964 30.5049C253.078 30.6007 253.194 30.7025 253.294 30.8072C253.623 31.1522 253.756 31.5905 253.862 32.0431C253.885 32.1397 253.906 32.2354 253.926 32.3307C253.991 32.0321 254.058 31.7343 254.156 31.4423C254.366 30.8178 254.312 30.1713 254.414 29.5256C254.518 28.8616 254.758 28.2652 255.268 27.8094C255.528 27.5772 255.848 27.4041 256.168 27.2688C256.444 27.1527 256.703 26.9857 256.986 26.888C257.879 26.5792 258.585 27.0749 259.222 27.6477C259.631 28.0147 260.025 28.4037 260.391 28.8156C261.094 28.4665 261.886 28.3121 262.667 28.4987C263.479 28.693 264.284 28.9663 264.929 29.5232C265.683 30.1741 266.268 31.1836 266.085 32.2154C266.062 32.3429 266.026 32.4688 265.979 32.591C266.225 32.6024 266.469 32.6599 266.697 32.7642C267.112 32.9548 267.414 33.3055 267.625 33.7011C267.815 34.0567 267.89 34.4979 267.936 34.8959C268.038 35.764 268.085 36.6989 267.5 37.415C267.046 37.9707 266.39 38.1299 265.717 38.1299C265.536 38.1299 265.353 38.1185 265.173 38.0998C265.104 38.708 264.901 39.3072 264.587 39.8592C264.312 40.3448 263.88 40.7159 263.557 41.1151C263.217 41.5371 262.873 41.96 262.485 42.3404C261.535 43.2721 260.219 43.8676 258.918 43.8676C258.784 43.8676 258.649 43.8615 258.515 43.8485C258.423 43.9854 258.313 44.1112 258.18 44.2383C258.077 44.3373 257.978 44.4441 257.886 44.554C257.959 44.4673 257.855 44.607 257.798 44.6824C257.822 44.8518 257.79 45.0751 257.776 45.2417C257.731 45.7745 257.58 46.2731 257.307 46.7334C256.889 47.4374 256.279 48.0305 255.599 48.4794C255.166 48.7654 254.715 48.8444 254.248 48.8444C253.947 48.8444 253.639 48.8118 253.325 48.7804C252.904 48.7385 252.485 48.7531 252.065 48.7674C251.737 48.7788 251.409 48.7902 251.08 48.7747C250.399 48.7425 249.669 48.4798 249.103 48.0985C247.784 47.2105 247.223 45.6543 247.44 44.0982C247.554 43.2761 247.896 42.5726 248.167 41.8459C248.172 41.8333 248.177 41.8206 248.182 41.8076C248.176 41.8019 248.169 41.7958 248.163 41.7897C247.973 41.6214 247.804 41.4296 247.645 41.2324C247.266 40.7635 246.874 40.2584 246.593 39.7211C246.533 39.5883 246.5 39.5125 246.493 39.493C246.478 39.4645 246.463 39.4359 246.448 39.407C246.43 39.7341 246.369 40.0596 246.27 40.3717C246.139 40.7863 245.898 41.1978 245.865 41.6385C245.831 42.1001 246.025 42.536 245.952 43.0069C245.884 43.4517 245.68 43.8473 245.412 44.2049C245.157 44.5443 244.843 44.8233 244.548 45.126C244.217 45.4669 244.066 45.7668 243.904 46.2108C243.616 46.9941 243.15 47.5608 242.415 47.973C242.057 48.1747 241.454 48.5328 240.946 48.5328C240.711 48.5323 240.496 48.4554 240.336 48.2496C240.101 47.9474 240.138 47.5535 240.266 47.2194C240.431 46.7852 240.624 46.3876 240.748 45.9362C240.804 45.7329 240.97 45.3007 240.864 45.1508C240.856 45.1386 240.845 45.1272 240.833 45.1166C240.024 45.0571 239.712 46.0519 239.336 46.753C238.854 47.6516 238.298 48.7299 237.358 49.2196C236.937 49.4387 236.479 49.5271 236.035 49.6836C235.603 49.8351 235.289 50.1288 234.938 50.4111C234.208 50.9985 233.254 51.412 232.374 51.7179C232.009 51.845 231.387 52.0446 230.839 52.0446C230.445 52.0446 230.088 51.9408 229.894 51.632C229.366 50.7969 230.581 50.381 231.028 49.9569C231.238 49.7577 231.473 49.4962 231.515 49.1951C231.533 49.068 231.503 49.0045 231.484 48.9919C231.411 48.9422 231.257 48.947 231.107 48.9519C231.022 48.9544 230.938 48.9572 230.872 48.9503C230.603 49.0114 230.33 49.0416 230.041 49.0411C229.513 49.0395 229.001 48.9866 228.486 49.1414C227.759 49.3593 227.123 49.8131 226.407 50.0624C226.191 50.1374 225.977 50.1891 225.764 50.2209C225.804 50.293 225.842 50.3687 225.877 50.4474C225.977 50.6787 226.04 50.9256 226.107 51.1676C226.119 51.212 226.159 51.4368 226.129 51.3603C226.03 51.3053 226.071 51.3468 226.25 51.4845C226.259 51.4951 226.269 51.5053 226.278 51.5155C227.097 51.9648 227.737 52.6402 227.836 53.6301C227.948 54.7556 227.433 55.6453 226.6 56.3627C225.922 56.9472 225.156 57.5998 224.298 57.8944C224.023 57.9893 223.742 58.0304 223.461 58.0304C222.977 58.0304 222.493 57.9082 222.035 57.7277C221.192 57.8944 220.695 57.4108 219.951 57.1159C219.418 56.9053 218.863 57.4744 218.393 57.6923C218.172 57.7945 217.948 57.8886 217.72 57.9746C217.782 58.0149 217.843 58.0577 217.901 58.1033C218.39 58.4858 218.665 58.9995 218.806 59.5979C218.871 59.8709 218.924 60.1683 218.935 60.4485C218.953 60.908 218.755 61.2702 218.447 61.5932C218.208 61.8437 217.901 62.0124 217.586 62.1468C217.393 62.2287 217.19 62.3134 216.987 62.37C216.94 62.3835 216.892 62.3945 216.844 62.4043C216.967 63.1277 216.766 63.9201 216.28 64.4769C215.751 65.0839 214.892 65.4098 214.133 65.6127C213.837 65.6917 213.433 65.7858 213.049 65.7858C212.82 65.7858 212.598 65.7524 212.41 65.6623C212.292 65.8689 212.141 66.0595 211.963 66.229C211.065 67.0869 209.897 67.5448 208.672 67.5448C208.539 67.5448 208.405 67.5395 208.271 67.5285ZM201.348 50.647C200.332 51.089 199.629 51.6694 199.176 52.6907C198.973 53.1465 198.729 53.6741 198.652 54.1682C198.59 54.565 199.031 54.6261 199.314 54.855C199.717 55.1809 199.945 55.6404 199.932 56.1639C199.924 56.4584 199.827 56.7281 199.719 56.999C199.702 57.0434 199.689 57.0833 199.679 57.1179C199.851 57.1688 200.016 57.2691 200.178 57.3395C200.579 57.5143 200.903 57.7123 201.248 57.9823C201.857 58.4606 202.61 58.6948 203.228 59.1784C203.811 59.6358 204.272 60.2408 204.485 60.9585C204.546 61.1651 204.58 61.3757 204.602 61.5879C204.924 61.7729 205.205 61.9932 205.441 62.2849C205.651 62.5444 205.722 62.9025 205.515 63.1815C205.209 63.5962 204.721 64.1934 204.962 64.745C205.127 65.1206 205.651 65.4383 206.018 65.5833C207.166 66.0351 208.57 66.1109 209.756 65.7727C210.517 65.5556 211.67 64.648 211.128 63.7457C210.881 63.3339 210.264 63.1526 209.822 63.0923C209.547 63.0548 209.266 63.0304 208.989 63.0666C208.697 63.1045 208.455 63.2324 208.157 63.2218C207.915 63.2137 207.71 62.8344 207.831 62.6271C208.157 62.071 209.074 61.8853 209.678 61.9048C209.685 61.9048 209.693 61.9052 209.7 61.9057C209.707 61.7423 209.73 61.5806 209.735 61.4148C209.734 61.4588 209.733 61.5024 209.732 61.546C209.734 61.4877 209.736 61.429 209.739 61.3708C209.738 61.2975 209.734 61.2245 209.726 61.1516C209.721 61.1101 209.714 61.0689 209.708 61.0278C209.707 61.0253 209.707 61.0229 209.706 61.0205C209.681 60.9304 209.65 60.842 209.613 60.7561C209.587 60.7292 209.566 60.6681 209.547 60.6375C209.499 60.5626 209.449 60.4901 209.398 60.4188C209.374 60.3862 209.348 60.3556 209.324 60.3235C209.312 60.3112 209.301 60.2994 209.29 60.2876C209.208 60.2049 209.127 60.1291 209.05 60.0424C209.151 60.156 209.002 59.9915 208.991 59.9784C208.967 59.9511 208.944 59.9238 208.925 59.8949C208.896 59.8709 208.869 59.8468 208.843 59.82C208.817 59.7935 208.795 59.767 208.778 59.7397C208.774 59.7369 208.769 59.7336 208.762 59.7295C208.551 59.5971 208.555 59.2069 208.847 59.1722C208.872 59.1698 208.896 59.1674 208.921 59.1653C209.004 59.1258 209.103 59.1193 209.199 59.1221C209.494 59.0317 209.87 59.2195 210.109 59.3706C210.408 59.5601 210.656 59.7927 210.855 60.0888C211.083 60.4282 211.214 60.8037 211.293 61.2013C211.335 61.4115 211.328 61.6209 211.311 61.8348C211.295 62.0242 211.245 62.1965 211.162 62.3582C211.314 62.4515 211.456 62.557 211.587 62.6743C212.091 63.1269 212.581 63.6846 212.671 64.3836C212.678 64.437 212.683 64.49 212.685 64.5425C212.715 64.5588 212.744 64.5788 212.77 64.6032C212.801 64.6329 212.835 64.6663 212.872 64.69C212.927 64.7254 212.875 64.6879 212.869 64.6851C212.893 64.6961 212.942 64.7014 212.895 64.6957C212.927 64.6997 212.957 64.7067 212.988 64.7099C212.984 64.7087 213.034 64.7079 213.043 64.7071C213.072 64.7042 213.1 64.6993 213.129 64.6949C213.137 64.694 213.182 64.6847 213.201 64.681C213.206 64.6802 213.21 64.679 213.215 64.6773C213.229 64.6733 213.243 64.6696 213.243 64.67C213.594 64.5661 213.953 64.5046 214.301 64.3836C214.586 64.2846 214.87 64.1714 215.112 64.0178C215.238 63.9376 215.305 63.8842 215.388 63.7881C215.405 63.7693 215.49 63.6553 215.449 63.7196C215.486 63.6622 215.518 63.5991 215.547 63.5363C215.55 63.5306 215.569 63.4866 215.578 63.4671C215.583 63.45 215.591 63.4259 215.591 63.4255C215.597 63.4039 215.63 63.2634 215.621 63.3363C215.629 63.2793 215.624 63.2169 215.62 63.1595C215.618 63.129 215.614 63.0988 215.612 63.0687C215.611 63.0622 215.611 63.0569 215.611 63.0524C215.611 63.052 215.61 63.0516 215.61 63.0512C215.596 62.9815 215.575 62.9147 215.552 62.8471C215.552 62.8471 215.546 62.8308 215.54 62.8145C215.538 62.8096 215.536 62.8043 215.534 62.7994C215.526 62.7815 215.513 62.7558 215.513 62.7554C215.509 62.7489 215.485 62.713 215.46 62.676C215.409 62.6454 215.352 62.6002 215.321 62.577C215.112 62.4222 214.918 62.2328 214.715 62.0666C214.714 62.0662 214.714 62.0657 214.713 62.0653L214.712 62.0645C214.71 62.0621 214.707 62.0596 214.704 62.0576C214.635 62.0026 214.664 62.0336 214.702 62.0588C214.679 62.0446 214.656 62.0279 214.639 62.0185C214.585 61.9896 214.529 61.9631 214.472 61.9403C214.464 61.937 214.455 61.9338 214.447 61.9305C214.412 61.9317 214.299 61.8971 214.276 61.8938C214.265 61.8926 214.232 61.8934 214.203 61.8918C214.127 61.9052 214.046 61.9069 213.969 61.9187C213.828 61.9407 213.687 61.9639 213.547 61.9855C213.348 62.0156 213.127 62.0507 212.929 62.0075C212.939 62.0095 212.887 61.9945 212.834 61.9798C212.799 61.97 212.764 61.9598 212.747 61.9553C212.74 61.9533 212.734 61.9521 212.733 61.9513C212.631 61.9228 212.53 61.8922 212.432 61.8519C211.791 61.5871 212.06 60.5654 212.71 60.5332C212.737 60.5324 212.84 60.5145 212.839 60.521C212.867 60.508 212.896 60.4925 212.924 60.4831C213.025 60.4497 213.129 60.4298 213.23 60.3964C213.474 60.3157 213.707 60.2351 213.96 60.187C214.439 60.097 214.938 60.1711 215.384 60.3613C215.711 60.5007 215.976 60.7023 216.211 60.9504C216.402 60.8147 216.586 60.7394 216.82 60.6913C216.949 60.6644 217.076 60.6367 217.203 60.5988C217.255 60.5829 217.306 60.5662 217.358 60.5487C217.4 60.5341 217.425 60.5263 217.433 60.5243C217.496 60.499 217.558 60.4705 217.621 60.4457C217.63 60.4057 217.636 60.365 217.641 60.3255C217.665 60.1291 217.664 59.9589 217.635 59.7193C217.59 59.338 217.377 59.0215 217.083 58.7995C216.871 58.6386 216.634 58.5062 216.394 58.3816C215.771 58.5319 215.134 58.6309 214.493 58.6867C214.368 58.6977 214.246 58.703 214.126 58.703C213.481 58.703 212.898 58.5469 212.3 58.2353C211.97 58.0638 211.711 57.8381 211.428 57.6072C211.255 57.4662 211.353 57.5114 211.194 57.5469C211.011 57.5876 210.839 57.6947 210.66 57.7514C209.392 58.1538 207.946 57.3037 207.44 56.115C207.274 55.7268 207.704 55.3129 208.09 55.5133C208.664 55.8135 209.112 56.3472 209.745 56.5358C210.384 56.7264 211.034 56.2445 211.634 56.0832C212.944 55.7304 214.176 56.834 215.408 57.1204C215.989 57.256 216.755 57.0197 217.27 56.7395C217.841 56.4287 218.231 55.8649 218.8 55.5353C219.425 55.1748 220.143 55.1243 220.826 55.3357C221.432 55.5231 222.139 55.7614 222.647 56.1362C222.693 56.17 222.732 56.2066 222.766 56.2453C223.354 56.5684 224 56.5435 224.596 56.0999C224.847 55.9138 225.195 55.5899 225.312 55.3712C225.468 55.0823 225.483 54.8595 225.5 54.4562C225.501 54.4387 225.507 54.3491 225.512 54.2831C225.507 54.2538 225.503 54.1116 225.499 54.088C225.497 54.0717 225.464 53.9075 225.466 53.8888C225.446 53.837 225.421 53.7869 225.398 53.7368C225.395 53.7327 225.394 53.7291 225.393 53.7258C225.384 53.7148 225.371 53.6961 225.352 53.6676C225.223 53.4606 225.169 53.3739 225.191 53.4073C225.184 53.3954 225.175 53.382 225.165 53.3669C225.01 53.1176 224.864 52.8903 224.827 52.5897C224.802 52.3762 224.829 52.1982 224.796 51.9615C224.767 51.7578 224.704 51.5387 224.65 51.3399C224.58 51.0775 224.477 50.7716 224.261 50.5916C224.112 50.4677 224.042 50.2926 224.035 50.1137C224.03 50.1125 224.026 50.1117 224.021 50.1105C223.136 49.906 222.285 49.5715 221.37 49.805C220.575 50.007 219.883 50.4885 219.095 50.7105C218.815 50.7895 218.372 50.8429 217.883 50.8429C216.61 50.8429 215.022 50.4808 215.168 49.2623C215.207 48.9283 215.426 48.7552 215.705 48.6032C216.073 48.402 216.428 48.2183 216.72 47.9075C216.93 47.683 217.088 47.4186 217.152 47.1314C216.816 47.2504 216.452 47.3054 216.086 47.3054C215.547 47.3054 215.001 47.1868 214.523 46.977C213.876 46.6939 213.331 46.2332 212.716 45.8914C212.524 45.7847 212.323 45.7073 212.117 45.6425C212.074 45.6845 212.032 45.7264 211.991 45.7692C211.843 45.9216 211.702 46.0808 211.575 46.2511C211.539 46.3008 211.503 46.3517 211.469 46.4035C211.465 46.4096 211.439 46.4519 211.423 46.4756C211.411 46.5008 211.387 46.5448 211.384 46.5513C211.363 46.5953 211.343 46.6397 211.325 46.685C211.302 46.7416 211.283 46.7986 211.264 46.856C211.256 46.8785 211.248 46.9119 211.247 46.9176C211.228 47.0194 211.216 47.1221 211.194 47.2235C211.144 47.4691 211.082 47.7119 211.026 47.9563C211.042 47.8875 211.022 47.9747 211.018 47.9967C211.009 48.0431 211 48.0904 210.993 48.1372C210.983 48.1991 210.975 48.2615 210.97 48.3242C211.595 48.3087 212.236 48.4277 212.836 48.5588C213.752 48.7588 213.474 50.0657 212.558 49.8388C211.662 49.6167 210.503 49.341 209.73 50.0188C209.356 50.3455 209.45 50.6278 209.368 51.078C209.266 51.6307 208.998 52.2267 208.518 52.5555C207.885 52.9881 207.125 52.8031 206.638 52.252C206.374 51.9526 206.117 51.8238 205.697 51.8397C205.231 51.8572 204.778 51.9994 204.362 52.2002C203.9 52.4223 203.471 52.7787 202.988 52.9363C202.893 52.9677 202.8 52.982 202.711 52.982C202.056 52.982 201.615 52.2063 202.178 51.6629C202.44 51.4104 202.784 51.2103 203.133 51.0388C203.039 50.9093 202.943 50.7806 202.842 50.6547C202.672 50.4437 202.473 50.3687 202.262 50.3687C201.963 50.3687 201.641 50.5199 201.348 50.647ZM215.423 62.621C215.408 62.6002 215.398 62.5851 215.396 62.5851C215.388 62.5921 215.401 62.6055 215.423 62.621ZM217.678 60.4229C217.68 60.4216 217.682 60.4208 217.685 60.4196C217.689 60.4155 217.694 60.411 217.7 60.4057C217.693 60.4114 217.685 60.4171 217.678 60.4229ZM199.354 57.0841C199.351 57.0821 199.347 57.08 199.343 57.078C199.317 57.0788 199.32 57.0809 199.354 57.0841ZM225.215 53.4443C225.242 53.4851 225.239 53.4806 225.206 53.4301C225.209 53.4345 225.212 53.4394 225.215 53.4443ZM249.948 39.3875C250.451 40.302 250.585 41.3567 250.419 42.3844C250.264 43.343 249.807 44.1719 249.37 45.0229C249.279 45.2001 249.142 45.4494 249.165 45.6515C249.195 45.9053 249.476 46.1411 249.666 46.276C249.983 46.5012 250.358 46.6218 250.735 46.6972C251.15 46.7799 251.57 46.887 251.991 46.9355C252.383 46.9803 252.806 47.0108 253.184 46.8821C253.551 46.7567 253.815 46.4809 254.097 46.2263C254.42 45.9338 254.722 45.6246 255.02 45.3052C255.155 45.1602 255.212 45.0983 255.298 44.9659C255.353 44.8803 255.403 44.7915 255.449 44.6999C255.522 44.5475 255.535 44.5162 255.487 44.6058C255.597 44.2815 255.621 43.9357 255.74 43.6143C255.864 43.2798 256.052 43.0093 256.273 42.7397C256.096 42.4101 256.084 41.9954 256.296 41.6715C256.573 41.2491 257.246 41.1049 257.641 41.4581C257.732 41.5379 257.823 41.6141 257.922 41.6829C257.952 41.7033 258.086 41.7803 258.034 41.7542C258.2 41.8386 258.347 41.8866 258.447 41.9078C258.849 41.9925 259.114 41.9909 259.5 41.9282C260.216 41.8109 260.858 41.3962 261.416 40.8495C261.687 40.5839 261.966 40.258 262.143 39.9199C262.204 39.8042 262.268 39.5651 262.331 39.4054C262.439 39.1304 262.577 38.8738 262.7 38.6065C262.79 38.4118 263.037 37.8908 263.083 37.6289C263.173 37.1172 263.082 36.5824 263.118 36.0658C263.145 35.6878 263.428 35.3468 263.808 35.2914C264.212 35.232 264.549 35.4874 264.734 35.8243C264.891 36.109 265.006 36.4035 265.082 36.7038C265.357 36.6781 265.632 36.6907 265.904 36.6537C265.842 36.6618 265.896 36.6484 265.948 36.6357C265.955 36.6304 265.977 36.619 266.001 36.6076C266.007 36.6003 266.025 36.5852 266.044 36.5697C266.05 36.56 266.092 36.5103 266.109 36.4781C266.119 36.4589 266.163 36.3465 266.16 36.3636C266.172 36.3196 266.183 36.2752 266.193 36.2304C266.225 36.0801 266.229 35.929 266.241 35.7766C266.244 35.7448 266.245 35.7281 266.247 35.7208C266.246 35.7106 266.246 35.6972 266.246 35.6805C266.245 35.6031 266.244 35.5253 266.241 35.4479C266.236 35.3012 266.228 35.1542 266.216 35.0075C266.191 34.7052 266.156 34.4042 266.123 34.1027C266.117 34.0494 266.115 33.9956 266.11 33.9422C266.106 33.9076 266.088 33.8127 266.095 33.829C266.091 33.8172 266.087 33.805 266.082 33.7932C266.072 33.7846 266.062 33.7756 266.052 33.7671C266.05 33.7659 266.047 33.7642 266.045 33.763C266.027 33.7536 266.008 33.7443 265.99 33.7349C265.977 33.728 265.968 33.7227 265.96 33.7182C265.951 33.717 265.937 33.7145 265.919 33.7105C265.86 33.697 265.803 33.6832 265.743 33.6746C265.796 33.6828 265.606 33.6681 265.609 33.6681C265.472 33.6665 265.333 33.6726 265.198 33.6881C265.187 33.6893 265.176 33.6905 265.164 33.6913C265.088 33.743 264.997 33.7687 264.921 33.8184C264.771 33.9166 264.639 34.0689 264.505 34.1867C264.062 34.5765 263.48 34.9717 262.888 34.9717C262.67 34.9717 262.45 34.9175 262.235 34.7896C261.841 34.5553 261.799 33.6938 262.308 33.572C262.496 33.5271 262.683 33.561 262.871 33.5255C263.036 33.4946 263.204 33.4277 263.357 33.3577C263.654 33.2212 263.994 32.9862 264.141 32.6868C264.329 32.3051 264.481 32.0741 264.536 31.7323C264.537 31.7156 264.538 31.7013 264.539 31.6891C264.539 31.6586 264.538 31.6276 264.536 31.5971C264.536 31.5938 264.536 31.591 264.535 31.5881C264.527 31.5539 264.518 31.5205 264.508 31.4871C264.543 31.6761 264.498 31.4806 264.471 31.4195C264.446 31.3779 264.433 31.3539 264.43 31.3473C264.42 31.3327 264.409 31.3184 264.398 31.3046C264.202 31.0528 263.94 30.8618 263.587 30.6263C263.276 30.4194 262.934 30.1183 262.571 30.0214C262.174 29.9155 261.77 29.9745 261.371 30.08C261.601 30.4617 261.746 30.8744 261.694 31.371C261.649 31.8016 261.474 32.1914 261.221 32.5389C261.106 32.6969 260.948 32.866 260.797 32.9854C260.703 33.0595 260.549 33.1499 260.459 33.187C260.47 33.1825 260.392 33.2037 260.315 33.2253C260.214 33.2534 260.116 33.2819 260.23 33.2505C259.526 33.4453 258.825 33.5895 258.086 33.5328C257.668 33.5007 257.263 33.1467 257.303 32.7031C257.344 32.2297 257.802 32.0281 258.22 32.0252C258.428 32.024 258.653 31.9861 258.849 31.9299C258.827 31.9356 258.905 31.8728 258.919 31.8614C258.911 31.8675 258.753 32.1185 258.965 31.7914C259.063 31.6406 259.183 31.5197 259.297 31.382C259.357 31.3099 259.493 31.0133 259.494 30.8956C259.497 30.6862 259.497 30.5493 259.374 30.3607C259.053 29.8698 258.596 29.4311 258.188 29.0123C257.981 28.7997 257.751 28.6066 257.547 28.3923C257.54 28.3858 257.532 28.3793 257.522 28.3728C257.528 28.3748 257.524 28.3712 257.512 28.3663C257.487 28.3512 257.459 28.3369 257.442 28.3251C257.467 28.3422 257.485 28.3536 257.499 28.3614C257.48 28.3553 257.452 28.3488 257.417 28.3479C257.318 28.3451 257.232 28.3361 257.131 28.3443C256.677 28.3822 256.196 28.6225 255.943 29.0119C255.678 29.4197 255.648 29.9367 255.645 30.4092C255.641 30.995 255.849 31.5563 255.837 32.1417C255.825 32.7031 255.628 33.3125 255.408 33.8286C255.136 34.4673 254.702 35.1933 254.082 35.5725C254.07 35.7795 254.064 35.9864 254.075 36.1913C254.1 36.6463 254.252 37.0333 254.203 37.4977C254.159 37.9132 253.747 38.1862 253.357 38.1862C253.267 38.1857 253.178 38.1715 253.095 38.1409C252.085 37.7666 252.386 36.2023 252.575 35.3986C252.826 34.3284 252.825 33.4017 252.098 32.5181C251.622 31.9392 250.903 31.6024 250.953 30.7367C250.995 30.0026 251.582 29.5664 252.151 29.2083C252.136 29.0506 252.158 28.8637 252.14 28.7182C252.09 28.2982 251.972 27.778 251.657 27.4697C251.483 27.299 251.309 27.2701 251.072 27.2908C250.996 27.2973 250.742 27.3593 250.548 27.3967C250.632 27.3809 250.894 27.3316 250.502 27.4057C250.485 27.409 250.468 27.4122 250.452 27.4151C250.448 27.4167 250.443 27.4187 250.438 27.4212C249.917 27.6465 249.226 27.7919 248.662 27.7899C248.531 27.7894 248.4 27.7744 248.269 27.7646C248.173 28.2082 248.002 28.64 247.743 29.0906C247.484 29.5387 247.205 29.9965 247.169 30.5245C247.128 31.1054 247.29 31.6846 247.35 32.2602C247.468 33.3744 247.276 34.4971 246.833 35.524C246.695 35.8438 246.56 36.1506 246.47 36.4756C246.49 36.5046 246.51 36.5359 246.531 36.5706C246.557 36.6158 246.587 36.6614 246.61 36.7086C246.66 36.8129 246.657 36.7999 246.572 36.7217C246.723 36.8602 246.816 36.9804 246.923 37.1523C246.952 37.1987 246.979 37.2484 247.011 37.2924C247.026 37.3107 247.056 37.3494 247.087 37.3885C247.139 37.4549 247.193 37.5205 247.168 37.4851C247.236 37.5816 247.299 37.6822 247.366 37.7808C247.4 37.8322 247.434 37.8871 247.472 37.9377C247.453 37.9116 247.513 37.9776 247.539 38.0069C247.653 38.1365 247.751 38.2819 247.855 38.4204C247.849 38.4126 247.846 38.409 247.846 38.409C247.846 38.409 247.85 38.4155 247.858 38.4241C247.858 38.4245 247.858 38.4245 247.859 38.4249C247.859 38.4253 247.859 38.4257 247.859 38.4261C247.86 38.4265 247.86 38.4269 247.86 38.4273C247.862 38.4289 247.863 38.4314 247.865 38.433C247.866 38.4342 247.867 38.4363 247.868 38.4375C247.881 38.453 247.897 38.4729 247.911 38.4896C247.952 38.5389 248.002 38.5772 248.046 38.6241C248.2 38.8265 248.24 38.8783 248.166 38.7801C248.124 38.7255 248.132 38.7341 248.187 38.8062C248.228 38.8555 248.268 38.9056 248.308 38.9548C248.397 39.0628 248.488 39.1691 248.58 39.2738C248.612 39.3105 248.644 39.3471 248.677 39.3838C248.835 39.1504 249.095 39.0021 249.352 39.0021C249.577 39.0021 249.799 39.1162 249.948 39.3875ZM242.088 46.676C242.112 46.6573 242.132 46.6414 242.146 46.63C242.167 46.612 242.188 46.5941 242.208 46.5758C242.168 46.6092 242.128 46.6426 242.088 46.676ZM220.301 20.9123C220.125 21.1584 219.907 21.3682 219.743 21.6265C219.411 22.1463 219.187 22.7447 219.199 23.3675C219.226 24.6658 220.232 25.7722 220.347 27.066C220.462 28.363 219.673 29.5415 219.013 30.6642C218.353 31.7865 217.784 33.1723 218.337 34.3517C218.606 34.9264 219.103 35.3542 219.525 35.8287C219.946 36.3029 220.316 36.9017 220.234 37.5311C220.149 38.1931 219.593 38.6913 219.356 39.3145C219.065 40.0747 219.294 40.9737 219.822 41.5929C220.35 42.2121 221.137 42.5702 221.94 42.6993C222.518 42.7926 223.13 42.7722 223.663 42.5307C224.197 42.2895 224.639 41.8007 224.722 41.221C224.779 40.8202 224.675 40.3769 224.885 40.0307C225.193 39.5252 225.92 39.5659 226.483 39.3858C227.193 39.1581 227.715 38.4852 227.846 37.7515C227.977 37.0178 227.749 36.2459 227.313 35.6414C227.077 35.3134 226.778 35.0218 226.629 34.6462C226.495 34.306 226.497 33.926 226.547 33.5634C226.763 32.0175 227.784 30.7286 228.634 29.4193C228.789 29.1806 228.942 28.9321 229.001 28.6531C229.068 28.3345 229.063 27.9776 228.907 27.6921C227.904 25.8431 228.59 25.9323 227.334 25.1277C227.234 25.0642 227.14 25.0031 227.051 24.9452C226.961 25.0512 226.836 25.1831 226.65 25.3697C226.369 25.6508 225.817 26.0211 225.874 26.4146C225.918 26.712 226.68 27.1507 226.826 27.413C227.042 27.7976 227.152 28.2412 227.14 28.6824C227.13 29.08 227.025 29.4682 226.92 29.8523C226.669 30.7689 225.558 31.0479 225.307 31.9649C225.229 32.2525 225.558 33.1797 225.417 33.4428C225.117 34.0074 224.629 34.3932 223.995 34.4722C223.913 34.482 223.83 34.4873 223.745 34.4873C223.17 34.4873 222.54 34.2584 222.166 33.8453C221.761 33.3976 221.576 32.7796 221.575 32.1759C221.573 31.5722 221.874 30.9534 222.144 30.4133C222.533 29.6376 222.925 29.3496 223.259 28.8628C223.372 28.6987 223.496 28.5162 223.468 28.319C223.418 27.9671 222.972 27.8697 222.641 27.7381C222.173 27.5515 221.806 27.1311 221.683 26.6427C221.442 25.683 222.073 24.7994 222.518 24.0095C222.648 23.7794 222.744 23.5561 222.819 23.33C222.66 23.2115 222.511 23.0763 222.37 22.9386C221.728 22.3137 221.17 21.6024 220.717 20.8305C220.637 20.6952 220.578 20.6451 220.529 20.6451C220.444 20.6451 220.387 20.7922 220.301 20.9123ZM234.141 24.6483C233.697 25.4944 234.163 25.4451 233.609 26.5445C233.178 27.3992 232.537 28.1524 232.239 29.0629C231.864 30.2088 232.106 31.5372 232.862 32.477C233.266 32.9797 233.803 33.374 234.149 33.9186C234.552 34.5525 234.656 35.3684 234.426 36.0833C234.23 36.6932 233.811 37.2122 233.614 37.822C233.295 38.8106 233.675 40.0103 234.56 40.5537C234.973 40.8067 235.459 40.913 235.938 40.9754C236.553 41.0552 237.187 41.0686 237.781 40.8927C238.661 40.632 239.243 40.192 239.856 39.5101C240.662 38.6151 239.847 38.1756 240.17 37.3168C240.284 37.0138 241.175 36.0878 241.298 35.788C241.826 34.4971 240.649 34.1309 240.49 33.2501C240.344 32.4395 240.67 31.6142 241.107 30.9164C241.545 30.2181 242.097 29.5937 242.484 28.8669C242.871 28.1398 243.235 27.1707 242.767 26.4908C241.96 25.3192 241.126 24.9379 240.742 23.9016C240.46 23.1414 240.707 22.6331 241.02 21.6933C241.311 20.8195 240.213 19.6544 239.607 18.9611C239.555 18.9012 239.58 18.8385 239.524 18.8385C239.518 18.8385 239.51 18.8393 239.5 18.8413C239.439 18.8539 239.395 18.9077 239.358 18.9578C238.835 19.6516 238.354 20.2044 237.885 20.7144C238.143 20.9657 238.349 21.2338 238.468 21.4806C238.754 22.0717 239.036 22.5251 238.618 23.2412C238.477 23.4824 237.904 24.0067 237.902 24.2857C237.899 24.6035 239.186 25.2043 239.455 25.8093C239.571 26.0696 239.661 26.6594 239.652 26.9442C239.606 28.2555 238.265 28.8172 237.64 29.9709C237.192 30.7978 238.796 32.0146 236.886 32.6717C236.655 32.7511 236.408 32.7951 236.156 32.7951C235.438 32.7951 234.687 32.4358 234.201 31.5078C234.014 31.1522 233.982 30.7705 233.993 30.3693C234.051 28.2848 235.229 27.8542 235.931 26.7332C236.044 26.5539 236.11 26.3828 235.902 26.1661C235.827 26.0883 235.352 25.6227 234.842 25.1811C234.687 25.0475 234.591 24.6996 234.647 24.2267L234.141 24.6483ZM191.799 29.6466C191.828 30.1517 191.806 30.6491 191.777 31.1534C191.755 31.5087 191.7 31.9299 191.816 32.2761C191.952 32.677 192.271 33.0326 192.454 33.4135C192.652 33.8241 192.809 34.2881 192.885 34.7378C192.993 35.3745 192.96 36.0956 192.715 36.7131C192.809 36.8883 192.905 37.0622 192.991 37.2407C193.115 37.4973 193.114 37.6069 193.382 37.6924C193.677 37.7878 193.977 37.7751 194.283 37.7882C194.617 37.8024 194.952 37.8802 195.287 37.8774C195.363 37.8766 195.464 37.8782 195.553 37.8635C195.555 37.8423 195.555 37.8118 195.543 37.769C195.433 37.36 195.871 36.6557 196.136 36.386C196.401 36.1163 196.743 35.8035 197.13 35.7493C197.607 35.6833 197.916 35.9212 198.206 36.2284C198.818 36.5547 199.67 36.7188 200.325 36.83C200.633 36.8822 200.931 36.8182 201.231 36.7543C201.519 36.6928 201.811 36.6313 202.117 36.6732C202.66 36.7473 203.197 36.8687 203.743 36.9417C204.363 37.0244 204.893 36.8492 205.472 36.6406C206.468 36.2817 207.529 35.9901 208.5 36.5844C208.653 36.6781 208.78 36.8019 208.872 36.9453C209.006 36.7922 209.121 36.6125 209.224 36.4447C209.373 36.2023 209.52 35.933 209.609 35.6629C209.707 35.3648 209.698 35.0511 209.692 34.7411C209.679 34.073 209.74 33.4392 209.977 32.8102C210.002 32.7438 210.031 32.6684 210.065 32.5886C208.973 32.9018 208.294 34.0164 207.722 34.9272C207.617 35.0951 207.496 35.1627 207.378 35.1627C207.078 35.1627 206.794 34.7276 206.812 34.3977C206.852 33.6457 206.913 32.8913 206.838 32.1397C206.773 31.4838 206.657 30.8349 206.753 30.1746C206.755 30.1627 206.757 30.1509 206.758 30.1391C206.724 30.0874 206.695 30.0438 206.671 30.0083C206.669 30.0075 206.669 30.0067 206.667 30.0055C206.685 30.0328 206.706 30.0642 206.73 30.1008C206.702 30.0752 206.68 30.0393 206.655 30.0112C206.639 29.9937 206.622 29.977 206.605 29.9603C206.548 29.9183 206.491 29.8764 206.432 29.836C206.248 29.7102 206.057 29.5969 205.859 29.4963C205.869 29.5004 205.879 29.5044 205.889 29.5085C205.878 29.5036 205.866 29.4987 205.854 29.4938C205.849 29.4918 205.845 29.4894 205.84 29.4869C205.813 29.4735 205.771 29.4568 205.741 29.445C205.67 29.4132 205.599 29.3794 205.533 29.3472C205.503 29.3342 205.473 29.3211 205.442 29.3085C205.343 29.2694 205.243 29.2307 205.141 29.201C205.118 29.194 205.095 29.1883 205.071 29.183C205.02 29.1883 204.935 29.1769 204.881 29.17C204.807 29.1851 204.734 29.2006 204.66 29.2164C204.638 29.2213 204.508 29.2559 204.499 29.2527C204.465 29.2678 204.43 29.2841 204.396 29.2995C204.382 29.3061 204.369 29.3122 204.355 29.3183C204.373 29.5521 204.371 29.7839 204.339 30.0181C204.34 30.025 204.341 30.0316 204.343 30.0385C204.377 30.2324 204.401 30.4377 204.404 30.6349C204.411 31.0321 204.224 31.4423 204.047 31.791C203.865 32.1507 203.684 32.525 203.439 32.8464C203.277 33.0595 203.087 33.218 202.876 33.3797C202.728 33.4921 202.588 33.6775 202.402 33.73C202.381 33.7361 202.358 33.739 202.335 33.739C202.276 33.739 202.215 33.7178 202.178 33.6697C202.01 33.4481 202.048 33.1609 202.102 32.9039C202.153 32.6595 202.238 32.3992 202.37 32.1873C202.557 31.8875 202.687 31.5588 202.858 31.2496L200.86 31.0602L198.621 29.6022L195.986 30.08L193.358 30.0833L191.781 29.4299C191.788 29.502 191.795 29.5741 191.799 29.6466ZM252.603 30.7506C252.603 30.751 252.603 30.7514 252.603 30.7518C252.612 30.8296 252.639 30.7909 252.668 30.7078C252.646 30.7233 252.624 30.7379 252.603 30.7506ZM252.576 30.7648C252.583 30.7612 252.59 30.7579 252.595 30.7546C252.589 30.7583 252.582 30.7616 252.576 30.7648ZM252.603 30.7506C252.624 30.7363 252.622 30.7273 252.616 30.7273C252.611 30.7273 252.601 30.7347 252.603 30.7506ZM252.759 30.2536C252.75 30.2556 252.754 30.2682 252.763 30.2854C252.765 30.2654 252.763 30.2536 252.759 30.2536ZM206.634 29.9546C206.635 29.9558 206.636 29.9566 206.637 29.9574C206.608 29.9147 206.594 29.8931 206.593 29.8931C206.593 29.8931 206.607 29.9138 206.634 29.9546ZM204.945 29.1561C204.954 29.1586 204.966 29.1614 204.978 29.1639C204.999 29.1688 205.022 29.1733 205.043 29.1765C205.024 29.172 205.005 29.1676 204.985 29.1627C204.971 29.1594 204.96 29.157 204.951 29.1549C204.949 29.1553 204.947 29.1557 204.945 29.1561ZM204.923 29.1504C204.925 29.1504 204.926 29.15 204.928 29.15C204.923 29.1488 204.921 29.1484 204.919 29.1484C204.918 29.1484 204.92 29.1492 204.923 29.1504ZM252.302 29.1081C252.318 29.0983 252.328 29.0926 252.33 29.0938C252.329 29.0934 252.329 29.093 252.328 29.093C252.323 29.093 252.313 29.0995 252.302 29.1081ZM199.693 25.1803C200.205 25.3473 200.61 25.6642 201.062 25.9429C201.393 26.1461 201.756 26.3111 202.151 26.2313C202.35 26.191 202.511 26.0895 202.662 25.9702C202.679 25.6826 202.767 25.3909 202.816 25.0927C202.883 24.6878 202.935 24.28 203.012 23.8767C203.021 23.8307 203.03 23.7838 203.041 23.7374C203.041 23.735 203.041 23.7321 203.041 23.7293C203.055 23.5553 203.066 23.3749 203.104 23.2046C203.138 23.0543 203.228 22.8555 203.311 22.7133C203.41 22.5434 203.443 22.5304 203.481 22.4835C203.482 22.4738 203.482 22.464 203.482 22.4546C203.368 22.356 203.296 22.1833 203.342 22.0456C203.41 21.842 203.437 21.6375 203.49 21.4305C203.534 21.2541 203.571 21.0863 203.59 20.9042C203.605 20.7637 203.609 20.6243 203.608 20.4838C203.58 20.4292 203.558 20.3689 203.546 20.3042C203.535 20.2483 203.534 20.1872 203.541 20.1253C203.54 20.1241 203.539 20.1225 203.538 20.12C203.538 20.1164 203.539 20.1127 203.54 20.1086C203.54 20.1041 203.541 20.0997 203.542 20.096C203.54 20.1041 203.538 20.1111 203.537 20.1176C203.515 20.0618 203.525 19.966 203.521 19.9074C203.514 19.7819 203.507 19.6577 203.516 19.5318C203.546 19.1004 203.697 18.6662 203.902 18.2873C204.09 17.939 204.354 17.6319 204.655 17.3769C204.71 17.3312 204.765 17.2901 204.823 17.2498C204.912 17.1931 205.001 17.1369 205.09 17.0811C205.274 17.0339 205.354 17.0123 205.33 17.0167C205.363 17.0074 205.4 16.9968 205.435 16.9858C205.529 16.9573 205.612 16.9279 205.579 16.9312C205.656 16.9222 205.726 16.9255 205.793 16.9373C205.737 16.6725 205.596 16.4012 205.496 16.2122C205.409 16.048 205.315 15.8888 205.22 15.7303C205.218 15.7295 205.217 15.7287 205.218 15.7287C205.217 15.7262 205.216 15.7238 205.214 15.7213C205.202 15.7185 205.19 15.7156 205.178 15.7136C204.822 15.6533 204.461 15.5934 204.107 15.5238C203.298 15.3645 202.912 15.3409 202.155 15.7478C201.563 16.066 200.978 16.3059 200.36 15.8794C200.048 15.6643 199.932 15.2834 199.698 15.015C199.545 14.9086 199.407 14.8084 199.24 14.7583C198.997 14.7318 198.718 14.8031 198.486 14.8182C198.048 14.9152 197.634 15.0031 197.164 14.9742C197.143 14.973 197.122 14.9714 197.101 14.9702C196.789 15.1046 196.679 15.4244 196.231 15.4663C195.677 15.5185 195.251 15.0761 194.855 14.7485C194.584 14.5249 194.269 14.3249 193.945 14.2116C193.872 14.6353 193.877 15.0716 193.735 15.4855C193.535 16.0676 193.222 16.5536 192.838 17.029C192.098 17.9451 191.466 18.7501 191.708 19.9962C191.836 20.6577 192.067 21.2912 192.285 21.9267C192.396 22.2497 192.562 22.4648 192.716 22.7663C192.898 23.1223 192.956 23.4893 192.98 23.8832C192.984 23.9391 192.98 24.111 192.992 24.1871C193.002 24.166 193.065 24.1831 193.105 24.2087C193.371 24.3802 193.848 24.4075 194.153 24.4588C194.851 24.5766 195.548 24.6967 196.242 24.8385C196.683 24.9285 196.84 25.3261 196.776 25.6911C197.152 25.575 197.522 25.43 197.885 25.2915C198.258 25.1497 198.61 25.0626 198.972 25.0626C199.205 25.0626 199.443 25.0988 199.693 25.1803ZM252.848 20.0312C253.02 20.1803 253.211 20.2915 253.39 20.43C253.55 20.5547 253.709 20.6512 253.893 20.7425C254.332 20.9612 254.814 21.0077 255.237 21.2692C255.754 21.589 256.142 22.0615 256.419 22.5992C256.547 22.8477 256.637 23.1512 256.695 23.4209C256.709 23.4873 256.723 23.5659 256.73 23.6417C256.998 23.8596 257.428 23.8991 257.748 23.8849C258.385 23.8572 259.001 23.6914 259.636 23.6661C259.675 23.4551 259.695 23.2396 259.746 23.0319C259.893 22.4469 260.051 21.7747 260.302 21.2252C260.529 20.7307 260.938 20.2296 261.384 19.9151C261.615 19.7522 261.891 19.6483 262.156 19.555C262.39 19.4727 262.305 19.5285 262.395 19.3065C262.607 18.7888 262.742 18.2967 263.053 17.8233C263.368 17.3443 263.772 16.9446 264.202 16.5682C264.589 16.2301 265.034 15.9584 265.409 15.6085C265.475 15.5466 265.536 15.4822 265.593 15.4154C265.449 15.285 265.287 15.1689 265.143 15.0537C264.787 14.7693 264.501 14.4357 264.274 14.0389C263.891 13.3692 263.769 12.5875 263.454 11.8901C263.127 11.1666 262.692 10.721 261.95 10.4224C261.188 10.1156 260.341 9.89971 259.525 9.75754C259.176 9.78321 258.849 9.7551 258.501 9.62678C258.249 9.53308 258.034 9.37747 257.795 9.26789C257.349 9.44917 257.008 9.93108 256.697 10.2761C256.368 10.6431 256.027 11.0004 255.682 11.354C255.682 11.3544 255.681 11.3552 255.681 11.3556C255.502 11.6485 255.269 11.7919 255.021 11.8221C254.871 11.9602 254.706 12.0872 254.537 12.2107C254.152 12.4914 253.674 12.671 253.391 13.0702C253.151 13.41 253.191 13.8605 253.211 14.2552C253.237 14.7734 253.237 15.3319 253.114 15.8378C252.976 16.4016 252.723 16.9463 252.289 17.341C252.057 17.552 251.811 17.6979 251.522 17.8201C251.303 17.9133 251.029 17.963 250.829 18.093C250.203 18.5004 250.442 19.52 250.788 20.03C250.795 20.0406 250.802 20.0508 250.809 20.0614C250.814 20.0679 250.819 20.074 250.824 20.0805C251.018 20.3241 251.102 20.6533 251.122 20.9555C251.139 21.202 251.04 21.4619 251.116 21.6986C251.28 22.2151 251.923 22.4465 252.41 22.4391C252.959 22.431 253.389 22.1161 253.848 21.866C253.812 21.8501 253.776 21.8334 253.739 21.8151C253.541 21.714 253.344 21.5963 253.17 21.4574C253.001 21.323 252.82 21.1653 252.692 20.9914C252.568 20.8227 252.475 20.6125 252.392 20.4203C252.299 20.2039 252.458 19.953 252.659 19.953C252.72 19.953 252.785 19.9762 252.848 20.0312ZM254.484 23.7195C254.488 23.7211 254.493 23.7232 254.496 23.7248C254.495 23.724 254.493 23.7232 254.491 23.7219C254.488 23.7211 254.486 23.7203 254.484 23.7195ZM205.362 21.2936C205.207 21.4859 204.933 21.5841 204.795 21.7584C204.795 21.7617 204.769 21.809 204.761 21.8383C204.745 21.8953 204.733 21.9532 204.722 22.011C204.704 22.1108 204.696 22.2131 204.678 22.3133C204.674 22.3365 204.659 22.3935 204.647 22.422C204.672 22.4444 204.693 22.4697 204.712 22.497C204.85 22.6603 204.945 22.9068 204.984 23.1174C205.018 23.3015 205.018 23.4967 205.005 23.6873C205.264 23.4738 205.59 23.3659 205.947 23.2274C206.1 23.1679 206.208 23.0681 206.28 22.9459C206.294 22.8127 206.294 22.6779 206.282 22.5487C206.256 22.2514 206.163 21.9336 206.105 21.6187C205.942 21.3983 205.731 21.2289 205.516 21.0504C205.473 21.1376 205.422 21.2195 205.362 21.2936ZM204.619 22.398C204.624 22.4021 204.629 22.4061 204.634 22.4102C204.634 22.4078 204.635 22.4053 204.635 22.4021C204.611 22.3862 204.598 22.378 204.596 22.378C204.595 22.378 204.602 22.385 204.619 22.398ZM203.549 20.0691C203.549 20.0687 203.55 20.0683 203.55 20.0679C203.551 20.065 203.551 20.0622 203.552 20.0593C203.551 20.0626 203.55 20.0658 203.549 20.0691ZM206.564 19.59C206.576 19.5652 206.588 19.5404 206.6 19.5151C206.822 19.0556 207.03 18.5545 207.146 18.0413C207.01 18.2971 206.833 18.5362 206.634 18.7806C206.527 18.911 206.527 18.8959 206.481 19.0641C206.483 19.0576 206.475 19.1403 206.462 19.223C206.447 19.3228 206.425 19.4222 206.401 19.3664C206.429 19.4381 206.499 19.5175 206.564 19.59ZM240.037 3.95711C239.781 4.02758 239.295 4.21986 239.012 4.42924C239.062 4.69362 239.243 4.98122 239.317 5.20404C239.443 5.5833 239.471 6.00777 239.247 6.35892C239.039 6.68236 238.752 6.67218 238.463 6.85019C238.306 6.94715 238.221 7.14064 238.072 7.25348C237.906 7.37895 237.698 7.45065 237.519 7.55738C237.169 7.76554 236.864 7.8853 236.599 8.19857C236.298 8.55338 236.111 8.91837 235.909 9.33511C235.817 9.52575 235.716 9.7111 235.611 9.89523C236.106 10.1364 236.563 10.4582 236.951 10.8448C237.543 11.4355 237.991 12.1292 238.407 12.8502C238.586 13.1619 238.763 13.4707 238.925 13.7851C239.239 14.1636 239.496 14.608 239.742 15.0052C239.814 15.1221 240.006 15.5238 240.212 15.5005C240.135 15.5083 240.212 15.4125 240.224 15.3123C240.242 15.1726 240.17 14.9763 240.13 14.8492C239.964 14.3286 239.724 13.9432 239.742 13.377C239.751 13.0653 240.009 12.7798 240.327 12.7969C241.28 12.849 242.249 13.4531 242.907 14.1844C242.977 14.0634 243.047 13.9424 243.124 13.8255C243.108 13.8475 243.093 13.8695 243.077 13.8919C243.099 13.8442 243.12 13.7978 243.141 13.753C243.125 13.7322 243.109 13.7118 243.094 13.691C242.427 12.7899 241.962 11.9369 242.068 10.7857C242.1 10.4484 242.78 10.1005 242.873 10.5641C243.03 11.3532 243.706 12.1035 244.344 12.5578C244.71 12.8189 245.056 13.1101 245.391 13.4104C245.558 13.5603 245.738 13.7509 245.94 13.8552C246.118 13.9469 246.331 13.966 246.524 14.0124C246.703 14.0556 246.882 14.1004 247.061 14.1473C247.003 13.5676 247.093 12.9891 247.455 12.4812C247.861 11.9121 248.682 11.6294 248.902 11.0525C249.019 10.7438 249.035 10.2839 249.123 9.92497C249.225 9.50987 249.358 9.09558 249.559 8.71714C249.708 8.43809 249.951 8.05965 250.248 7.74313C249.335 7.23352 248.247 7.10602 247.247 6.80661C246.118 6.4685 245.161 5.32096 243.965 5.25374C243.771 5.24274 243.585 5.25252 243.403 5.26189C242.996 5.28307 242.608 5.30425 242.196 5.10179C241.681 4.84842 241.422 4.37547 241.227 3.87319C241.143 3.86056 241.044 3.85527 240.937 3.85527C240.613 3.85527 240.226 3.90537 240.037 3.95711ZM214.34 13.4169C214.359 13.4214 214.378 13.4258 214.398 13.4299C214.418 13.4185 214.439 13.4071 214.46 13.3957C214.417 13.3998 214.377 13.4067 214.34 13.4169ZM254.622 40.5521C254.514 40.267 254.566 39.972 254.798 39.7704C254.808 39.761 254.817 39.7537 254.823 39.748C254.875 39.6946 254.929 39.6388 254.987 39.594C255.038 39.5533 255.099 39.5223 255.153 39.4852C255.214 39.4437 255.274 39.3993 255.332 39.3528C255.357 39.3325 255.382 39.3092 255.408 39.2893C255.412 39.2864 255.415 39.284 255.417 39.2828C255.419 39.2803 255.422 39.2779 255.425 39.275C255.624 39.0771 255.802 38.8567 255.96 38.6249C255.984 38.5903 256.007 38.5552 256.029 38.5198C256.032 38.5153 256.034 38.5116 256.036 38.5084C256.037 38.5063 256.038 38.5043 256.039 38.5019C256.078 38.4265 256.121 38.354 256.158 38.2778C256.228 38.1352 256.289 37.9886 256.344 37.8391C256.415 37.6444 256.487 37.58 256.556 37.4069C256.612 37.2692 256.674 37.1319 256.722 36.9926C256.765 36.8687 256.913 36.8093 257.031 36.8561C257.168 36.9099 257.244 37.0659 257.253 37.2056C257.277 37.5991 257.323 38.0208 257.23 38.4098C257.14 38.7878 257.019 39.165 256.843 39.5121C256.678 39.836 256.47 40.1329 256.209 40.3867C255.926 40.6621 255.65 40.8992 255.251 40.9701C255.219 40.9758 255.188 40.9782 255.158 40.9782C254.905 40.9782 254.71 40.7884 254.622 40.5521ZM205.741 29.445C205.779 29.4621 205.816 29.4784 205.854 29.4938C205.856 29.4947 205.857 29.4955 205.859 29.4963C205.664 29.4197 205.682 29.4226 205.741 29.445ZM257.499 28.3614C257.504 28.363 257.508 28.3646 257.512 28.3663C257.515 28.3683 257.519 28.3708 257.522 28.3728C257.518 28.3716 257.511 28.3683 257.499 28.3614ZM203.537 20.1176C203.537 20.1184 203.538 20.1192 203.538 20.12C203.534 20.1396 203.532 20.1494 203.531 20.1494C203.531 20.1494 203.532 20.1384 203.537 20.1176ZM205.224 17.0408C205.284 17.0269 205.319 17.0188 205.33 17.0167C205.28 17.031 205.238 17.0412 205.227 17.0412C205.225 17.0412 205.225 17.0412 205.224 17.0408Z" fill="black"/>
    </g>
</svg>
